<?xml version="1.0" encoding="UTF-8"?>
<svg id="Layer_2" data-name="Layer 2" xmlns="http://www.w3.org/2000/svg" viewBox="0 0 531.08 408.78">
  <defs>
    <style>
      .cls-1, .cls-2, .cls-3, .cls-4, .cls-5, .cls-6 {
        stroke-width: 0px;
      }

      .cls-2 {
        fill: #99baa8;
      }

      .cls-3 {
        fill: #8897a3;
      }

      .cls-4 {
        fill: #1677d8;
      }

      .cls-5 {
        fill: #916b20;
      }

      .cls-6 {
        fill: #fff;
      }
    </style>
  </defs>
  <g>
    <path class="cls-4" d="m265.11,4.71c6.44,0,12.89.64,19.2,1.95,15.67,3.27,30.38,11.01,41.84,22.21,11.38,11.12,18.87,25.49,22.1,41.04,3.27,15.74,2.4,33.05-5.93,47.15-.1.17-.22.31-.34.43-.05.24-.15.5-.33.75-7.37,10.41-8.1,23.9-4.97,35.95,3.08,11.84,9.86,22.34,17.12,32.03,8.07,10.78,16.68,21.18,25.06,31.73,3.92,4.93,7.66,10.12,12.09,14.61,3.98,4.05,8.79,7.26,14.57,7.83.87.09,1.73.13,2.58.13,11.39,0,21.08-7.43,29.63-14.35-1.96-5.59,2.92-10.95,7.04-14.38,2.37-1.98,4.85-3.82,7.34-5.64,14.14-10.33,28.84-19.93,43.56-29.4,7.38-4.75,14.79-9.44,22.29-14,4.91-2.98,9.83-6.04,14.98-8.59h0c.32-.15.63-.22.93-.22,1.41,0,2.45,1.57,1.99,2.75.82.38,1.53.98,1.94,1.78,6.66,13,12.6,26.36,17.75,40.03,2.55,6.76,5.2,13.63,7.03,20.63,1.45,5.51,1.86,11.43-1.13,16.51-.35.6-.74,1.15-1.16,1.68,1.15.53,1.86,2.07.68,3.21-.37.36-.82.64-1.27.89-.84.48-1.72.9-2.6,1.3-3.3,1.5-6.63,2.87-9.97,4.22-7.85,3.17-15.75,6.19-23.68,9.15-8.61,3.22-17.25,6.36-25.92,9.4-6.52,2.28-13.05,4.58-19.68,6.52-1.72.51-3.52,1.11-5.32,1.26-.18.02-.37.02-.55.02-1.79,0-3.7-.66-5.31-1.32-2.77-1.15-5.15-2.93-7.07-5.17-2.23,1.74-4.53,3.38-6.93,4.86-12.99,8.04-28.25,12.12-43.51,12.12-11.74,0-23.49-2.42-34.17-7.31-13.87-6.35-25.15-17.04-35.38-28.13-11.8-12.79-23-25.69-34.8-38.93-11.8-13.24-23.72-26.39-35.41-39.73-5.07-5.79-9.92-11.69-13.08-19.02-1.92-4.46-3-9.15-3.67-13.92-9.65,10.81-23.69,17.63-39.33,17.63-3.05,0-6.03-.27-8.94-.77-4.64,6.86-9.26,13.72-13.9,20.58-17.34,25.68-34.68,51.35-52.02,77.02-.43.64-1.04.9-1.65.9-.29,0-.58-.06-.84-.17-.65.11-1.31.17-1.98.17-3.49,0-7-1.52-9.19-4.27-.64-.81-.77-1.78-.17-2.6,3.33-7.93,6.78-15.82,10.35-23.65,6.52-14.24,13.58-28.52,20.94-42.06,7.07-13.01,14.61-25.77,22.84-38.08-11.11-9.66-18.15-23.9-18.15-39.78,0-14.61,5.95-27.84,15.56-37.39-4.71-1.91-8.92-4.78-12.16-9.26-3.44-4.75-4.33-10.9-2.52-16.48.02-.05.03-.1.05-.15,2.07-6.2,6.6-10.29,12.56-10.29.2,0,.41,0,.61.01,2.3.13,6.77.46,6.89.46,0,0,0,0,0,0,8.54-.27,16.33-3.19,24.45-6.84s16.01-7.84,24.39-10.88c11.08-4.01,22.88-6.14,34.68-6.14m1.23,4.69c.63-.01,1.25-.02,1.88-.02,4.61,0,9.23.29,13.8.89-2.53-.49-5.09-.87-7.66-1.13-2.98-.29-5.96-.43-8.93-.43-.16,0-.31,0-.47,0,.48.21.94.44,1.39.69m-43.48,8.86c1.83-.68,3.67-1.33,5.51-1.96,1.15-.55,2.3-1.1,3.45-1.66-3.03,1.07-6.02,2.28-8.97,3.61m75.47,105.78c-.23-.12-.46-.22-.67-.35-.03.06-.06.13-.09.19-.02.04-.05.07-.07.11.28.01.56.02.83.05m-120.86,26.67c1.91-2.92,3.48-5.31,4.41-6.74,0,0,0,0-.01,0-1.49,2.23-2.95,4.48-4.4,6.74m81.35-4.82c0-.06.01-.11.01-.17-.07-.14-.14-.28-.2-.42.06.2.12.39.19.59m258.71,57.42c0-.07.01-.13.02-.2-.05.06-.11.12-.16.18.05,0,.1.02.14.03m-76.07,21.36c.25-.25.52-.47.79-.7-.35-.12-.68-.29-1-.49,0,.4.09.79.21,1.19m-8.46,10.13c1.45-.89,2.88-1.8,4.3-2.73.17-.32.35-.62.55-.92-1.57,1.24-3.19,2.47-4.85,3.65m-45.14.29c-.12-.13-.24-.25-.36-.38.06.11.12.21.18.32.06.02.12.04.18.06m77.94,22.83c1.18-1.5,1.94-3.39,2.21-5.13.04-.27.05-.55.08-.82-.48,1.2-.98,2.42-1.46,3.62-.2.82-.48,1.59-.83,2.33m-114.25-3.02c-.1-.15-.2-.3-.3-.45-.2-.13-.4-.28-.6-.41.3.29.6.57.9.86m144.74,6.82c1.28-.45,2.57-.91,3.85-1.36-1.25.35-2.49.72-3.73,1.06-.04.1-.07.2-.12.3m-32.98,3.34c-.02-.28-.03-.56,0-.83-.2.06-.4.12-.6.17.2.23.4.45.61.67m-54.21,14.75c1.31,0,2.62-.03,3.93-.09-.56.01-1.12.02-1.68.02-16.6,0-33.02-4.86-47.26-14.33,6.12,4.37,12.73,8,20,10.41,8.04,2.67,16.52,3.99,25.01,3.99M265.11-1.29v6s0-6,0-6c-12.45,0-24.8,2.19-36.72,6.5-5.98,2.17-11.67,4.88-17.19,7.49-2.5,1.19-5.08,2.42-7.62,3.56-7.97,3.58-14.75,6.03-21.91,6.31-.26-.02-.68-.05-1.2-.08-1.56-.11-3.94-.27-5.42-.36h-.04s-.04,0-.04,0c-.3-.01-.59-.02-.89-.02-8.3,0-15.29,5.51-18.25,14.39l-.07.2c-2.41,7.44-1.15,15.61,3.37,21.85,2.11,2.92,4.61,5.39,7.55,7.44-7.84,10.2-12.09,22.61-12.09,35.69,0,15.22,5.91,29.77,16.38,40.66-6.85,10.53-13.53,21.81-20.34,34.33-7.14,13.14-14.25,27.42-21.12,42.43-3.43,7.5-6.88,15.37-10.25,23.39-1.61,2.85-1.31,6.4.83,9.09,3.25,4.09,8.44,6.54,13.88,6.54.56,0,1.12-.03,1.68-.08.38.05.76.08,1.14.08,2.65,0,5.13-1.33,6.63-3.55l1.4-2.07c16.87-24.98,33.75-49.96,50.62-74.95l7.23-10.71,4.58-6.78c2.03.21,4.06.32,6.06.32,12.99,0,25.54-4.33,35.72-12.13.52,1.67,1.11,3.27,1.77,4.8,3.54,8.22,8.9,14.68,14.08,20.6,7.81,8.92,15.85,17.88,23.62,26.55,3.95,4.4,7.89,8.81,11.83,13.22,3.54,3.97,7.02,7.91,10.49,11.83,8.27,9.35,16.08,18.19,24.38,27.18,9.83,10.65,21.94,22.49,37.29,29.52,11.23,5.14,23.91,7.85,36.67,7.85,16.77,0,32.91-4.5,46.66-13.02,1.11-.69,2.22-1.42,3.34-2.2,1.6,1.19,3.34,2.17,5.2,2.94,2.02.83,4.69,1.78,7.61,1.78.35,0,.7-.01,1.05-.04,2.2-.18,4.17-.77,5.9-1.3l.64-.19c6.49-1.9,12.94-4.15,19.17-6.33l.79-.28c8.39-2.94,17.15-6.12,26.04-9.44,9.26-3.46,16.83-6.38,23.82-9.21,3.1-1.26,6.68-2.72,10.2-4.32,1.15-.52,2.15-1.03,3.07-1.54.63-.35,1.57-.93,2.47-1.79,1.93-1.86,2.78-4.39,2.35-6.96-.03-.19-.07-.38-.12-.56,2.74-5.49,3.08-11.97,1.03-19.74-1.79-6.86-4.31-13.51-6.74-19.95l-.48-1.27c-5.16-13.71-11.23-27.38-18.02-40.65-.42-.82-.96-1.58-1.61-2.25-.24-.68-.56-1.34-.99-1.96-.46-.67-1-1.26-1.6-1.75v-5.26l-8.66,4.28c-4.86,2.41-9.47,5.21-13.93,7.93l-1.5.91c-6.68,4.06-13.81,8.54-22.42,14.08-13.51,8.69-29.16,18.87-43.85,29.6-2.46,1.8-5.08,3.74-7.65,5.88-7.55,6.27-9.69,11.97-9.65,16.47-7.56,5.94-15.09,10.87-23.17,10.87-.66,0-1.33-.03-1.99-.1-3.67-.36-7.23-2.35-10.88-6.06-3.14-3.18-5.92-6.77-8.87-10.56-.93-1.2-1.86-2.4-2.8-3.58-2.47-3.1-4.99-6.24-7.43-9.28-5.84-7.26-11.88-14.78-17.52-22.31-6.31-8.42-13.15-18.56-16.12-29.94-3.05-11.73-1.57-23.02,4.06-30.97.29-.41.54-.84.74-1.28.07-.1.13-.21.2-.32,8.26-13.98,10.62-32.25,6.64-51.42-3.56-17.13-11.78-32.39-23.78-44.11-12.12-11.84-28.03-20.29-44.81-23.79-6.63-1.38-13.5-2.08-20.43-2.08h0Z"/>
    <path class="cls-6" d="m265.11,4.71c6.44,0,12.89.64,19.2,1.95,15.67,3.27,30.38,11.01,41.84,22.21,11.38,11.12,18.87,25.49,22.1,41.04,3.27,15.74,2.4,33.05-5.93,47.15-.1.17-.22.31-.34.43-.05.24-.15.5-.33.75-7.37,10.41-8.1,23.9-4.97,35.95,3.08,11.84,9.86,22.34,17.12,32.03,8.07,10.78,16.68,21.18,25.06,31.73,3.92,4.93,7.66,10.12,12.09,14.61,3.98,4.05,8.79,7.26,14.57,7.83.87.09,1.73.13,2.58.13,11.39,0,21.08-7.43,29.63-14.35-1.96-5.59,2.92-10.95,7.04-14.38,2.37-1.98,4.85-3.82,7.34-5.64,14.14-10.33,28.84-19.93,43.56-29.4,7.38-4.75,14.79-9.44,22.29-14,4.91-2.98,9.83-6.04,14.98-8.59h0c.32-.15.63-.22.93-.22,1.41,0,2.45,1.57,1.99,2.75.82.38,1.53.98,1.94,1.78,6.66,13,12.6,26.36,17.75,40.03,2.55,6.76,5.2,13.63,7.03,20.63,1.45,5.51,1.86,11.43-1.13,16.51-.35.6-.74,1.15-1.16,1.68,1.15.53,1.86,2.07.68,3.21-.37.36-.82.64-1.27.89-.84.48-1.72.9-2.6,1.3-3.3,1.5-6.63,2.87-9.97,4.22-7.85,3.17-15.75,6.19-23.68,9.15-8.61,3.22-17.25,6.36-25.92,9.4-6.52,2.28-13.05,4.58-19.68,6.52-1.72.51-3.52,1.11-5.32,1.26-.18.02-.37.02-.55.02-1.79,0-3.7-.66-5.31-1.32-2.77-1.15-5.15-2.93-7.07-5.17-2.23,1.74-4.53,3.38-6.93,4.86-12.99,8.04-28.25,12.12-43.51,12.12-11.74,0-23.49-2.42-34.17-7.31-13.87-6.35-25.15-17.04-35.38-28.13-11.8-12.79-23-25.69-34.8-38.93-11.8-13.24-23.72-26.39-35.41-39.73-5.07-5.79-9.92-11.69-13.08-19.02-1.92-4.46-3-9.15-3.67-13.92-9.65,10.81-23.69,17.63-39.33,17.63-3.05,0-6.03-.27-8.94-.77-4.64,6.86-9.26,13.72-13.9,20.58-17.34,25.68-34.68,51.35-52.02,77.02-.43.64-1.04.9-1.65.9-.29,0-.58-.06-.84-.17-.65.11-1.31.17-1.98.17-3.49,0-7-1.52-9.19-4.27-.64-.81-.77-1.78-.17-2.6,3.33-7.93,6.78-15.82,10.35-23.65,6.52-14.24,13.58-28.52,20.94-42.06,7.07-13.01,14.61-25.77,22.84-38.08-11.11-9.66-18.15-23.9-18.15-39.78,0-14.61,5.95-27.84,15.56-37.39-4.71-1.91-8.92-4.78-12.16-9.26-3.44-4.75-4.33-10.9-2.52-16.48.02-.05.03-.1.05-.15,2.07-6.2,6.6-10.29,12.56-10.29.2,0,.41,0,.61.01,2.3.13,6.77.46,6.89.46,0,0,0,0,0,0,8.54-.27,16.33-3.19,24.45-6.84s16.01-7.84,24.39-10.88c11.08-4.01,22.88-6.14,34.68-6.14m1.23,4.69c.62-.01,1.25-.02,1.87-.02,4.61,0,9.23.29,13.8.89-2.53-.49-5.09-.87-7.66-1.13-2.98-.29-5.96-.43-8.93-.43-.16,0-.31,0-.47,0,.48.21.94.44,1.39.69m-43.48,8.86c1.83-.68,3.67-1.33,5.51-1.96,1.15-.55,2.3-1.1,3.45-1.66-3.03,1.07-6.02,2.28-8.97,3.61m75.47,105.78c-.23-.12-.46-.22-.67-.35-.03.06-.06.13-.09.19-.02.04-.05.07-.07.11.28.01.56.02.83.05m-120.86,26.67c1.91-2.92,3.48-5.31,4.41-6.74,0,0,0,0-.01,0-1.49,2.23-2.95,4.48-4.4,6.74m81.35-4.82c0-.06.01-.11.01-.17-.07-.14-.14-.28-.2-.42.06.2.12.39.19.59m258.71,57.42c0-.07.01-.13.02-.2-.05.06-.11.12-.16.18.05,0,.1.02.14.03m-76.07,21.36c.25-.25.52-.47.79-.7-.35-.12-.68-.29-1-.49,0,.4.09.79.21,1.19m-8.46,10.13c1.45-.89,2.88-1.8,4.3-2.73.17-.32.35-.62.55-.92-1.57,1.24-3.19,2.47-4.85,3.65m-45.14.29c-.12-.13-.24-.25-.36-.38.06.11.12.21.18.32.06.02.12.04.18.06m77.94,22.83c1.18-1.5,1.94-3.39,2.21-5.13.04-.27.05-.55.08-.82-.48,1.2-.98,2.42-1.46,3.62-.2.82-.48,1.59-.83,2.33m-114.25-3.02c-.1-.15-.2-.3-.3-.45-.2-.13-.4-.28-.6-.41.3.29.6.57.9.86m144.74,6.82c1.28-.45,2.57-.91,3.85-1.36-1.25.35-2.49.72-3.73,1.06-.04.1-.07.2-.12.3m-32.98,3.33c-.02-.28-.03-.56,0-.83-.2.06-.4.12-.6.17.2.23.4.45.61.67m-54.21,14.75c1.31,0,2.62-.03,3.93-.09-.56.01-1.12.02-1.68.02-16.6,0-33.02-4.86-47.26-14.33,6.12,4.37,12.73,8,20,10.41,8.04,2.67,16.52,3.99,25.01,3.99M265.11,3.71c-11.87,0-23.65,2.09-35.02,6.2-5.75,2.09-11.34,4.74-16.74,7.31-2.52,1.2-5.13,2.44-7.72,3.6-8.59,3.86-15.97,6.49-24.03,6.75-.15,0-.71-.05-1.47-.1-1.55-.11-3.9-.27-5.37-.36-.23-.01-.45-.02-.67-.02-6.17,0-11.21,4.1-13.51,10.97l-.05.16c-1.92,5.92-.93,12.42,2.66,17.38,2.83,3.92,6.51,6.88,11.23,9.02-9.57,10.03-14.82,23.13-14.82,37.04,0,15.25,6.49,29.76,17.83,39.95-7.57,11.39-14.91,23.65-22.4,37.43-7.09,13.04-14.15,27.21-20.97,42.12-3.46,7.56-6.93,15.49-10.33,23.58-.75,1.13-.65,2.54.27,3.71,2.31,2.91,6.04,4.65,9.97,4.65.63,0,1.27-.05,1.89-.14.31.09.62.14.93.14,1,0,1.9-.49,2.48-1.34l.7-1.04c17.1-25.32,34.21-50.64,51.32-75.98l7.32-10.84,6.22-9.21c2.84.45,5.68.68,8.47.68,14.58,0,28.55-5.96,38.66-16.43.77,4.64,1.88,8.53,3.43,12.12,3.26,7.55,8.33,13.67,13.25,19.28,7.79,8.89,15.82,17.84,23.58,26.5,3.95,4.41,7.9,8.82,11.84,13.23,3.54,3.98,7.03,7.92,10.5,11.84,8.25,9.33,16.05,18.15,24.31,27.1,9.49,10.29,21.15,21.7,35.7,28.36,10.58,4.84,22.54,7.4,34.59,7.4,15.84,0,31.07-4.24,44.03-12.27,2.06-1.27,4.12-2.7,6.28-4.35,1.94,2.07,4.23,3.66,6.81,4.74,1.58.65,3.65,1.4,5.69,1.4.21,0,.43,0,.64-.03,1.68-.14,3.3-.63,4.86-1.1l.66-.2c6.38-1.87,12.77-4.1,18.94-6.26l.79-.27c8.35-2.93,17.08-6.09,25.94-9.41,9.22-3.44,16.75-6.35,23.7-9.16,3.04-1.23,6.58-2.68,10.01-4.24,1.01-.46,1.89-.9,2.68-1.34.43-.24.98-.58,1.47-1.04.72-.7,1.03-1.59.88-2.51-.1-.61-.41-1.18-.84-1.63.22-.32.43-.64.62-.96,2.69-4.57,3.09-10.22,1.23-17.27-1.73-6.61-4.19-13.14-6.58-19.45l-.48-1.28c-5.1-13.53-11.09-27.03-17.8-40.13-.38-.75-.97-1.38-1.72-1.86.02-.62-.17-1.26-.56-1.82-.58-.85-1.5-1.37-2.47-1.4v-.38l-1.44.7c-4.66,2.31-9.18,5.06-13.55,7.72l-1.5.91c-6.64,4.04-13.73,8.49-22.31,14.01-14.07,9.05-29.03,18.78-43.61,29.43-2.4,1.75-4.94,3.63-7.39,5.68-6.16,5.12-8.76,10.22-7.55,14.79-9.01,7.27-18,13.7-28.47,13.7-.82,0-1.66-.04-2.48-.12-4.88-.48-9.45-2.95-13.96-7.54-3.34-3.39-6.35-7.26-9.25-11-.92-1.18-1.84-2.37-2.77-3.54-2.46-3.09-4.98-6.23-7.41-9.26-5.87-7.3-11.94-14.84-17.63-22.45-6.6-8.81-13.77-19.46-16.95-31.68-3.42-13.16-1.66-25.97,4.82-35.12.19-.27.33-.55.42-.84.11-.13.21-.27.3-.41,7.63-12.91,9.78-29.91,6.05-47.86-3.36-16.16-11.09-30.52-22.38-41.55-11.44-11.18-26.48-19.16-42.33-22.47-6.29-1.31-12.82-1.97-19.41-1.97h0Z"/>
  </g>
  <path class="cls-5" d="m490.01,255.99c21.16-.59,43.24-7.64,59.49-21.56,9.59-8.21,8.07-19.08,3.68-29.62-4.83-11.6-9.7-23.18-14.55-34.78-4.87,2.05-9.75,4.11-14.62,6.16,8.62,18.63,14.32,38.46,17.37,58.74l11.75-9.03c-5.05-2.54-10.4-5.11-14.43-9.16-4.41-4.44-4.75-10.12-4.8-16.08-.06-7.41.48-14.94,0-22.33s-4.83-13.51-12.67-13.54c-6.38-.02-9.55,6.73-6.91,12.04,2.98,5.99,5.55,12.11,7.65,18.46.96,2.91,1.83,5.86,2.6,8.82.33,1.27.61,2.56.96,3.82.48,1.72-.8,1.29.28.4l3.53-2.06c2.89,2.75,4.18,2.8,3.86.14.1-.71.2-1.42.29-2.13.2-1.63.3-3.15.16-4.79-.31-3.51-1.38-6.98-3.27-9.97-3.74-5.93-9.89-9.72-16.85-10.39-15.68-1.49-25.94,11.64-33.24,23.55-4.66,7.6,6.5,16.64,12.56,9.69,5.55-6.36,12.8-9.6,21.25-9.28l-5.66-13.66c-10.98,12.21-23,23.37-35.99,33.41-3.11,2.4-2.84,7.73-.63,10.5,2.63,3.3,6.59,3.78,10.32,2.06,12.68-5.85,25.35-11.71,38.03-17.56l-12.04-6.91c-.77,11.29-11.23,19.71-22.46,17.68v15.43c14.06-3.75,28.13-7.51,42.19-11.26,9.94-2.65,5.72-18.09-4.25-15.43-14.06,3.75-28.13,7.51-42.19,11.26-7.23,1.93-8.01,13.98,0,15.43,21.82,3.95,41.2-10.89,42.71-33.11.45-6.6-7-9.24-12.04-6.91-12.68,5.85-25.35,11.71-38.03,17.56l9.69,12.56c12.99-10.04,25.01-21.2,35.99-33.41,4.67-5.2,1.43-13.39-5.66-13.66-12.34-.46-24.44,4.65-32.56,13.97,4.19,3.23,8.38,6.46,12.56,9.69,3.36-5.48,12.38-20.79,20.93-14.75,3.97,2.8,2.31,7.2,2.12,11.2-.28,5.85,2.41,11.47,7.78,14.09,4.94,2.4,11.21.68,14.22-3.92,2.76-4.22,2.67-9.19,1.72-13.96-2.39-11.99-7.32-23.78-12.75-34.68l-6.91,12.04.2.19-3.53-2.06c0-.87,0-.78.01.25.02.91.02,1.82.01,2.73v5.7c0,3.17-.01,6.33-.02,9.5,0,6.56-.09,13.37,2.22,19.61,4.22,11.42,14.55,17.79,24.92,23.01,6.67,3.36,12.79-2.15,11.75-9.03-3.26-21.73-9.76-42.63-18.98-62.56-3.76-8.12-18.13-2.23-14.62,6.16,3.83,9.15,7.66,18.3,11.48,27.45,1.92,4.58,4.23,9.17,5.63,13.94,1.19,4.06.22,5.64-3.07,8.16-13.39,10.3-30.48,15.68-47.23,16.15-10.27.29-10.32,16.29,0,16h0l.05.04Z"/>
  <path class="cls-5" d="m481.13,188.47c-10.36,7.14-20.71,14.28-31.07,21.43-6.32,4.36-.32,14.76,6.06,10.36,10.36-7.14,20.71-14.28,31.07-21.43,6.32-4.36.32-14.76-6.06-10.36h0Z"/>
  <path class="cls-5" d="m447.86,211.87c-2.16,1.33-4.32,2.65-6.48,3.98-2.01,1.23-2.95,4.08-1.61,6.16s4.01,2.93,6.16,1.61,4.32-2.65,6.48-3.98c2.01-1.23,2.95-4.08,1.61-6.16s-4.01-2.93-6.16-1.61h0Z"/>
  <path class="cls-5" d="m457.32,220.38c10.9,12.1,14.63,29.08,10.12,44.67l7.52-1.99c-2.37-2.49-5.16-3.13-8.47-2.43-4.59.98-3.95,7.38,0,8.68,10.23,3.36,21.42-1.04,26.89-10.24,2.97-4.99-4.81-9.52-7.77-4.54-3.51,5.9-10.28,8.22-16.73,6.1v8.68l-.28.11c2.37,2.49,6.6,1.19,7.52-1.99,5.42-18.74.59-38.98-12.43-53.43-3.89-4.31-10.23,2.07-6.36,6.36h0v.02Z"/>
  <path class="cls-5" d="m476.59,203.4c-3.8,4.83-7.59,9.66-11.39,14.49-3.48,4.42,2.27,10.68,6.36,6.36,3.56-3.75,7.11-7.5,10.67-11.24s-.92-9.25-5.45-7.07c-6.56,3.15-13.11,6.31-19.67,9.46,1.51,2.59,3.03,5.18,4.54,7.77,8.05-5.25,16.1-10.5,24.15-15.74-2.05-2.05-4.1-4.1-6.16-6.16-3.29,4.8-6.59,9.61-9.88,14.41-2.91,4.24,3.57,9.1,7.07,5.45,3.31-3.45,6.61-6.9,9.92-10.35l-7.07-5.45c-2.64,5.71-5.28,11.43-7.92,17.14-1.99,4.31,3.41,9.56,7.07,5.45,1.83-2.05,3.66-4.11,5.49-6.16l-7.52-4.38c-1.63,5.39-3.25,10.79-4.88,16.18-1.24,4.13,4.57,7.88,7.52,4.38,1.58-1.87,3.15-3.75,4.73-5.62l-7.52-4.38c-.48,3.06-.97,6.11-1.45,9.17-.88,5.58,7.29,8.15,8.68,2.39,1.05-4.33,2.09-8.66,3.14-13l-8.84-1.2c-.89,11.56-1.79,23.11-2.68,34.67-.34,4.4,6.45,6.21,8.39,2.27.7-1.43,1.41-2.86,2.11-4.29,2.54-5.18-5.22-9.75-7.77-4.54-.7,1.43-1.41,2.86-2.11,4.29l8.39,2.27c.89-11.56,1.79-23.11,2.68-34.67.39-5.08-7.66-6.08-8.84-1.2-1.05,4.33-2.09,8.66-3.14,13l8.68,2.39c.48-3.06.97-6.11,1.45-9.17.62-3.92-4.3-8.22-7.52-4.38-1.58,1.87-3.15,3.75-4.73,5.62l7.52,4.38c1.63-5.39,3.25-10.79,4.88-16.18,1.26-4.19-4.51-7.77-7.52-4.38-1.83,2.05-3.66,4.11-5.49,6.16l7.07,5.45c2.64-5.71,5.28-11.43,7.92-17.14,2.02-4.38-3.29-9.39-7.07-5.45-3.31,3.45-6.61,6.9-9.92,10.35l7.07,5.45c3.29-4.8,6.59-9.61,9.88-14.41,2.54-3.71-2.47-8.56-6.16-6.16-8.05,5.25-16.1,10.5-24.15,15.74-4.89,3.19-.66,10.27,4.54,7.77,6.56-3.15,13.11-6.31,19.67-9.46l-5.45-7.07c-3.56,3.75-7.11,7.5-10.67,11.24l6.36,6.36c3.8-4.83,7.59-9.66,11.39-14.49,3.54-4.5-2.79-10.92-6.36-6.36h0v.04Z"/>
  <path class="cls-2" d="m365.13,225.3c-3.52-3.27-7.05-6.55-10.57-9.82-5.63-5.23-14.21-6.1-20.35-1.21-5.5,4.38-8.65,13.69-3.99,20,11.85,16.05,28.74,27.93,48.74,31.1,7.98,1.26,17.07-2.04,19.07-10.83,1.69-7.43-2.26-17.71-10.83-19.07-8.11-1.28-12.05-2.67-17.79-6.06-1.32-.78-2.58-1.64-3.86-2.48-1.48-1.08-1.65-1.19-.52-.34-.79-.65-1.56-1.31-2.32-2-1.13-1.03-2.23-2.1-3.28-3.21-.39-.41-3.91-4.74-2.44-2.76-8.11,6.26-16.23,12.52-24.34,18.78,3.52,3.27,7.05,6.55,10.57,9.82,6.13,5.7,15.85,6.07,21.92,0,5.77-5.77,6.15-16.2,0-21.92h-.01Z"/>
  <path class="cls-2" d="m372.16,260.81c11.19,11.8,27.81,15.78,43.54,13.66s30.1-10.76,43.39-19.69c6.94-4.66,9.97-13.66,5.56-21.21-4.03-6.89-14.23-10.25-21.21-5.56-5.23,3.51-10.47,7.03-16,10.06s-8.02,4.19-14.35,5.58c-.6.13-3.85.57-.92.26-1.22.13-2.44.19-3.66.22s-2.44-.03-3.67-.08c-4.22-.18,2.41.8-1.65-.26-1.16-.3-2.32-.63-3.47-.96-1.59-.45,1.52,1-.91-.35-1.24-.69-2.49-1.36-3.63-2.22,2.11,1.6-.64-.88-1.12-1.39-5.76-6.08-16.11-5.81-21.92,0s-5.78,15.83,0,21.92h0l.02.02Z"/>
  <path class="cls-2" d="m451.14,254.61c8.11,0,15.87-7.13,15.5-15.5s-6.81-15.5-15.5-15.5c-8.11,0-15.87,7.13-15.5,15.5s6.81,15.5,15.5,15.5h0Z"/>
  <path class="cls-2" d="m435.45,249.89c.43,1.91.87,3.81,1.3,5.72l1.56,3.7c.97,1.81,2.3,3.26,3.99,4.35.97.96,2.11,1.62,3.42,1.99,1.85.97,3.84,1.42,5.97,1.33,2.75-.12,5.39-.83,7.82-2.12,1.81-.97,3.26-2.3,4.35-3.99,1.37-1.5,2.29-3.25,2.77-5.27.53-1.32,1.07-2.65,1.6-3.97.65-2.06.74-4.12.28-6.18-.09-2.06-.71-3.98-1.84-5.76-1.88-3.22-5.57-6.28-9.26-7.12-3.97-.9-8.42-.71-11.94,1.56l-3.14,2.42c-1.92,1.93-3.25,4.21-3.99,6.84-.53,1.32-1.07,2.65-1.6,3.97h29.89c-.43-1.91-.87-3.81-1.3-5.72-.84-3.69-3.91-7.38-7.12-9.26-1.78-1.13-3.7-1.75-5.76-1.84-2.06-.46-4.12-.37-6.18.28-3.75,1.21-7.37,3.54-9.26,7.12-2,3.78-2.52,7.73-1.56,11.94h0Z"/>
  <path class="cls-2" d="m436.31,242.71c-4.91,2.62-9.76,4.39-16.43,5.67-.84.17-1.69.32-2.54.44,1-.15.95-.16-.14-.04-1.43.13-2.86.22-4.29.26-1.72.05-3.44.03-5.15-.05.08,0-5.01-.42-2.65-.12-2.99-.38-5.98-1.12-8.87-1.96-1.32-.39-2.62-.85-3.93-1.27-2.92-.94.14.27-2.4-.96-2.98-1.44-5.88-3.03-8.64-4.84s-2.86-1.92-5.94-4.73c-6.17-5.65-15.82-6.1-21.92,0-5.73,5.73-6.2,16.25,0,21.92,27.11,24.81,66.1,29.79,98.55,12.46,7.38-3.94,9.67-14.18,5.56-21.21-4.37-7.47-13.8-9.52-21.21-5.56h0Z"/>
  <path class="cls-1" d="m444.17,227.6c2.35-2.36,5.61-3.44,8.92-3.22s6.29,2.12,8.25,4.82c2.19,3.03,3.39,6.63,4.47,10.16,1.31,4.27,2.91,8.91,2.2,13.44-.53,3.4-2.92,7.4-6.67,7.84-1.07.13-2,.83-2,2,0,.98.92,2.13,2,2,4.65-.55,8.04-3.8,9.75-8.05,2.02-5.06.82-10.71-.65-15.74-2.41-8.26-5.78-18.66-15.6-20.27-4.88-.8-9.98.65-13.49,4.19-1.82,1.83,1.01,4.66,2.83,2.83h-.01Z"/>
  <path class="cls-2" d="m176.26,60.68c9.97,3.93,20.91,4.11,31.27,1.74,7.91-1.81,13.32-11.34,10.83-19.07-2.68-8.28-10.59-12.76-19.07-10.83-.56.13-4.68.61-2.06.44-1.83.12-3.65.12-5.48-.02-1.12-.1-1.04-.08.24.06-.77-.14-1.54-.3-2.29-.5-1.78-.45-3.49-1.05-5.2-1.72-7.56-2.98-17.34,3.26-19.07,10.83-2.03,8.92,2.73,15.88,10.83,19.07h0Z"/>
  <path class="cls-2" d="m179.04,59.42c8.11,0,15.87-7.13,15.5-15.5s-6.81-15.5-15.5-15.5c-8.11,0-15.87,7.13-15.5,15.5s6.81,15.5,15.5,15.5h0Z"/>
  <path class="cls-2" d="m207.27,59.2c5.93-2.44,11.86-4.88,17.79-7.32l-8.24-29.89c-8.13,3.4-16.26,6.8-24.39,10.2,3.98,9.44,7.96,18.89,11.94,28.33,16.95-8.5,32.13-15.84,51.11-19.33,3.57-.66,6.13-.96,10.79-1.07,3.43-.08,6.82.12,10.23.38,1.86.21,1.94.21.25,0,.97.15,1.93.32,2.89.51,1.91.37,3.82.82,5.7,1.33s3.69,1.18,5.55,1.77c1.7.67,1.81.69.33.05.88.39,1.75.79,2.61,1.21,1.71.84,3.39,1.76,5.02,2.76.48.29,5.12,3.54,2.69,1.66,2.97,2.3,5.77,5.04,8.06,8.01-1.8-2.33,1.58,2.66,1.89,3.19.83,1.44,1.63,2.92,2.27,4.45-.66-1.58,1.1,3.5,1.27,4.13.6,2.14,1.11,4.33,1.45,6.53-.32-2.09.25,3.6.27,4.23.08,2.24.05,4.48-.09,6.72-.22,3.58-.73,6.43-1.98,11.18-2.43,9.21-5.2,15.12-9.93,23.57-3.97,7.07-1.93,17.25,5.56,21.21s16.97,1.99,21.21-5.56c17.66-31.51,24.55-71.54,0-101.56-20.64-25.24-56.66-30.37-86.88-24.07-19.65,4.09-38.08,13-55.91,21.94-6.89,3.46-9.16,12.68-6.34,19.36s11.15,11.96,18.29,8.97c8.13-3.4,16.26-6.8,24.39-10.2,7.45-3.12,13.63-10.4,10.83-19.07-2.33-7.19-11.04-14.13-19.07-10.83l-17.79,7.32c-7.47,3.07-13.62,10.43-10.83,19.07,2.33,7.19,11.04,14.13,19.07,10.83h0Z"/>
  <path class="cls-2" d="m293.52,74.13c-1.32,11.95-2.64,23.89-3.96,35.84h31c-1.26-10.32-2.52-20.64-3.79-30.96-.95-7.75-5.18-14.11-13.44-15.22s-14.46,3.72-17.01,11.1c-1.63,4.73-3.27,9.46-4.9,14.2-2.52,7.3,2.29,15.47,8.97,18.29,7.29,3.08,15.08.19,19.36-6.34,7.17-10.95,13.32-24.45,8.59-37.68-5-13.98-17.29-19.73-31.17-21.3-24.97-2.83-50.42-3.34-75.5-4.94-8.11-.52-15.86,7.5-15.5,15.5.4,8.84,6.81,14.94,15.5,15.5,20.59,1.32,41.18,2.63,61.77,3.95,4.33.28,8.71.4,13.02.91-3.48-.41,2.12.61,2.78.77,1.71.59,1.73.59.05,0,1.49.94,1.52.92.08-.05-.89-1.37-.87-1.27.06.29-.67-1.48-.75-1.34-.23.4-.29-1.7-.39-1.61-.31.27.28-1.67.23-1.6-.16.23-.78,2.83-3.43,6.96-5.76,10.51l28.33,11.94c1.63-4.73,3.27-9.46,4.9-14.2-10.15-1.37-20.3-2.75-30.45-4.12,1.26,10.32,2.52,20.64,3.79,30.96.98,8.02,6.43,15.91,15.5,15.5s14.54-6.84,15.5-15.5c1.32-11.95,2.64-23.89,3.96-35.84.89-8.09-7.77-15.85-15.5-15.5-9.16.41-14.54,6.84-15.5,15.5h.02Z"/>
  <path class="cls-2" d="m231.53,61.36l24.84-.48,13.38-.26c1.69-.03,3.39-.04,5.08-.07,1.83.1,1.71.09-.33-.05-7.42-5.61-9.44-10.61-6.04-15,.62-.79.35-.58-.81.63,1.16-.9.98-.84-.53.17-2.74,1.4,1.46-.02-1.83.78-.2.05-4.86,1-1.86.61-1.76.23-3.58.21-5.35.13-5.12-.25-13.85-3.64-18.94-5.83-7.43-3.19-16.97-2.46-21.21,5.56-3.52,6.67-2.39,17.79,5.56,21.21,12.14,5.22,24.86,10.83,38.41,10.05,13.55-.78,28.78-6.98,34.45-20.42,3.62-8.59,1.2-18.32-6.21-24-5.69-4.37-12.53-4.91-19.45-4.77-13.06.25-26.11.5-39.17.75-8.1.16-15.88,7.02-15.5,15.5s6.81,15.67,15.5,15.5h0Z"/>
  <path class="cls-2" d="m198.26,58.68c8.11,0,15.87-7.13,15.5-15.5s-6.81-15.5-15.5-15.5c-8.11,0-15.87,7.13-15.5,15.5s6.81,15.5,15.5,15.5h0Z"/>
  <path class="cls-2" d="m264.08,28.78l.38-2.25c-4.98,3.79-9.96,7.59-14.95,11.38,3.13.14,6.26.29,9.39.43,8.11.37,15.86-7.4,15.5-15.5-.39-8.72-6.81-15.1-15.5-15.5-3.13-.14-6.26-.29-9.39-.43-3.39-.16-6.79,1.32-9.39,3.33-2.45,1.89-5.01,4.88-5.55,8.05l-.38,2.25c-.72,4.21-.67,8.13,1.56,11.94,1.88,3.22,5.57,6.28,9.26,7.12,3.97.9,8.42.71,11.94-1.56,3.2-2.06,6.46-5.35,7.12-9.26h.01Z"/>
  <path class="cls-2" d="m237.67,11.85c-5.67,2.72-11.33,5.43-17,8.15-7.33,3.52-9.84,14.57-5.56,21.21,4.85,7.53,13.37,9.32,21.21,5.56,5.67-2.72,11.33-5.43,17-8.15,7.33-3.52,9.84-14.57,5.56-21.21-4.85-7.53-13.37-9.32-21.21-5.56h0Z"/>
  <path class="cls-2" d="m236.2,79.16c-.09-.02,3.89,1.15,2.25.56s1.69.89,2.03,1.09c.32.19,3.32,2.33,1.97,1.25s1.72,1.74,1.65,1.67c.78.72,1.33,1.49.35.18.72.95,1.35,1.99,1.93,3.04.54.97,1.23,2.94.53.87.47,1.37.82,2.75,1.13,4.17l28.33-11.94c-1.78-3.61-3.57-7.22-5.35-10.83-5.91-11.95-25.35-8.84-28.33,3.7-2.98,12.54,3.73,26.36,17.1,29.5,13.27,3.12,22.03-6.08,30.99-14.14l-24.34-18.78c-6.8,10.31-12.13,21.85-9.7,34.48,2.17,11.26,10.51,19.28,19.61,25.47,6.72,4.57,17.48,1.49,21.21-5.56,4.15-7.85,1.61-16.33-5.56-21.21-3.72-2.53,1.66,1.86-1.68-1.2-.93-.85-1.84-1.69-2.68-2.63-.72-.81-.67-.74.15.22l-.76-1.26c.6,3.44-.63-2.11.01.34-.3-1.14.38-2.99.72-3.78,1.38-3.26,3.52-6.29,5.45-9.23,4.21-6.38,1.87-15.62-3.99-20-6.36-4.76-14.47-4.08-20.35,1.21-1.33,1.2-2.67,2.4-4,3.6-.64.57-3.76,2.8-4,3.6.83-2.68,7.01-1.13,8.27-.36,2.57,1.57,4.15,5.03,3.45,7.96l-28.33,3.7c1.78,3.61,3.57,7.22,5.35,10.83,3.41,6.91,12.72,9.14,19.36,6.34,7.31-3.09,10.63-10.64,8.97-18.29-3.61-16.66-17.09-30.18-33.48-34.47-7.83-2.05-17.19,2.59-19.07,10.83-1.88,8.24,2.43,16.87,10.83,19.07h-.02Z"/>
  <path class="cls-2" d="m253.66,108.36c2.03,5.54,4.07,11.09,6.1,16.63l29.89-8.24c-3.59-8.81-7.17-17.63-10.76-26.44l-28.33,11.94c4.81,11.2,6.87,23.97,6.66,36.69,9.63-2.61,19.26-5.22,28.88-7.82-.87-1.64.76,1.79.69,1.8-.1,0-.65-1.69-.71-1.84-.59-1.63-1.17-3.27-1.75-4.91-1.21-3.41-2.41-6.93-4.1-10.13-3.92-7.39-14.2-9.66-21.21-5.56-7.98,4.67-8.84,13.47-5.56,21.21,16.96,40.08,47.22,71.53,77.86,101.53,5.98,5.86,15.96,5.96,21.92,0s6-16.05,0-21.92c-14.22-13.92-28.43-27.91-41.15-43.24-6.01-7.24-10.92-13.85-16.68-22.97s-10.92-18.96-15.18-29.05c-8.92,5.22-17.85,10.43-26.77,15.65.87,1.64-.76-1.79-.69-1.8.1,0,.65,1.69.71,1.84.59,1.63,1.17,3.27,1.75,4.91,1.21,3.41,2.41,6.93,4.1,10.13,7.41,13.96,28.64,7.02,28.88-7.82.3-18.28-3.71-35.62-10.89-52.34-3.03-7.06-13.01-9.02-19.36-6.34s-11.89,11.11-8.97,18.29c3.59,8.81,7.17,17.63,10.76,26.44,3.04,7.48,10.45,13.61,19.07,10.83,7.45-2.41,13.81-10.92,10.83-19.07-2.03-5.54-4.07-11.09-6.1-16.63-2.78-7.59-10.64-13.55-19.07-10.83-7.45,2.41-13.81,10.92-10.83,19.07h0Z"/>
  <path class="cls-2" d="m283.79,147.23c8.61,13.1,17.22,26.21,25.83,39.31l13.38-23.32c-1.16-.08-2.32-.16-3.47-.24-8.11-.55-15.86,7.52-15.5,15.5.4,8.87,6.82,14.91,15.5,15.5,1.16.08,2.32.16,3.47.24,11.52.78,19.62-13.83,13.38-23.32-8.61-13.1-17.22-26.21-25.83-39.31-4.59-6.99-13.71-9.94-21.21-5.56-6.95,4.06-10.18,14.18-5.56,21.21h0Z"/>
  <path class="cls-2" d="m259.54,150.79c4.71,12.93,14.34,22.73,27.7,26.64,7.78,2.28,17.23-2.75,19.07-10.83s-2.5-16.63-10.83-19.07c-1.71-.5-2.53-1.58.09.26-.5-.35-1.17-.56-1.72-.86-.68-.38-1.72-1.31-2.44-1.54,1.13.36,2.4,2.03.54.28-.59-.55-1.12-1.14-1.68-1.72-1.88-1.98,1.25,2.07.37.47-.38-.69-.81-1.4-1.24-2.06-1.61-2.45,1.11,3.15.03.18-2.77-7.6-10.66-13.55-19.07-10.83-7.47,2.42-13.8,10.91-10.83,19.07h0Z"/>
  <path class="cls-2" d="m302.93,140.03c.35,24.2,7.54,48.18,21.15,68.25,4.69,6.92,13.64,9.99,21.21,5.56s9.13-13.6,5.56-21.21c-3.15-6.73-6.31-13.46-9.46-20.19l-26.77,15.65c15.13,20.38,30.26,40.77,45.39,61.15,4.98,6.71,13.42,10.12,21.21,5.56,6.62-3.87,10.58-14.45,5.56-21.21-15.13-20.38-30.26-40.77-45.39-61.15-4.98-6.71-13.42-10.12-21.21-5.56-7.77,4.54-9.13,13.6-5.56,21.21,3.15,6.73,6.31,13.46,9.46,20.19l26.77-15.65c-2.77-4.08-5.3-8.29-7.51-12.7-2.42-4.82-3.23-6.9-4.96-12.38-1.48-4.7-2.6-9.49-3.47-14.34-.07-.41-.42-2.65-.2-1.04-.15-1.15-.26-2.3-.36-3.46-.26-2.89-.37-5.78-.41-8.68-.12-8.1-7.05-15.88-15.5-15.5s-15.63,6.81-15.5,15.5h-.01Z"/>
  <path class="cls-1" d="m438.46,225.57c-9.36,7.6-20.09,16.09-32.94,14.82-5.78-.57-10.59-3.78-14.57-7.83-4.43-4.49-8.17-9.68-12.09-14.61-8.38-10.55-16.99-20.95-25.06-31.73-7.26-9.69-14.04-20.19-17.12-32.03-3.13-12.05-2.4-25.54,4.97-35.95,1.49-2.11-1.98-4.11-3.45-2.02-7.02,9.92-8.43,22.6-6.39,34.34,2.18,12.55,8.61,23.89,15.94,34.13,8.21,11.48,17.35,22.33,26.13,33.37,4.23,5.32,8.28,10.86,12.87,15.87,4.01,4.39,8.83,8.22,14.68,9.75,15.24,3.98,28.79-6.29,39.87-15.29.84-.68.71-2.12,0-2.83-.83-.83-1.99-.68-2.83,0h0Z"/>
  <path class="cls-1" d="m174.42,32.14c17.45,2.4,33.04-6.89,48.33-13.83,16.18-7.34,33.83-10.92,51.6-9.17,15.8,1.56,31.13,7.62,43.48,17.65,11.92,9.68,20.46,22.51,24.82,37.23,4.37,14.71,5.2,31.63-1.15,45.93-.78,1.75-1.66,3.45-2.63,5.09-1.31,2.22,2.14,4.24,3.45,2.02,8.33-14.1,9.2-31.41,5.93-47.15-3.23-15.55-10.72-29.92-22.1-41.04-11.46-11.2-26.17-18.94-41.84-22.21-17.88-3.72-36.75-2.01-53.88,4.19-8.38,3.04-16.27,7.23-24.39,10.88s-15.91,6.57-24.45,6.84c-2.04.07-4.09,0-6.11-.28-1.07-.15-2.15.26-2.46,1.4-.26.93.32,2.31,1.4,2.46h0Z"/>
  <path class="cls-1" d="m172.74,28.06c-5.59.76-9.59,5.32-11.26,10.48-1.81,5.58-.92,11.73,2.52,16.48,9.12,12.63,25.96,12.55,39.9,13.73,7.32.62,14.38,2.13,20.91,5.6,5.79,3.08,10.9,7.3,15.08,12.35s7.27,10.89,9.01,17.14c2.14,7.7,2.32,15.73,2.84,23.65s1.41,15.85,4.57,23.18,8.01,13.23,13.08,19.02c11.69,13.34,23.61,26.49,35.41,39.73s23,26.14,34.8,38.93c10.23,11.09,21.51,21.78,35.38,28.13,24.57,11.24,54.69,9.42,77.68-4.81,2.83-1.75,5.53-3.71,8.12-5.8,2-1.62-.84-4.44-2.83-2.83-20.32,16.47-49.2,20.97-73.86,12.77-13.74-4.57-25.18-13.44-35.29-23.6-5.38-5.4-10.43-11.12-15.5-16.81-5.81-6.52-11.63-13.04-17.44-19.56-11.56-12.97-23.13-25.94-34.69-38.91-5.32-5.97-10.97-11.79-15.65-18.3s-7.38-12.9-8.67-20.46-1.23-15.57-2.01-23.33c-.71-7.13-2.19-14.05-5.34-20.52-5.61-11.51-15.6-20.75-27.41-25.62-6.87-2.83-14.18-3.68-21.54-4.19s-14.87-.85-21.87-3.51c-5.55-2.11-11.45-6.11-13.42-12.01-1.51-4.53-.68-10.2,2.53-13.85,1.61-1.82,3.59-2.89,6-3.21,1.08-.15,1.65-1.52,1.4-2.46-.31-1.16-1.4-1.54-2.46-1.4h0Z"/>
  <path class="cls-1" d="m174,32.03c8.22,2.27,16.66,3.68,25.17,4.24,2.57.17,2.56-3.83,0-4-8.16-.54-16.22-1.92-24.11-4.09-2.49-.69-3.55,3.17-1.06,3.86h0Z"/>
  <path class="cls-3" d="m182.78,142.55c-.07.27-25.98,39.54-25.98,39.54l-21.17,43.16-9.43,20.61,5.13,3.6h5.89l66.17-97.29-20.62-9.62h0Z"/>
  <circle class="cls-1" cx="213.31" cy="101.67" r="52.71"/>
  <path class="cls-1" d="m179.75,139.94c-8.62,12.78-16.48,26.05-23.84,39.59s-14.42,27.82-20.94,42.06c-3.59,7.85-7.05,15.77-10.39,23.73-.42,1,.45,2.2,1.4,2.46,1.15.32,2.04-.4,2.46-1.4,5.9-14.07,12.21-27.96,18.94-41.65,6.88-13.98,14.21-27.74,22.16-41.15,4.35-7.34,8.89-14.56,13.66-21.63,1.44-2.14-2.02-4.14-3.45-2.02h0Z"/>
  <path class="cls-1" d="m201.56,150.64c-17.34,25.67-34.68,51.34-52.02,77.02-4.85,7.18-9.69,14.35-14.54,21.53-1.44,2.14,2.02,4.14,3.45,2.02,17.34-25.67,34.68-51.34,52.02-77.02,4.85-7.18,9.69-14.35,14.54-21.53,1.44-2.14-2.02-4.14-3.45-2.02h0Z"/>
  <path class="cls-1" d="m124.79,247.84c2.83,3.56,7.87,5.06,12.21,3.88,1.01-.27,1.73-1.43,1.4-2.46s-1.38-1.69-2.46-1.4c-.22.06-.44.11-.66.16-.05,0-.36.04-.37.07.02-.04.42-.04.08,0-.45.04-.9.06-1.35.05-.23,0-.45-.02-.67-.05-.06,0-.39-.07-.11,0,.31.06-.12-.02-.18-.04-.44-.08-.88-.2-1.31-.34-.19-.06-.38-.13-.57-.2-.46-.17.24.12,0,0-.09-.05-.18-.08-.27-.13-.41-.2-.8-.43-1.17-.68-.1-.07-.21-.14-.31-.22-.2-.14-.08-.02.05.04-.18-.09-.36-.3-.51-.44-.35-.33-.67-.68-.97-1.05-.65-.82-2.15-.73-2.83,0-.8.87-.7,1.95,0,2.83h0Z"/>
  <path class="cls-5" d="m491.05,196c10.53-4.19,20-9.98,28.46-17.54,3.96-3.54-1.08-9.33-5.45-7.07-9.22,4.76-18.43,9.52-27.65,14.28,1.51,2.59,3.03,5.18,4.54,7.77,15.07-9.61,30.15-19.21,45.22-28.82l-6.16-1.61c5.74,11.21,10.96,22.67,15.52,34.42,2.24,5.76,4.33,11.58,6.27,17.45,1.68,5.07,5.25,12.82.91,17.41-3.49,3.69-9.86,5.02-14.47,6.64-6,2.1-12.03,4.12-18.08,6.05-12.42,3.96-24.94,7.56-37.56,10.83-3.81.99-4.33,6.25-1.07,8.22,4.21,2.55,9.29,2.57,13.27-.46,4.55-3.46.07-11.28-4.54-7.77-1.47,1.12-2.53,1.47-4.19.46l-1.07,8.22c14.77-3.83,29.42-8.11,43.91-12.89,6.68-2.2,13.41-4.39,19.97-6.95,4.84-1.89,9.82-4.34,12.56-9,2.99-5.08,2.58-11,1.13-16.51-1.83-7-4.48-13.87-7.03-20.63-5.15-13.67-11.09-27.03-17.75-40.03-1.08-2.11-4.19-2.87-6.16-1.61-15.07,9.61-30.15,19.21-45.22,28.82-4.9,3.12-.61,10.43,4.54,7.77,9.22-4.76,18.43-9.52,27.65-14.28l-5.45-7.07c-7.23,6.47-15.47,11.64-24.49,15.23-5.32,2.12-3,10.82,2.39,8.68h0Z"/>
  <path class="cls-1" d="m532.93,154.16c-5.15,2.55-10.07,5.61-14.98,8.59-7.5,4.56-14.91,9.25-22.29,14-14.72,9.47-29.42,19.07-43.56,29.4-2.49,1.82-4.97,3.66-7.34,5.64-4.56,3.79-10.07,9.95-6.2,16.16,1.36,2.18,4.82.17,3.45-2.02-2.81-4.5,2.78-9.02,5.87-11.56.4-.33.8-.65,1.2-.97.24-.19.48-.38.73-.57.06-.04.48-.37.11-.08.13-.1.26-.2.4-.3,1.18-.9,2.37-1.79,3.56-2.66,6.22-4.56,12.59-8.92,18.98-13.24,14.87-10.04,29.94-19.83,45.24-29.2,5.52-3.38,11.05-6.86,16.85-9.73,2.31-1.14.28-4.59-2.02-3.45h0Z"/>
  <path class="cls-1" d="m458.4,265.29c2.09,2.98,4.89,5.29,8.26,6.69,1.77.73,3.92,1.46,5.86,1.3,1.8-.15,3.6-.75,5.32-1.26,6.63-1.94,13.16-4.24,19.68-6.52,8.67-3.04,17.31-6.18,25.92-9.4,7.93-2.96,15.83-5.98,23.68-9.15,2.86-1.16,5.71-2.33,8.54-3.58,1.51-.67,3.13-1.31,4.51-2.23.28-.18.55-.38.79-.61,1.86-1.79-.97-4.61-2.83-2.83-.26.25.52-.31-.05.02-.25.14-.49.29-.74.43-.73.39-1.48.75-2.23,1.09-1.07.5-2.16.97-3.24,1.44-.29.12-.57.24-.86.37-.15.06-.44.19-.12.05-.2.09-.41.17-.61.26-.7.29-1.41.59-2.12.88-7.33,3.01-14.74,5.85-22.16,8.65-8.48,3.2-16.99,6.32-25.52,9.35-6.93,2.46-13.88,4.9-20.91,7.09-2.06.64-4.12,1.29-6.23,1.77-.31.07-.63.13-.94.2-.64.13.44.06-.18.02-2.53-.19-4.99-1.21-7.05-2.67-1.29-.91-2.42-2.07-3.33-3.36-1.47-2.09-4.94-.09-3.45,2.02h0v-.02Z"/>
</svg>