<?xml version="1.0" encoding="UTF-8"?>
<svg id="Layer_2" data-name="Layer 2" xmlns="http://www.w3.org/2000/svg" viewBox="0 0 531.1 408.8">
  <defs>
    <style>
      .cls-1 {
        opacity: .21;
      }

      .cls-2, .cls-3, .cls-4, .cls-5, .cls-6, .cls-7, .cls-8, .cls-9, .cls-10, .cls-11, .cls-12, .cls-13, .cls-14 {
        stroke-width: 0px;
      }

      .cls-3 {
        fill: #2c4368;
      }

      .cls-4 {
        fill: #561919;
      }

      .cls-5 {
        fill: #556874;
      }

      .cls-6 {
        fill: #8897a3;
      }

      .cls-7 {
        fill: #6e8379;
      }

      .cls-8 {
        fill: #3b547d;
      }

      .cls-9 {
        fill: #440e0e;
      }

      .cls-10 {
        fill: #172e26;
      }

      .cls-11 {
        fill: #213931;
      }

      .cls-12 {
        fill: #1677d8;
      }

      .cls-13 {
        fill: #93646d;
      }

      .cls-14 {
        fill: #fff;
      }
    </style>
  </defs>
  <path class="cls-2" d="m124.8,247.8c2.8,3.6,7.9,5.1,12.2,3.9,1-.3,1.7-1.4,1.4-2.5s-1.4-1.7-2.5-1.4c-.2.1-.4.1-.7.2-.1,0-.4,0-.4.1,0,0,.4,0,.1,0-.4,0-.9.1-1.4.1-.2,0-.4,0-.7-.1-.1,0-.4-.1-.1,0,.3.1-.1,0-.2,0-.4-.1-.9-.2-1.3-.3-.2-.1-.4-.1-.6-.2-.5-.2.2.1,0,0-.1-.1-.2-.1-.3-.1-.4-.2-.8-.4-1.2-.7-.1-.1-.2-.1-.3-.2-.2-.1-.1,0,.1,0-.2-.1-.4-.3-.5-.4-.4-.3-.7-.7-1-1.1-.7-.8-2.2-.7-2.8,0-.6.8-.5,1.9.2,2.7h0Z"/>
  <g>
    <path class="cls-14" d="m127,242.4c-3.1-.5-6.3-1.1-9.4-.4-3.1.7-6,2.9-6.6,6-.8,4.3,3,7.9,6.6,10.3,3.7,2.4,7.7,4.5,11.9,6.1,2.9,1.1,5.9,2.1,9,1.8s6.2-1.9,7.5-4.7c1-2.3.7-5-.3-7.3s-2.6-4.2-4.2-6.2"/>
    <path class="cls-3" d="m127.5,240.5c-5.7-1-12.6-1.7-16.7,3.3-3.9,4.8-1.3,10.6,2.9,14.1,4.6,3.9,10.5,6.7,16.1,8.8,5.3,2,12.2,2.8,16.4-1.9,2.2-2.5,2.8-5.8,2-9-.8-3.5-3.1-6.3-5.3-9-1.6-2-4.4.9-2.8,2.8,2.5,3,6.4,7.9,3.6,11.9-2.6,3.7-7.9,3-11.6,1.8-4.8-1.6-9.5-4-13.8-6.8-2.7-1.8-6.9-5.3-5.3-9,2.2-4.9,9.1-3.8,13.2-3.1,1.1.2,2.2-.3,2.5-1.4.5-1-.1-2.3-1.2-2.5h0Z"/>
  </g>
  <polygon class="cls-6" points="97.7 174.8 130.1 194 143 203.4 166 218 218.2 252.1 186.9 293.4 165.3 338.8 109 316.9 9.3 275.8 30 251.5 86.6 187.7 97.7 174.8"/>
  <g>
    <path class="cls-5" d="m122,212.5c-1.8-1.2-4-1.3-6.1-.7-2.3.7-4.3,2.3-5.4,4.4-2.1,4.1-1.1,9.1,1.5,12.9,2.5,3.8,6.4,6.4,10.3,8.8,11.7,7,20.6,10.9,34.1,13,3.4.5,10.7.4,14-.6s5.4-3.2,6.1-6.6c.8-3.4-2.6-7.3-6.1-7.6l-48.4-23.6Z"/>
    <path class="cls-8" d="m122.5,211.6c-3.5-2.2-8.1-1.2-11,1.5-3,2.7-3.7,7-3,10.8,1.7,8.7,10.3,13.5,17.4,17.5,7.2,4.1,14.8,7.4,22.9,9.3,3.7.9,7.6,1.6,11.4,1.7,3.4.1,7,0,10.3-.9,3.4-.9,5.8-3.5,6.8-6.8,1-3.5-1.1-7.1-4.3-8.7-.8-.4-1.6-.6-2.5-.8.1,0,.4.2.1.1-.2-.1-.5-.2-.7-.3l-3-1.5c-8.3-4.1-16.6-8.1-24.9-12.2-6.5-3.2-12.9-6.4-19.4-9.5.2-.1,0-.2-.1-.2-1.3-.6-2.4,1.3-1.1,1.9,4.8,2.3,9.6,4.7,14.4,7,8.3,4.1,16.6,8.1,24.9,12.2,2.6,1.3,5.2,2.5,7.8,3.8.4.2.9.5,1.3.6.5.2.9.2,1.4.3.9.2,1.6.7,2.3,1.3,1.3,1.2,2.2,2.9,1.9,4.6-.6,3.3-3.1,5.4-6.4,6-3.2.6-6.6.7-9.9.5-3.7-.2-7.4-1-11-1.9s-7.2-2.1-10.7-3.6c-3.6-1.5-7.1-3.3-10.5-5.2-3.6-2-7.2-4-10.3-6.7-3-2.6-5.4-5.9-6-9.9s1.1-8.1,5-9.6c1.9-.7,4-.7,5.8.4,1.2,1,2.4-1,1.1-1.7Z"/>
  </g>
  <g>
    <path class="cls-4" d="m118.2,216.4c-3.2,5.2-1.6,6.7.2,9.7s4.8,5.1,7.8,6.9c9.7,5.8,20.3,10.1,31.3,12.6,3.9.9,6.1,1.2,9.7-.3,3.7-1.6,4.3-4.8,5.3-8.9"/>
    <path class="cls-9" d="m117.2,215.9c-1.1,1.9-2.2,4.1-1.9,6.4.3,1.6,1.2,3,2.1,4.4,2.9,4.8,8.4,7.6,13.3,10.1,5.4,2.9,11.1,5.2,16.9,7.1,2.9.9,5.8,1.8,8.7,2.4,2.6.6,5.2,1.2,7.8.9,2.6-.4,5.3-1.5,6.9-3.6,1.5-2,2.1-4.6,2.6-7.1.3-1.4-1.8-2-2.1-.6-.5,2-.8,4.1-1.9,5.8-1.1,1.9-3.2,2.8-5.3,3.2-2.3.5-4.6-.1-6.9-.6-2.6-.6-5.3-1.3-7.8-2.1-5.2-1.6-10.2-3.6-15-6-2.4-1.2-4.8-2.5-7.2-3.9-2.1-1.3-4.3-2.6-6-4.4-1.4-1.4-2.7-3.3-3.4-5.1-.8-2.1.3-4.1,1.3-5.9.6-1.2-1.3-2.3-2.1-1h0Z"/>
  </g>
  <g>
    <path class="cls-13" d="m118.4,215.1c3.5-3.4,9.1-3.6,14-3,12.4,1.4,24.5,6,34.8,13.1,1.9,1.3,3.7,2.7,4.9,4.6,1.2,1.9,1.6,4.5.5,6.5-1.9,3.4-6.7,3.4-10.6,2.7-16.2-3-31.4-10.9-43.4-22.2"/>
    <path class="cls-9" d="m119.2,215.9c2.7-2.6,6.6-3,10.2-2.9,4,.1,8.1.9,12,1.9,8.2,2,16,5.4,23,9.9,3.2,2.1,7.7,4.8,7.6,9.1-.1,4-4.5,4.6-7.6,4.4-3.8-.3-7.6-1.4-11.3-2.5-3.9-1.2-7.7-2.6-11.3-4.4-8.2-3.9-15.8-9-22.5-15.3-1-1-2.6.6-1.6,1.6,6.5,6.1,13.9,11.3,22,15.2,4.1,2,8.3,3.6,12.6,5,4,1.2,8.2,2.5,12.4,2.7,3.4.2,7.3-.6,8.9-4,1.9-4.1-.8-8.3-4-10.8-7.1-5.7-15.9-9.7-24.6-12.2-4.9-1.4-9.9-2.5-15-2.7-4.5-.3-9.1.4-12.5,3.5-.9.9.7,2.4,1.7,1.5h0Z"/>
  </g>
  <g class="cls-1">
    <path class="cls-14" d="m167.6,232.6c-.4.4-1.3.7-2,.7-1,.1-2.1,0-2.9-.2-2.2-.4-4.2-1.1-6.1-2.3-.8-.5-2-.2-2.5.7s-.2,2,.7,2.5c2.4,1.5,5,2.5,7.8,2.8,2.7.4,5.6.3,7.7-1.6.7-.7.7-1.9,0-2.6-.8-.8-2-.7-2.7,0h0Z"/>
  </g>
  <g>
    <path class="cls-5" d="m126.2,241.7c-1.9,0-6-.1-6.9,1.5-.9,1.7-.8,3.8.2,5.4.8,1.2,2,2,3.2,2.7,3.8,2.2,7.9,3.7,12.2,4.5,1.5.3,3.1.4,4.6.2,1.5-.3,3-1.1,3.9-2.4.8-1.3-1.3-4.7-2.3-5.9"/>
    <path class="cls-8" d="m126.2,240.2c-2.5,0-6.1-.3-7.9,1.8-1.2,1.4-1.4,3.7-.9,5.5.5,1.9,1.8,3.3,3.4,4.4,3.4,2.3,7.5,3.9,11.4,4.9,3.8.9,8.8,1.7,11.8-1.6,2.4-2.6,0-6.3-1.9-8.6-1.2-1.5-3.3.6-2.1,2.1.7.9,1.4,2,1.8,3,.1.3.3.8.3,1-.2.7-1.4,1.2-1.9,1.4-1.9.7-4.2.3-6.1-.1-2-.4-3.9-1-5.8-1.8-1.8-.7-3.6-1.6-5.2-2.6-1.5-1-2.9-2.2-2.8-4.2.1-1.6.7-2,2.2-2.2,1.3-.2,2.6-.2,3.9-.1,1.7.1,1.7-2.9-.2-2.9h0Z"/>
  </g>
  <polygon class="cls-8" points="9.3 275.8 6.5 309.7 12.9 316.4 18.8 359.8 21.8 408.8 147.4 408.8 166 336.3 9.3 275.8"/>
  <g>
    <path class="cls-5" d="m79.7,246.8c-2.4-1.6-5.5-1.8-8.2-.9-3,.9-5.8,3.1-7.3,5.9-2.8,5.5-1.4,12.3,2,17.4s8.6,8.7,13.9,11.8c15.7,9.4,27.9,14.8,46,17.6,4.6.7,14.4.5,18.9-.8s7.2-4.3,8.3-8.9c1-4.6-3.6-9.9-8.3-10.2l-65.3-31.9Z"/>
    <path class="cls-8" d="m80.5,245.5c-4.9-3.1-11.4-1.5-15.3,2.4-4,4-4.7,10.1-3.3,15.4,3.1,11.6,15,17.8,24.7,23.2,9.7,5.3,19.9,9.6,30.7,12,5,1.1,10.1,2,15.2,2,4.5,0,9.6,0,13.9-1.5,4.5-1.6,7.7-5.5,8.4-10.3.7-4.9-3.3-9.7-7.8-11.1-.2-.1-1.7-.4-1.7-.3,0,.2.6.2.4.2-.1,0-.2-.1-.2-.1-.4-.2-.7-.4-1.1-.5-1.4-.7-2.9-1.4-4.3-2.1-11.1-5.5-22.3-10.9-33.4-16.4-8.6-4.2-17.1-8.5-25.7-12.6-.3-.1-.4-.2-.5-.3-1.7-.8-3.2,1.7-1.5,2.6,6.6,3.2,13.1,6.4,19.7,9.7,11.2,5.5,22.5,11,33.7,16.5,3.5,1.7,6.9,3.4,10.4,5.1.5.3,1.1.6,1.7.8,1,.3,2,.4,3,.9s1.9,1.3,2.7,2.2c1.5,1.7,2.1,3.8,1.5,6.1-1.2,4.4-4.5,6.8-8.9,7.6-4.4.8-9,.9-13.5.6-5-.3-10-1.4-14.8-2.7-5-1.3-9.9-2.9-14.6-5-4.8-2.1-9.5-4.5-14-7.1-4.8-2.7-9.8-5.5-14-9.3-4-3.6-7.2-8.3-7.7-13.8-.4-5.2,1.9-10.3,7-12.2,2.6-.9,5.3-.9,7.6.6,1.8,1.1,3.3-1.5,1.7-2.6Z"/>
  </g>
  <g>
    <path class="cls-11" d="m74.6,252.1c-4.3,7-2.1,9,.3,13.1s6.4,6.8,10.5,9.2c13.1,7.8,27.4,13.6,42.3,16.9,5.2,1.2,8.2,1.7,13.2-.4,4.9-2.1,5.9-6.5,7.2-12"/>
    <path class="cls-10" d="m73.3,251.3c-1.5,2.6-3,5.5-2.5,8.6.3,2.2,1.7,4.1,2.8,6,3.9,6.5,11.4,10.2,17.9,13.7,7.2,3.8,14.7,7,22.4,9.5,3.9,1.3,7.8,2.4,11.8,3.3,3.5.8,7.2,1.8,10.8,1.3,3.5-.5,7.1-2,9.3-4.8,2.1-2.7,2.8-6.3,3.6-9.6.4-1.9-2.4-2.7-2.9-.8-.6,2.7-1.1,5.5-2.6,7.9-1.5,2.5-4.2,3.6-6.9,4.2-3.1.7-6.3-.1-9.4-.8-3.7-.8-7.3-1.8-10.9-3-7.1-2.2-14-5-20.6-8.3-3.2-1.6-6.4-3.3-9.5-5.2-2.9-1.7-5.8-3.6-8.1-6.1-1.1-1.2-1.9-2.5-2.7-3.8-.6-.9-1.2-1.8-1.6-2.8-1.1-2.7.5-5.5,1.8-7.8.9-1.6-1.7-3.2-2.7-1.5h0Z"/>
  </g>
  <g>
    <path class="cls-7" d="m74.9,250.3c4.8-4.6,12.3-4.8,18.9-4,16.8,1.9,33.1,8.1,46.9,17.7,2.5,1.7,5,3.7,6.6,6.3,1.6,2.6,2.2,6,.7,8.7-2.5,4.6-9.1,4.6-14.3,3.6-21.8-4.1-42.4-14.6-58.5-29.9l-.3-2.4Z"/>
    <path class="cls-10" d="m76,251.3c3.7-3.5,9.1-4.1,14-3.9,5.5.2,11,1.3,16.4,2.6,11.1,2.8,21.7,7.4,31.2,13.7,4.2,2.8,10.1,6.5,9.7,12.3-.3,5-6,5.9-10,5.6-5-.3-10.1-1.8-15-3.3-5.3-1.6-10.5-3.6-15.6-5.9-11.1-5.4-21.5-12.4-30.5-20.9-1.4-1.3-3.5.8-2.1,2.1,8.7,8.2,18.7,15.2,29.5,20.4,5.4,2.6,11,4.9,16.8,6.7,5.3,1.7,11,3.3,16.6,3.7,4.5.3,9.9-.5,12.3-4.8,3-5.6-.8-11.6-5.1-15-9.6-7.6-21.3-13-33-16.4-6.5-1.9-13.3-3.3-20-3.7-6.1-.4-12.6.4-17.3,4.7-1.5,1.3.7,3.4,2.1,2.1h0Z"/>
  </g>
  <g class="cls-1">
    <path class="cls-14" d="m141.2,273.9c-.6.5-1.8.9-2.7,1-1.3.1-2.8,0-3.9-.2-3-.5-5.7-1.5-8.2-3.2-1.1-.7-2.8-.2-3.4.9-.7,1.2-.2,2.7.9,3.4,3.2,2,6.8,3.3,10.5,3.8,3.6.5,7.5.4,10.4-2.2,1-.9.9-2.6,0-3.5-1.1-1-2.6-.9-3.6,0h0Z"/>
  </g>
  <g>
    <path class="cls-14" d="m97.7,174.8c10.7,6.7,110.2,69.7,120.9,76.4"/>
    <path class="cls-3" d="m96.7,176.6c5,3.2,10.1,6.3,15.1,9.5,9.2,5.8,18.3,11.6,27.5,17.4,10.6,6.7,21.3,13.5,31.9,20.2l28.5,18c5.7,3.6,11.4,7.2,17,10.8.3.2.6.4.9.6,2.2,1.4,4.2-2.1,2-3.5-5-3.2-10.1-6.3-15.1-9.5-9.2-5.8-18.3-11.6-27.5-17.4-10.6-6.7-21.3-13.5-31.9-20.2l-28.5-18c-5.7-3.6-11.4-7.2-17-10.8-.3-.2-.6-.4-.9-.6-2.2-1.4-4.2,2.1-2,3.5h0Z"/>
  </g>
  <g>
    <path class="cls-14" d="m96.1,176.4c-28.1,33.5-57.2,66-87.3,97.7"/>
    <path class="cls-3" d="m94.7,175c-10.9,13-22,25.9-33.3,38.7s-22.8,25.5-34.4,38c-6.5,7-13.1,14-19.7,21-1.8,1.9,1.1,4.7,2.8,2.8,11.7-12.3,23.3-24.8,34.7-37.4,11.5-12.7,22.8-25.5,34-38.4,6.3-7.3,12.5-14.6,18.7-21.9,1.7-2-1.1-4.8-2.8-2.8h0Z"/>
  </g>
  <path class="cls-3" d="m216.8,250.7c-14.9,17.1-27.6,36.2-38.1,56.3-10.6,20.4-19.1,42-25.2,64.1-3.4,12.2-6.1,24.6-8,37.2-.2,1.1.3,2.2,1.4,2.5.9.3,2.3-.3,2.5-1.4,3.4-22.3,9.3-44.1,17.2-65.2,8-21.2,18.2-41.7,30.6-60.7,6.8-10.5,14.3-20.5,22.5-29.9,1.6-2-1.2-4.9-2.9-2.9h0Z"/>
  <g>
    <path class="cls-14" d="m9.3,275.8c-1,11.7-2,23.5-2.9,35.2"/>
    <path class="cls-3" d="m7.3,275.8c-1,11.7-2,23.5-2.9,35.2-.2,2.6,3.8,2.6,4,0,1-11.7,2-23.5,2.9-35.2.2-2.6-3.8-2.6-4,0h0Z"/>
  </g>
  <path class="cls-3" d="m7.8,313.3c4.3,3.7,5.9,9.2,6.6,14.6.8,6,1,12.2,1.4,18.3.9,13.5,1.7,27,2.6,40.5.5,7.4,1,14.8,1.5,22.1.2,2.6,4.2,2.6,4,0-1-13.7-1.8-27.3-2.7-41-.4-6.9-.9-13.9-1.3-20.8-.4-6.3-.6-12.6-1.4-18.9-.8-6.5-2.6-13.2-7.8-17.6-2.1-1.7-4.9,1.1-2.9,2.8h0Z"/>
  <g>
    <path class="cls-14" d="m10.1,276.9c49.8,20.4,103.2,41.6,153,61.9"/>
    <path class="cls-3" d="m9.6,278.8c19.9,8.1,39.8,16.2,59.7,24.2,20,8.1,40,16.1,60,24.2,11.1,4.5,22.3,9,33.4,13.6,1,.4,2.2-.4,2.5-1.4.3-1.1-.4-2-1.4-2.5-19.9-8.1-39.8-16.2-59.7-24.2-20-8.1-40-16.1-60-24.2-11.1-4.5-22.3-9-33.4-13.6-1-.4-2.2.4-2.5,1.4-.4,1.2.3,2.1,1.4,2.5h0Z"/>
  </g>
  <g>
    <path class="cls-12" d="m74.72,243.87c2,0,4,.51,5.78,1.63,0,0,0,0,0,0,2.57-.79,5.3-1.09,8.03-1.09.89,0,1.78.03,2.67.09,6.7.4,13.5,1.8,20,3.7,11.7,3.4,23.4,8.8,33,16.4,4.11,3.25,7.75,8.87,5.44,14.25,3.29,2.11,5.71,5.94,5.16,9.85-.7,4.8-3.9,8.7-8.4,10.3-4.3,1.5-9.4,1.5-13.9,1.5-5.1,0-10.2-.9-15.2-2-10.8-2.4-21-6.7-30.7-12-9.7-5.4-21.6-11.6-24.7-23.2-1.4-5.3-.7-11.4,3.3-15.4,2.48-2.48,6.02-4.03,9.52-4.03m0-6h0c-5.07,0-10.09,2.11-13.77,5.79-5.18,5.18-6.99,13.09-4.86,21.18,3.64,13.62,16.28,20.64,26.44,26.27l1.15.64c11.29,6.17,21.85,10.29,32.32,12.61,4.82,1.06,10.54,2.14,16.5,2.14,4.73,0,10.62,0,15.88-1.83,6.62-2.35,11.35-8.14,12.36-15.1.66-4.63-1.04-9.39-4.47-12.98.39-5.08-1.59-11.35-8.35-16.7-9.49-7.51-21.61-13.55-35.05-17.46-7.57-2.21-14.75-3.54-21.32-3.93-1.01-.07-2.04-.1-3.02-.1-2.61,0-5.06.24-7.33.72-2.02-.83-4.22-1.27-6.48-1.27h0Z"/>
    <path class="cls-14" d="m74.72,243.87c2,0,4,.51,5.78,1.63,0,0,0,0,0,0,2.57-.79,5.3-1.09,8.03-1.09.89,0,1.78.03,2.67.09,6.7.4,13.5,1.8,20,3.7,11.7,3.4,23.4,8.8,33,16.4,4.11,3.25,7.75,8.87,5.44,14.25,3.29,2.11,5.71,5.94,5.16,9.85-.7,4.8-3.9,8.7-8.4,10.3-4.3,1.5-9.4,1.5-13.9,1.5-5.1,0-10.2-.9-15.2-2-10.8-2.4-21-6.7-30.7-12-9.7-5.4-21.6-11.6-24.7-23.2-1.4-5.3-.7-11.4,3.3-15.4,2.48-2.48,6.02-4.03,9.52-4.03m0-1c-3.7,0-7.52,1.62-10.23,4.33-3.9,3.9-5.23,10.02-3.56,16.36,3.09,11.56,14.7,18,24.03,23.18l1.15.64c10.84,5.92,20.97,9.88,30.97,12.1,4.55,1,9.94,2.02,15.42,2.02,4.58,0,9.77,0,14.23-1.56,4.84-1.72,8.31-5.97,9.06-11.1.45-3.13-.93-7.46-4.93-10.37,1.93-5.75-1.96-11.44-6.04-14.66-8.99-7.12-20.52-12.85-33.34-16.58-7.22-2.11-14.02-3.37-20.22-3.74-.93-.06-1.85-.09-2.73-.09-2.9,0-5.55.34-7.89,1.01-1.78-1.02-3.81-1.55-5.92-1.55h0Z"/>
  </g>
</svg>