<?xml version="1.0" encoding="utf-8"?>
<!-- Generator: Adobe Illustrator 28.0.0, SVG Export Plug-In . SVG Version: 6.00 Build 0)  -->
<svg version="1.1" id="Layer_2_00000125563370359543462750000001886236574285669799_"
	 xmlns="http://www.w3.org/2000/svg" xmlns:xlink="http://www.w3.org/1999/xlink" x="0px" y="0px" viewBox="0 0 531.1 408.8"
	 style="enable-background:new 0 0 531.1 408.8;" xml:space="preserve">
<style type="text/css">
	.st0{fill:#FFFFFF;}
	.st1{fill:#2C4368;}
	.st2{fill:#8897A3;}
	.st3{fill:#556874;}
	.st4{fill:#3B547D;}
	.st5{fill:#561919;}
	.st6{fill:#440E0E;}
	.st7{fill:#93646D;}
	.st8{opacity:0.21;}
	.st9{fill:#213931;}
	.st10{fill:#172E26;}
	.st11{fill:#6E8379;}
</style>
<path d="M124.8,247.8c2.8,3.6,7.9,5.1,12.2,3.9c1-0.3,1.7-1.4,1.4-2.5s-1.4-1.7-2.5-1.4c-0.2,0.1-0.4,0.1-0.7,0.2
	c-0.1,0-0.4,0-0.4,0.1c0,0,0.4,0,0.1,0c-0.4,0-0.9,0.1-1.4,0.1c-0.2,0-0.4,0-0.7-0.1c-0.1,0-0.4-0.1-0.1,0c0.3,0.1-0.1,0-0.2,0
	c-0.4-0.1-0.9-0.2-1.3-0.3c-0.2-0.1-0.4-0.1-0.6-0.2c-0.5-0.2,0.2,0.1,0,0c-0.1-0.1-0.2-0.1-0.3-0.1c-0.4-0.2-0.8-0.4-1.2-0.7
	c-0.1-0.1-0.2-0.1-0.3-0.2c-0.2-0.1-0.1,0,0.1,0c-0.2-0.1-0.4-0.3-0.5-0.4c-0.4-0.3-0.7-0.7-1-1.1c-0.7-0.8-2.2-0.7-2.8,0
	C124,245.9,124.1,247,124.8,247.8L124.8,247.8L124.8,247.8z"/>
<g>
	<path class="st0" d="M127,242.4c-3.1-0.5-6.3-1.1-9.4-0.4c-3.1,0.7-6,2.9-6.6,6c-0.8,4.3,3,7.9,6.6,10.3c3.7,2.4,7.7,4.5,11.9,6.1
		c2.9,1.1,5.9,2.1,9,1.8s6.2-1.9,7.5-4.7c1-2.3,0.7-5-0.3-7.3c-1-2.3-2.6-4.2-4.2-6.2"/>
	<g>
		<path class="st1" d="M127.5,240.5c-5.7-1-12.6-1.7-16.7,3.3c-3.9,4.8-1.3,10.6,2.9,14.1c4.6,3.9,10.5,6.7,16.1,8.8
			c5.3,2,12.2,2.8,16.4-1.9c2.2-2.5,2.8-5.8,2-9c-0.8-3.5-3.1-6.3-5.3-9c-1.6-2-4.4,0.9-2.8,2.8c2.5,3,6.4,7.9,3.6,11.9
			c-2.6,3.7-7.9,3-11.6,1.8c-4.8-1.6-9.5-4-13.8-6.8c-2.7-1.8-6.9-5.3-5.3-9c2.2-4.9,9.1-3.8,13.2-3.1c1.1,0.2,2.2-0.3,2.5-1.4
			C129.2,242,128.6,240.7,127.5,240.5L127.5,240.5z"/>
	</g>
</g>
<polygon class="st2" points="97.7,174.8 130.1,194 143,203.4 166,218 218.2,252.1 186.9,293.4 165.3,338.8 109,316.9 9.3,275.8 
	30,251.5 86.6,187.7 "/>
<g>
	<path class="st3" d="M122,212.5c-1.8-1.2-4-1.3-6.1-0.7c-2.3,0.7-4.3,2.3-5.4,4.4c-2.1,4.1-1.1,9.1,1.5,12.9
		c2.5,3.8,6.4,6.4,10.3,8.8c11.7,7,20.6,10.9,34.1,13c3.4,0.5,10.7,0.4,14-0.6s5.4-3.2,6.1-6.6c0.8-3.4-2.6-7.3-6.1-7.6L122,212.5z"
		/>
	<g>
		<path class="st4" d="M122.5,211.6c-3.5-2.2-8.1-1.2-11,1.5c-3,2.7-3.7,7-3,10.8c1.7,8.7,10.3,13.5,17.4,17.5
			c7.2,4.1,14.8,7.4,22.9,9.3c3.7,0.9,7.6,1.6,11.4,1.7c3.4,0.1,7,0,10.3-0.9c3.4-0.9,5.8-3.5,6.8-6.8c1-3.5-1.1-7.1-4.3-8.7
			c-0.8-0.4-1.6-0.6-2.5-0.8c0.1,0,0.4,0.2,0.1,0.1c-0.2-0.1-0.5-0.2-0.7-0.3c-1-0.5-2-1-3-1.5c-8.3-4.1-16.6-8.1-24.9-12.2
			c-6.5-3.2-12.9-6.4-19.4-9.5C122.8,211.7,122.6,211.6,122.5,211.6c-1.3-0.6-2.4,1.3-1.1,1.9c4.8,2.3,9.6,4.7,14.4,7
			c8.3,4.1,16.6,8.1,24.9,12.2c2.6,1.3,5.2,2.5,7.8,3.8c0.4,0.2,0.9,0.5,1.3,0.6c0.5,0.2,0.9,0.2,1.4,0.3c0.9,0.2,1.6,0.7,2.3,1.3
			c1.3,1.2,2.2,2.9,1.9,4.6c-0.6,3.3-3.1,5.4-6.4,6c-3.2,0.6-6.6,0.7-9.9,0.5c-3.7-0.2-7.4-1-11-1.9c-3.6-0.9-7.2-2.1-10.7-3.6
			c-3.6-1.5-7.1-3.3-10.5-5.2c-3.6-2-7.2-4-10.3-6.7c-3-2.6-5.4-5.9-6-9.9c-0.6-4,1.1-8.1,5-9.6c1.9-0.7,4-0.7,5.8,0.4
			C122.6,214.3,123.8,212.3,122.5,211.6z"/>
	</g>
</g>
<g>
	<path class="st5" d="M118.2,216.4c-3.2,5.2-1.6,6.7,0.2,9.7s4.8,5.1,7.8,6.9c9.7,5.8,20.3,10.1,31.3,12.6c3.9,0.9,6.1,1.2,9.7-0.3
		c3.7-1.6,4.3-4.8,5.3-8.9"/>
	<g>
		<path class="st6" d="M117.2,215.9c-1.1,1.9-2.2,4.1-1.9,6.4c0.3,1.6,1.2,3,2.1,4.4c2.9,4.8,8.4,7.6,13.3,10.1
			c5.4,2.9,11.1,5.2,16.9,7.1c2.9,0.9,5.8,1.8,8.7,2.4c2.6,0.6,5.2,1.2,7.8,0.9c2.6-0.4,5.3-1.5,6.9-3.6c1.5-2,2.1-4.6,2.6-7.1
			c0.3-1.4-1.8-2-2.1-0.6c-0.5,2-0.8,4.1-1.9,5.8c-1.1,1.9-3.2,2.8-5.3,3.2c-2.3,0.5-4.6-0.1-6.9-0.6c-2.6-0.6-5.3-1.3-7.8-2.1
			c-5.2-1.6-10.2-3.6-15-6c-2.4-1.2-4.8-2.5-7.2-3.9c-2.1-1.3-4.3-2.6-6-4.4c-1.4-1.4-2.7-3.3-3.4-5.1c-0.8-2.1,0.3-4.1,1.3-5.9
			C119.9,215.7,118,214.6,117.2,215.9L117.2,215.9z"/>
	</g>
</g>
<g>
	<path class="st7" d="M118.4,215.1c3.5-3.4,9.1-3.6,14-3c12.4,1.4,24.5,6,34.8,13.1c1.9,1.3,3.7,2.7,4.9,4.6
		c1.2,1.9,1.6,4.5,0.5,6.5c-1.9,3.4-6.7,3.4-10.6,2.7c-16.2-3-31.4-10.9-43.4-22.2"/>
	<g>
		<path class="st6" d="M119.2,215.9c2.7-2.6,6.6-3,10.2-2.9c4,0.1,8.1,0.9,12,1.9c8.2,2,16,5.4,23,9.9c3.2,2.1,7.7,4.8,7.6,9.1
			c-0.1,4-4.5,4.6-7.6,4.4c-3.8-0.3-7.6-1.4-11.3-2.5c-3.9-1.2-7.7-2.6-11.3-4.4c-8.2-3.9-15.8-9-22.5-15.3c-1-1-2.6,0.6-1.6,1.6
			c6.5,6.1,13.9,11.3,22,15.2c4.1,2,8.3,3.6,12.6,5c4,1.2,8.2,2.5,12.4,2.7c3.4,0.2,7.3-0.6,8.9-4c1.9-4.1-0.8-8.3-4-10.8
			c-7.1-5.7-15.9-9.7-24.6-12.2c-4.9-1.4-9.9-2.5-15-2.7c-4.5-0.3-9.1,0.4-12.5,3.5C116.6,215.3,118.2,216.8,119.2,215.9
			L119.2,215.9z"/>
	</g>
</g>
<g class="st8">
	<g>
		<path class="st0" d="M167.6,232.6c-0.4,0.4-1.3,0.7-2,0.7c-1,0.1-2.1,0-2.9-0.2c-2.2-0.4-4.2-1.1-6.1-2.3c-0.8-0.5-2-0.2-2.5,0.7
			c-0.5,0.9-0.2,2,0.7,2.5c2.4,1.5,5,2.5,7.8,2.8c2.7,0.4,5.6,0.3,7.7-1.6c0.7-0.7,0.7-1.9,0-2.6
			C169.5,231.8,168.3,231.9,167.6,232.6L167.6,232.6z"/>
	</g>
</g>
<g>
	<path class="st3" d="M126.2,241.7c-1.9,0-6-0.1-6.9,1.5c-0.9,1.7-0.8,3.8,0.2,5.4c0.8,1.2,2,2,3.2,2.7c3.8,2.2,7.9,3.7,12.2,4.5
		c1.5,0.3,3.1,0.4,4.6,0.2c1.5-0.3,3-1.1,3.9-2.4c0.8-1.3-1.3-4.7-2.3-5.9"/>
	<g>
		<path class="st4" d="M126.2,240.2c-2.5,0-6.1-0.3-7.9,1.8c-1.2,1.4-1.4,3.7-0.9,5.5c0.5,1.9,1.8,3.3,3.4,4.4
			c3.4,2.3,7.5,3.9,11.4,4.9c3.8,0.9,8.8,1.7,11.8-1.6c2.4-2.6,0-6.3-1.9-8.6c-1.2-1.5-3.3,0.6-2.1,2.1c0.7,0.9,1.4,2,1.8,3
			c0.1,0.3,0.3,0.8,0.3,1c-0.2,0.7-1.4,1.2-1.9,1.4c-1.9,0.7-4.2,0.3-6.1-0.1c-2-0.4-3.9-1-5.8-1.8c-1.8-0.7-3.6-1.6-5.2-2.6
			c-1.5-1-2.9-2.2-2.8-4.2c0.1-1.6,0.7-2,2.2-2.2c1.3-0.2,2.6-0.2,3.9-0.1C128.1,243.2,128.1,240.2,126.2,240.2L126.2,240.2z"/>
	</g>
</g>
<polygon class="st4" points="9.3,275.8 6.5,309.7 12.9,316.4 18.8,359.8 21.8,408.8 147.4,408.8 166,336.3 "/>
<g>
	<path class="st3" d="M79.7,246.8c-2.4-1.6-5.5-1.8-8.2-0.9c-3,0.9-5.8,3.1-7.3,5.9c-2.8,5.5-1.4,12.3,2,17.4
		c3.4,5.1,8.6,8.7,13.9,11.8c15.7,9.4,27.9,14.8,46,17.6c4.6,0.7,14.4,0.5,18.9-0.8c4.5-1.3,7.2-4.3,8.3-8.9c1-4.6-3.6-9.9-8.3-10.2
		L79.7,246.8z"/>
	<g>
		<path class="st4" d="M80.5,245.5c-4.9-3.1-11.4-1.5-15.3,2.4c-4,4-4.7,10.1-3.3,15.4c3.1,11.6,15,17.8,24.7,23.2
			c9.7,5.3,19.9,9.6,30.7,12c5,1.1,10.1,2,15.2,2c4.5,0,9.6,0,13.9-1.5c4.5-1.6,7.7-5.5,8.4-10.3c0.7-4.9-3.3-9.7-7.8-11.1
			c-0.2-0.1-1.7-0.4-1.7-0.3c0,0.2,0.6,0.2,0.4,0.2c-0.1,0-0.2-0.1-0.2-0.1c-0.4-0.2-0.7-0.4-1.1-0.5c-1.4-0.7-2.9-1.4-4.3-2.1
			c-11.1-5.5-22.3-10.9-33.4-16.4c-8.6-4.2-17.1-8.5-25.7-12.6C80.7,245.7,80.6,245.6,80.5,245.5c-1.7-0.8-3.2,1.7-1.5,2.6
			c6.6,3.2,13.1,6.4,19.7,9.7c11.2,5.5,22.5,11,33.7,16.5c3.5,1.7,6.9,3.4,10.4,5.1c0.5,0.3,1.1,0.6,1.7,0.8c1,0.3,2,0.4,3,0.9
			c1,0.5,1.9,1.3,2.7,2.2c1.5,1.7,2.1,3.8,1.5,6.1c-1.2,4.4-4.5,6.8-8.9,7.6c-4.4,0.8-9,0.9-13.5,0.6c-5-0.3-10-1.4-14.8-2.7
			c-5-1.3-9.9-2.9-14.6-5c-4.8-2.1-9.5-4.5-14-7.1c-4.8-2.7-9.8-5.5-14-9.3c-4-3.6-7.2-8.3-7.7-13.8c-0.4-5.2,1.9-10.3,7-12.2
			c2.6-0.9,5.3-0.9,7.6,0.6C80.6,249.2,82.1,246.6,80.5,245.5z"/>
	</g>
</g>
<g>
	<path class="st9" d="M74.6,252.1c-4.3,7-2.1,9,0.3,13.1c2.4,4.1,6.4,6.8,10.5,9.2c13.1,7.8,27.4,13.6,42.3,16.9
		c5.2,1.2,8.2,1.7,13.2-0.4c4.9-2.1,5.9-6.5,7.2-12"/>
	<g>
		<path class="st10" d="M73.3,251.3c-1.5,2.6-3,5.5-2.5,8.6c0.3,2.2,1.7,4.1,2.8,6c3.9,6.5,11.4,10.2,17.9,13.7
			c7.2,3.8,14.7,7,22.4,9.5c3.9,1.3,7.8,2.4,11.8,3.3c3.5,0.8,7.2,1.8,10.8,1.3c3.5-0.5,7.1-2,9.3-4.8c2.1-2.7,2.8-6.3,3.6-9.6
			c0.4-1.9-2.4-2.7-2.9-0.8c-0.6,2.7-1.1,5.5-2.6,7.9c-1.5,2.5-4.2,3.6-6.9,4.2c-3.1,0.7-6.3-0.1-9.4-0.8c-3.7-0.8-7.3-1.8-10.9-3
			c-7.1-2.2-14-5-20.6-8.3c-3.2-1.6-6.4-3.3-9.5-5.2c-2.9-1.7-5.8-3.6-8.1-6.1c-1.1-1.2-1.9-2.5-2.7-3.8c-0.6-0.9-1.2-1.8-1.6-2.8
			c-1.1-2.7,0.5-5.5,1.8-7.8C76.9,251.2,74.3,249.6,73.3,251.3L73.3,251.3z"/>
	</g>
</g>
<g>
	<path class="st11" d="M74.9,250.3c4.8-4.6,12.3-4.8,18.9-4c16.8,1.9,33.1,8.1,46.9,17.7c2.5,1.7,5,3.7,6.6,6.3
		c1.6,2.6,2.2,6,0.7,8.7c-2.5,4.6-9.1,4.6-14.3,3.6c-21.8-4.1-42.4-14.6-58.5-29.9"/>
	<g>
		<path class="st10" d="M76,251.3c3.7-3.5,9.1-4.1,14-3.9c5.5,0.2,11,1.3,16.4,2.6c11.1,2.8,21.7,7.4,31.2,13.7
			c4.2,2.8,10.1,6.5,9.7,12.3c-0.3,5-6,5.9-10,5.6c-5-0.3-10.1-1.8-15-3.3c-5.3-1.6-10.5-3.6-15.6-5.9C95.6,267,85.2,260,76.2,251.5
			c-1.4-1.3-3.5,0.8-2.1,2.1c8.7,8.2,18.7,15.2,29.5,20.4c5.4,2.6,11,4.9,16.8,6.7c5.3,1.7,11,3.3,16.6,3.7
			c4.5,0.3,9.9-0.5,12.3-4.8c3-5.6-0.8-11.6-5.1-15c-9.6-7.6-21.3-13-33-16.4c-6.5-1.9-13.3-3.3-20-3.7c-6.1-0.4-12.6,0.4-17.3,4.7
			C72.4,250.5,74.6,252.6,76,251.3L76,251.3z"/>
	</g>
</g>
<g class="st8">
	<g>
		<path class="st0" d="M141.2,273.9c-0.6,0.5-1.8,0.9-2.7,1c-1.3,0.1-2.8,0-3.9-0.2c-3-0.5-5.7-1.5-8.2-3.2
			c-1.1-0.7-2.8-0.2-3.4,0.9c-0.7,1.2-0.2,2.7,0.9,3.4c3.2,2,6.8,3.3,10.5,3.8c3.6,0.5,7.5,0.4,10.4-2.2c1-0.9,0.9-2.6,0-3.5
			C143.7,272.9,142.2,273,141.2,273.9L141.2,273.9z"/>
	</g>
</g>
<g>
	<path class="st0" d="M97.7,174.8c10.7,6.7,110.2,69.7,120.9,76.4"/>
	<g>
		<path class="st1" d="M96.7,176.6c5,3.2,10.1,6.3,15.1,9.5c9.2,5.8,18.3,11.6,27.5,17.4c10.6,6.7,21.3,13.5,31.9,20.2
			c9.5,6,19,12,28.5,18c5.7,3.6,11.4,7.2,17,10.8c0.3,0.2,0.6,0.4,0.9,0.6c2.2,1.4,4.2-2.1,2-3.5c-5-3.2-10.1-6.3-15.1-9.5
			c-9.2-5.8-18.3-11.6-27.5-17.4c-10.6-6.7-21.3-13.5-31.9-20.2c-9.5-6-19-12-28.5-18c-5.7-3.6-11.4-7.2-17-10.8
			c-0.3-0.2-0.6-0.4-0.9-0.6C96.5,171.7,94.5,175.2,96.7,176.6L96.7,176.6z"/>
	</g>
</g>
<g>
	<path class="st0" d="M96.1,176.4c-28.1,33.5-57.2,66-87.3,97.7"/>
	<g>
		<path class="st1" d="M94.7,175c-10.9,13-22,25.9-33.3,38.7c-11.3,12.8-22.8,25.5-34.4,38c-6.5,7-13.1,14-19.7,21
			c-1.8,1.9,1.1,4.7,2.8,2.8c11.7-12.3,23.3-24.8,34.7-37.4c11.5-12.7,22.8-25.5,34-38.4c6.3-7.3,12.5-14.6,18.7-21.9
			C99.2,175.8,96.4,173,94.7,175L94.7,175z"/>
	</g>
</g>
<g>
	<g>
		<path class="st1" d="M216.8,250.7c-14.9,17.1-27.6,36.2-38.1,56.3c-10.6,20.4-19.1,42-25.2,64.1c-3.4,12.2-6.1,24.6-8,37.2
			c-0.2,1.1,0.3,2.2,1.4,2.5c0.9,0.3,2.3-0.3,2.5-1.4c3.4-22.3,9.3-44.1,17.2-65.2c8-21.2,18.2-41.7,30.6-60.7
			c6.8-10.5,14.3-20.5,22.5-29.9C221.3,251.6,218.5,248.7,216.8,250.7L216.8,250.7z"/>
	</g>
</g>
<g>
	<path class="st0" d="M9.3,275.8c-1,11.7-2,23.5-2.9,35.2"/>
	<g>
		<path class="st1" d="M7.3,275.8c-1,11.7-2,23.5-2.9,35.2c-0.2,2.6,3.8,2.6,4,0c1-11.7,2-23.5,2.9-35.2
			C11.5,273.2,7.5,273.2,7.3,275.8L7.3,275.8z"/>
	</g>
</g>
<g>
	<g>
		<path class="st1" d="M7.8,313.3c4.3,3.7,5.9,9.2,6.6,14.6c0.8,6,1,12.2,1.4,18.3c0.9,13.5,1.7,27,2.6,40.5
			c0.5,7.4,1,14.8,1.5,22.1c0.2,2.6,4.2,2.6,4,0c-1-13.7-1.8-27.3-2.7-41c-0.4-6.9-0.9-13.9-1.3-20.8c-0.4-6.3-0.6-12.6-1.4-18.9
			c-0.8-6.5-2.6-13.2-7.8-17.6C8.6,308.8,5.8,311.6,7.8,313.3L7.8,313.3z"/>
	</g>
</g>
<g>
	<path class="st0" d="M10.1,276.9c49.8,20.4,103.2,41.6,153,61.9"/>
	<g>
		<path class="st1" d="M9.6,278.8c19.9,8.1,39.8,16.2,59.7,24.2c20,8.1,40,16.1,60,24.2c11.1,4.5,22.3,9,33.4,13.6
			c1,0.4,2.2-0.4,2.5-1.4c0.3-1.1-0.4-2-1.4-2.5c-19.9-8.1-39.8-16.2-59.7-24.2c-20-8.1-40-16.1-60-24.2c-11.1-4.5-22.3-9-33.4-13.6
			c-1-0.4-2.2,0.4-2.5,1.4C7.8,277.5,8.5,278.4,9.6,278.8L9.6,278.8z"/>
	</g>
</g>
</svg>
