<?xml version="1.0" encoding="utf-8"?>
<!-- Generator: Adobe Illustrator 28.0.0, SVG Export Plug-In . SVG Version: 6.00 Build 0)  -->
<svg version="1.1" xmlns="http://www.w3.org/2000/svg" xmlns:xlink="http://www.w3.org/1999/xlink" x="0px" y="0px"
	 viewBox="0 0 180 231" style="enable-background:new 0 0 180 231;" xml:space="preserve">
<style type="text/css">
	.st0{fill:#BEACA6;}
	.st1{fill:#A6716D;}
	.st2{fill:#CCA15C;}
	.st3{fill:#6B3D3D;}
	.st4{fill:#92524D;}
</style>
<g id="Layer_1">
</g>
<g id="Layer_4">
	<g>
		<g>
			<path class="st0" d="M115.1,125.1c1-3.8,1-7.7-0.8-11.3c-0.9-1.8-2.1-3.3-3.5-4.7c-0.8-0.7-1.6-1.4-2.4-2.1
				c-0.8-1.4-1.1-1.5-1-0.3c1.3-2.5,0.8-6.1-2-7.5c-8.5-4.2-17.9-4.8-22.6,5c-2,4.2-3.2,9.1-4.4,13.6c-0.7,2.7-1.3,5.2-0.8,8
				c0.3,2.4,1.5,4.4,2,6.7c1.2,5.2-0.2,10.7,0.6,15.9c0.6,4.2,2.4,8,5.3,11.1c5.8,6.5,14.5,8.7,22.8,7.4c6.1-0.9,4.7-11.4-1.5-10.8
				c-1.9,0.2-3.8,0.4-5.8,0.5c0.5,3.6,1,7.2,1.5,10.8c6.6-1.7,18.4-2.4,21.1-10c1.2-3.4,0.8-7.3,0.8-10.9c0-4,0.2-8.1,0-12.2
				c-0.4-7.8-4.7-14.4-6.1-22.1c-1.2-6.4-3.9-15.3-12.4-13.1c-6.8,1.8-3.9,12.4,2.9,10.6c-2.2,0.6-2.9-2.2-2,1.4
				c0.3,1.1,0.5,2.1,0.7,3.2c0.4,2.4,0.8,4.8,1.5,7.2c1.6,5.3,4.4,9.4,4.4,15.1c0,2.7,0,5.3,0,8c0,2.3,0.6,5.7-0.1,7.9
				c-0.5,1.8,1.1-0.4-0.2,0.6c-0.9,0.7-3.1,0.8-4.3,1.1c-3.1,0.8-6.2,1.6-9.3,2.4c-5.8,1.5-4.9,11.4,1.5,10.8
				c1.9-0.2,3.8-0.4,5.8-0.5c-0.5-3.6-1-7.2-1.5-10.8c-4.5,0.7-9.7-1.3-12.5-5c-3.6-4.7-1.6-11.4-2-16.9c-0.2-2.8-0.8-5.3-1.7-7.9
				c-1.2-3.3-0.1-5.9,0.8-9.2c0.7-2.5,1.3-5.3,2.3-7.7c1.7-3.8,4.2-2.7,7.5-1c-0.7-2.5-1.3-5-2-7.5c-1.8,3.6-1.8,7.3,0.4,10.8
				c2.2,3.6,7.4,5.3,6.1,10.1C102.6,129,113.2,131.9,115.1,125.1L115.1,125.1z"/>
		</g>
	</g>
	<g>
		<g>
			<path class="st0" d="M90.9,105.7c1.4,14.6-15,52,11,52.4c4.5,0.1,8.6-0.8,11.6-4.4c3.1-3.7,5-9.6,5.8-14.3
				c0.9-5.7-2.5-9.4-4.8-14.3c-2.3-5.1-5.8-8.3-10.3-11.6c-3.4-2.5-8.5,0.8-8.3,4.7c0.5,9.5-0.3,18.7-2.6,27.9
				c-1,4.2,2.6,7.7,6.8,6.8c7.8-1.8,13-9.6,10.7-17.6c-2.3-8.1-12.2-12.5-18.8-16.4c0.9,1.6,1.8,3.2,2.7,4.7c0-0.3,0-0.5,0-0.8
				c-0.5,1.3-1.1,2.6-1.6,3.9c0.2-0.2,0.4-0.3,0.6-0.5c-1.3,0.5-2.6,1.1-3.9,1.6c0.3,0,0.5,0.1,0.8,0.1c7,0.9,6.9-10.1,0-11
				c-4.1-0.5-6.7,3-6.9,6.7c-0.1,1.9,1.1,3.8,2.7,4.7c3.7,2.2,7.5,4.3,10.9,6.9c2.8,2.1,4.6,5.9-0.1,7.1c2.3,2.3,4.5,4.5,6.8,6.8
				c2.5-10.1,3.5-20.5,3-30.9c-2.8,1.6-5.5,3.2-8.3,4.7c2.8,2.1,4.8,4,6.2,7.2c1.2,2.8,3.9,5.6,3.4,8.6c-0.5,2.5-1.7,7.4-4.3,8.1
				c-2.2,0.7-4.8,0.3-5.5-1.8c-0.9-2.4-0.2-6.5,0-9c0.2-3.8,0.9-7.6,1.6-11.4c1.2-6.4,2.5-12.7,1.9-19.2
				C101.3,98.8,90.3,98.7,90.9,105.7L90.9,105.7z"/>
		</g>
	</g>
	<g>
		<g>
			<path class="st0" d="M119.9,135.9c7.1,0,7.1-11,0-11C112.8,124.9,112.8,135.9,119.9,135.9L119.9,135.9z"/>
		</g>
	</g>
</g>
<g id="Layer_3">
	<g>
		<g>
			<path class="st1" d="M113.7,76.9c0.1-4.9,0-9.7-0.1-14.6c-0.3-7.4-9.1-11.2-14.5-6c-7.8,7.5-8.3,19.8-9.3,29.9
				c4.8-2,9.7-4,14.5-6c-2.2-1.9-3.8-3.8-5.2-6.4c-5.3-9.6-20-1-14.7,8.6c2,3.7,4.7,7.1,7.9,9.9c5.8,5.1,13.8,1.4,14.5-6
				c0.5-5.2,0.3-14,4.3-17.9c-4.8-2-9.7-4-14.5-6c0.2,4.9,0.2,9.7,0.1,14.6C96.5,87.8,113.5,87.8,113.7,76.9L113.7,76.9z"/>
		</g>
	</g>
	<g>
		<g>
			<path class="st1" d="M95.7,60.1c-6.7,6.1-11.3,14-13.3,22.8c-1.8,7.6,8.5,15.2,14.2,8.3c0.8-0.9,0.7-0.9-0.3,0.1
				c-1.4,0.4-2.9,0.8-4.3,1.2c0.1,0,0.2,0,0.3,0c-1.4-0.4-2.9-0.8-4.3-1.2c0.3,0.1-3.8-5.3-2.8-3.4c0.7,1.3-0.2-1.3,0-0.6
				c0.2,1,0.1,2,0.4,3c2.4,9.7,16.1,7,16.7-2.3c0.5-8.1,1.7-16.4,0.8-24.5c-0.7-7.1-5-12.9-13.1-11.2C79.2,54.6,77.7,66,80.8,74.7
				c2.6,7.3,11.1,7.9,15.5,2c7.1-9.5,10.9-20.5,12.3-32.3c-4.3,2.4-8.5,4.9-12.8,7.3c2.9,1.6,5.7,3.2,8.6,4.9
				c5.9,3.3,12.4-1,12.8-7.3c0.3-4.4,0.4-8.9,1-13.3c-0.4,1.4-0.8,2.9-1.2,4.3c0.2-0.4,0.4-0.9,0.6-1.3c-1,1-2,2-3,3
				c0.3-0.2,0.5-0.4,0.8-0.6c-1.4,0.4-2.9,0.8-4.3,1.2c0.3,0,0.6-0.1,0.9-0.1c-1.4-0.4-2.9-0.8-4.3-1.2c0.3,0.2,0.5,0.3,0.8,0.5
				c4.5,2.7,11.3,0.3,12.5-5.1c0.9-4.4,1.5-8.9-0.6-13.1c-0.5-1.1-1-1.9-1.8-2.9c-0.7-0.8-2.1-3.1-1.5-0.5c0.9,4.2-0.1,0.2,0.6,0.6
				c-0.3-0.1,1.5-0.6,0.3-0.4c-2.7-2.1-5.5-4.2-8.2-6.2c2,10.9,16.2,14.6,23.4,6.3c7.2-8.3-3.8-19.3-12-12c-8,7.1-4.4,18.2,3.7,23.1
				c-1.3-1.7-2.6-3.4-3.9-5.1c0.1,0.3,0.2,0.7,0.3,1c0.3-2.2,0.6-4.4,0.9-6.5c-0.2,0.3-0.3,0.7-0.5,1c1-1,2-2,3-3
				c-0.4,0.3-5.5,0.7-6.8,1.4c-2,1-3.9,2.3-5.5,4c-3.9,4.1-5.6,9.5-6.4,15c-1.4,9.7-1.3,20.5,8.1,26.2c3.4,2,7.5,1.2,10.3-1.3
				c4.2-3.8,4.2-9,2.1-13.8c-3.7-8.3-15.5-3.4-15.8,4.3c-0.1,2.1,0.3,4,1,6c0.3,0.7,0.6,1.4,0.9,2c0.3,1.1,0.5,0.6,0.6-1.5
				c0.1,0.1-4.9,6.1-4.9,6.2c-2,3.1-2.9,6.5-3.1,10.2c-0.1,3.2,1,6.7,0.2,9.9c2.7-2.1,5.5-4.2,8.2-6.2c0,0,0,0,0,0
				c1.3,0.7,2.5,1.5,3.8,2.2c-2.7-2.1-4.3-6.2-6-9.2c-2.1-3.8-4.1-7.7-5.9-11.6c-3.7-7.7-16.1-3.8-15.8,4.3
				c0.3,7.2,2.3,14.2,2.6,21.4c0.4,10.9,16.9,11,17,0c0.2-19-5.9-38,0.5-56.5c3-8.6-8.3-13.4-14.2-8.3c-1.8,1.5-5.3,1.2-7.5,1.3
				c-3.4,0.1-6.7,0.4-10,0.9c-7.6,1-15.1,2.2-21.5,6.8c-3.7,2.7-5.5,7.4-3,11.6c2.2,3.7,7.9,5.7,11.6,3c12.7-9.1,30.3-1,42.5-11.5
				c-4.7-2.8-9.5-5.5-14.2-8.3c-7,20.3-0.8,40.3-1.1,61c5.7,0,11.3,0,17,0c-0.3-7.2-2.3-14.2-2.6-21.4c-5.3,1.4-10.6,2.9-15.8,4.3
				c2.8,5.9,5.8,11.7,9.2,17.3c3.1,5.2,7.1,10.3,13.7,9.8c3.7-0.3,7.2-2.5,8.2-6.2c1-3.9,0.8-7.4,0.5-11.4c-0.2-3.7,0.3-4,2.5-6.7
				c2.4-2.8,4.3-5.6,4.8-9.4c0.3-2,0.1-3.9-0.4-5.8c-0.4-1.3-1.5-2.7-1.4-4c-5.3,1.4-10.6,2.9-15.8,4.3c0.1,0.3,0.3,0.6,0.4,0.9
				c-0.4-1.4-0.8-2.9-1.2-4.3c0,0.3,0,0.7,0,1c0.4-1.4,0.8-2.9,1.2-4.3c0.1-0.1,0.1-0.1,0.2-0.2c3.4-0.4,6.9-0.9,10.3-1.3
				c-1.3-0.8-0.3-6.3-0.2-7.5c0.3-2.3,0.8-4.4,1.7-6.5c0.7-1.7,1-1,2.3-1.1c5.6-0.3,10.5-3.5,11.4-9.3c0.4-2.8-0.6-6.1-2.6-8.1
				c-0.6-0.4-1.1-0.9-1.7-1.3c-1.5-1.1-1.7-1.1-0.6,0.2c0.1,1,1.7,2.3,0.3,3.5c-4-4-8-8-12-12c2.2-0.1,2.3-0.3,0.5-0.4
				c1.4,0.4,2.9,0.8,4.3,1.2c-1.6-0.8-1.6-0.6,0.2,0.5c-0.6-3.3-4.8-6.6-8.2-6.2c-7.7,0.9-14.6,5.1-16.8,13c-1,3.6-1,7.5,0.7,10.9
				c0.7,1.3,2.4,2.5,2.9,3.7c-0.3-0.6,0.2-0.7-0.2,1.2c4.2-1.7,8.3-3.4,12.5-5.1c-5.1-3.1-11.5-1.3-14.4,3.9c-2.8,5-2,12.6-2.4,18.2
				c4.3-2.4,8.5-4.9,12.8-7.3c-2.9-1.6-5.7-3.2-8.6-4.9c-6.1-3.4-12.1,1.1-12.8,7.3c-1,8.8-4.7,16.7-10,23.7
				c5.2,0.7,10.4,1.4,15.5,2c-0.4-1-0.7-2-1-3c-0.1-2.1-1-1.4-2.8,2c-1.4-0.4-2.9-0.8-4.3-1.2c-1.1-1.3-2.1-2.6-3.2-4
				c0,0.2,0.1,0.3,0.1,0.5c0.3,0.1,0.1,1,0-0.3c0.1,1.3,0.1,2.6,0.1,3.9c0,2.9-0.1,5.8-0.3,8.7c-0.2,3.7-0.5,7.4-0.7,11.1
				c5.6-0.8,11.1-1.5,16.7-2.3c1.1,4.6,0-0.8-0.2-1.9c-0.5-2.1-1.3-4-2.8-5.5c-4-4.2-10.7-3.5-14.3,0.8c4.7,2.8,9.5,5.5,14.2,8.3
				c1.5-6.1,4.3-11,9-15.3C115.8,64.7,103.7,52.7,95.7,60.1L95.7,60.1z"/>
		</g>
	</g>
	<g>
		<g>
			<path class="st1" d="M92.4,37.7c-11.7,0-23.5,0-35.2,0c-11.2,0-10.6,15.8,0,17c2.9,0.3,6,1.1,8.7,2.4c1.2,0.6,2.4,1.2,3.4,2.1
				c1.1,0.9,2,3.5,2,1.3c0.4-1.4,0.8-2.9,1.2-4.3c-0.2,0.3-0.3,0.5-0.5,0.8c1.7-1.3,3.4-2.6,5.1-3.9c3,0.9,3.5,0.7,1.3-0.4
				c-0.9-0.6-1.8-1.2-2.6-1.8c-1.1-0.9-2.2-1.8-3.2-2.7c-2.6-2.4-5-4.9-7.4-7.4c-2.4-2.5-4.8-5.1-7.3-7.5c-1.1-1-2.1-2.2-3.2-3.2
				c-1.7-1.5,0.4-0.8-0.8,0.3c-3.4,0.4-6.9,0.9-10.3,1.3c0.1,0.1,0.3,0.2,0.4,0.2c-1.3-3.2-2.6-6.4-3.9-9.6
				c-0.1,0.2-0.1,0.3-0.2,0.5c2.7-2.1,5.5-4.2,8.2-6.2c-0.2,0-0.4,0-0.6,0c1.4,0.4,2.9,0.8,4.3,1.2c-0.2-0.1-0.3-0.2-0.5-0.4
				c1,1,2,2,3,3c-2.9-4.1-3.3-8.9-9-10.6c-5.8-1.7-10.5,1.5-15.2,4.5c-4.5,2.8-9.3,5.7-12,10.4c-3.2,5.5-2.3,11.8-0.6,17.6
				c1.9,6.3,9.4,8.1,14.2,3.8c0.4-0.4,0.7,0.1,1,0.3c1.3-4.7,2.5-9.5,3.8-14.2c0,0.1,0.1,0.2,0.1,0.3c-0.8,5.6-1.5,11.1-2.3,16.7
				c2.1-0.1,7.9-0.7,9.6,0.3c-1-1-2-2-3-3c0.2,0.4,0.3,0.7,0.5,1.1c-0.4-1.4-0.8-2.9-1.2-4.3c0.4,8.2-0.3,16.6-0.5,24.8
				c5.6-0.8,11.1-1.5,16.7-2.3c-0.6-4.5-1.2-9-1.9-13.6c-1.3-9.4-17.5-7.3-16.7,2.3c0.9,10.1,4.9,18.9,8.2,28.3
				c3.2,9.1,3,19,7.2,27.8c3.8,7.9,15.7,3.7,15.8-4.3c0.2-14.7,0.4-29.5,0.6-44.2c-5.7,0-11.3,0-17,0c0.8,11.9,2.2,23.8,4.1,35.6
				c0.7,4.5,6.4,7.1,10.5,5.9c4.8-1.3,6.7-5.9,5.9-10.5c-1.6-10.3-2.7-20.7-3.5-31.1c-0.8-10.8-16.8-11.1-17,0
				c-0.2,14.7-0.4,29.5-0.6,44.2c5.3-1.4,10.6-2.9,15.8-4.3c-1.7-3.6-1.9-7.9-2.5-11.8c-0.6-4.1-1.6-8-3-11.9
				c-2.7-7.8-6.9-15.5-7.6-23.8c-5.6,0.8-11.1,1.5-16.7,2.3c0.6,4.5,1.2,9,1.9,13.6c1.3,9.7,16.5,7,16.7-2.3
				c0.1-4.6,0.2-9.2,0.3-13.7c0.1-4.6,1-9.9-0.6-14.3c-3-8.6-14.7-8-22.1-7.8c-9.3,0.3-11.9,14.4-2.3,16.7c3.1,0.7,5.9,0.9,8.9-0.3
				c5.8-2.3,8.6-9.3,3.8-14.2c-7-7-17.8-6.9-25-0.3c4.7,1.3,9.5,2.5,14.2,3.8c-1.1-3.6-1.8-4.4,1.2-6.6c2.5-1.8,6.1-4.7,8.9-5.3
				c-1.5,0-3,0-4.5,0c0,0,0.1,0,0.1,0c-1-1-2-2-3-3c1.4,1.8,1.8,4.2,3.1,6.1c2,3,4.9,4.5,8.4,4.6c3.9,0.1,7-2.7,8.2-6.2
				c0.1-0.2,0.1-0.3,0.2-0.5c1.2-3.6-0.8-7.7-3.9-9.6c-0.1-0.1-0.3-0.2-0.4-0.2c-3.3-2.1-7.5-1.2-10.3,1.3
				c-4.2,3.7-5.7,9.7-4.2,15.1c1.4,5.4,5.6,9.2,9.4,12.9c7.6,7.5,14.6,16.8,24.2,21.8c5.1,2.7,12.1,2.8,15.5-2.7
				c3-4.7,1.4-9.9-1.7-14.1c-6.5-9.1-17.1-12.5-27.8-13.7c0,5.7,0,11.3,0,17c11.7,0,23.5,0,35.2,0C103.4,54.7,103.4,37.7,92.4,37.7
				L92.4,37.7z"/>
		</g>
	</g>
	<g>
		<g>
			<path class="st1" d="M66.1,72.5c-0.2,9.8-0.2,19.6,0.1,29.5c0.2,8.4,11.4,11.6,15.8,4.3c4-6.5,7.7-13.1,11.4-19.8
				C88.2,84.3,83,82.1,77.8,80c-0.1,0.6-0.2,1.2-0.3,1.9c-0.8,4.5,1.2,9.2,5.9,10.5c4.1,1.1,9.6-1.4,10.5-5.9
				c0.1-0.6,0.2-1.2,0.3-1.9c1.6-8.9-10.7-15.6-15.5-6.5c-3.6,6.7-7.4,13.3-11.4,19.8c5.3,1.4,10.6,2.9,15.8,4.3
				c-0.3-9.8-0.3-19.6-0.1-29.5C83.4,61.6,66.4,61.6,66.1,72.5L66.1,72.5z"/>
		</g>
	</g>
	<g>
		<g>
			<path class="st1" d="M85.7,97.8c10.9,0,11-17,0-17C74.7,80.8,74.7,97.8,85.7,97.8L85.7,97.8z"/>
		</g>
	</g>
	<g>
		<g>
			<path class="st1" d="M55,87.1c-3.7,0.2-7.3-0.3-11,0c-3.1,0.2-6.4,1.4-9.5,1.2c-2.6-0.2-5-2-7.3-3.2c-3.4-1.8-6.9-3.6-10.3-5.4
				C10.1,76.1,3,82,4.4,89.3c0.3,1.5,0.8,2.8,1.2,4.2c0-1.5,0-3,0-4.5c-0.1,0.5-0.2,0.9-0.2,1.4c0.7-1.3,1.5-2.5,2.2-3.8
				c-0.2,0.2-0.5,0.5-0.7,0.7c1.3-0.7,2.5-1.5,3.8-2.2c-0.3,0.1-0.6,0.1-0.9,0.2c2.2,0.3,4.4,0.6,6.5,0.9c-0.3-0.1-0.5-0.3-0.8-0.4
				c-8.8-4.6-16.5,6-10.3,13.3c1.5,1.8,2.8,3.9,3.6,6.1c2.2,5.7,9.5,8.8,14.2,3.8c0.2-0.2,0.4-0.5,0.7-0.7c-1.3,0.7-2.5,1.5-3.8,2.2
				c1.1-0.4,5.3,0.3,7.5,0.6c4.1,0.5,8.1,1.2,12.2,1.6c7.6,0.7,15.2,0.5,22.5-1.8c10.4-3.2,6-19.6-4.5-16.4
				c-7.9,2.4-15.9,1.5-23.9,0.4c-7.2-1-17-4.2-22.8,2c4.7,1.3,9.5,2.5,14.2,3.8c-1.9-5.1-4.5-9.4-8-13.6c-3.4,4.4-6.9,8.9-10.3,13.3
				c4.4,2.3,9.2,1.9,12.7-1.8c4-4.3,2.2-8.9,1.2-13.9c-4.2,3.2-8.3,6.4-12.5,9.6c6.8,3.6,14.3,9,21.9,10.5c4.3,0.8,8.2-0.1,12.5-0.5
				c4.1-0.5,8.2,0.1,12.3-0.1C65.8,103.6,65.9,86.6,55,87.1L55,87.1z"/>
		</g>
	</g>
	<g>
		<g>
			<path class="st1" d="M48.6,105.2c-2.8,5.5-4,11.2-3.8,17.4c0.1,3,0.5,5.9,0.9,8.8c0.2,1.4,0.4,2.7,0.6,4.1
				c0.1,0.5,0.2,1.1,0.2,1.6c0,0.9,0,0.7,0.2-0.8c1-1,2-2,3-3c-0.3,0.1-0.6,0.3-0.9,0.4c-4,1.8-5.4,8.1-3,11.6
				c2.8,4.2,2.5,7.3,2.8,12.2c0.3,5.8,2.9,10.7,6.7,15c7,8,20.1,10.4,27,0.8c6.4-9,2-18-1.4-27.1c-1.8-4.8-3.2-10-3.6-15.1
				c-0.3-2.7-0.3-5.4-0.3-8c0.1-1.9-0.3-5.2,0.6-6.9c-1,1-2,2-3,3c0.3-0.2,0.7-0.4,1-0.6c9.5-5.5,0.9-20.2-8.6-14.7
				c-7.8,4.5-7.3,16.5-6.9,24.5c0.5,8.9,2.4,17.6,5.9,25.8c0.7,1.6,1.4,3.1,2,4.8c0.2,0.5,0.5,3.9,0.7,4.1c-0.4,0.6-0.3,0.6,0.2,0.1
				c0.2-0.3,0.5-0.5,0.9-0.5c-0.1-0.5-2.6-2.4-3.1-3.1c-2-3-1-7.4-1.5-10.9c-0.7-4.3-2.3-8.2-4.7-11.8c-1,3.9-2,7.8-3,11.6
				c12.9-5.9,0.7-24.7,5.8-34.6C68.3,104.1,53.6,95.4,48.6,105.2L48.6,105.2z"/>
		</g>
	</g>
	<g>
		<g>
			<path class="st1" d="M55.6,140.3c-0.9,10.3-1,21,5.1,30c6.1,9,20.9,0.5,14.7-8.6c-4.4-6.4-3.5-14-2.8-21.4
				C73.5,129.4,56.5,129.5,55.6,140.3L55.6,140.3z"/>
		</g>
	</g>
	<g>
		<g>
			<path class="st1" d="M124.6,102.7c0,0,0.1,0,0.1,0c-0.8,0.1-1.5,0.2-2.3,0.3c0.4,0,0.7,0,1,0c-0.8-0.1-1.5-0.2-2.3-0.3
				c0.4,0.1,0.7,0.1,1,0.3c1.1,0.4,2.3,0.4,3.4,0.2c1.1-0.1,2.2-0.4,3.2-1c1-0.5,1.8-1.3,2.4-2.2c0.8-0.8,1.3-1.8,1.5-2.9
				c0.1-0.8,0.2-1.5,0.3-2.3c0-1.5-0.4-3-1.2-4.3c-0.4-0.6-0.9-1.1-1.3-1.7c-1.1-1.1-2.3-1.8-3.8-2.2c-1-0.4-2.3-0.5-3.3-0.6
				c-1.1-0.1-2.3,0.2-3.4,0.3c-1.1,0.3-2.1,0.8-2.9,1.5c-0.9,0.6-1.7,1.4-2.2,2.4c-0.6,1-1,2-1,3.2c-0.3,1.1-0.2,2.3,0.2,3.4
				c0.3,0.7,0.6,1.4,0.9,2c0.8,1.3,1.8,2.3,3,3c0.7,0.3,1.4,0.6,2,0.9C121.5,103.1,123,103.1,124.6,102.7L124.6,102.7z"/>
		</g>
	</g>
	<g>
		<g>
			<path class="st1" d="M131.9,81.6c-1.7,0.1-3.4,0.1-5,0.2c1.4,5.3,2.9,10.6,4.3,15.8c3.7-1.8,7.2-0.8,11-1.6
				c3.4-0.7,6.2-3.3,9.7-3.6c4.3-0.4,7.8,0.6,11.3-2.7c1.2-1.2,2.5-4.7,4.4-4.9c-2.4-4.3-4.9-8.5-7.3-12.8c0.9-1.4,0.1-0.5-0.9,0.1
				c-1,0.6-2.4,1.5-3.2,2.3c-1.8,1.7-2.4,4-3.7,5.9c1-1,2-2,3-3c-0.4,0.2-0.7,0.4-1.1,0.6c1.4-0.4,2.9-0.8,4.3-1.2
				c-6.7,0.8-12.5,0.9-15.9,7.8c-2.6,5.3-0.2,10.5,5.1,12.5c0.4,0.1,0.8,0.3,1.1,0.4c1.5-5.5,3-10.9,4.5-16.4
				c-8.9-1.6-14.3,3.5-22.3,6c-8.5,2.6-15,7.7-13.5,17.4c5.5-1.5,10.9-3,16.4-4.5c-0.2-0.5-0.4-1-0.6-1.6c-1.7-4.3-5.7-7.2-10.5-5.9
				c-4.1,1.1-7.6,6.2-5.9,10.5c0.2,0.5,0.4,1,0.6,1.6c4.1,10.2,18,6.3,16.4-4.5c-0.1-0.4-0.1-0.8-0.2-1.1c0,1.5,0,3,0,4.5
				c-1.2,1.3-1.3,1.5-0.3,0.8c0.9-0.3,1.9-0.6,2.9-0.9c1.4-0.5,2.9-0.9,4.3-1.4c1.8-0.7,7.3-4.5,8.3-4.3c10.8,2,14.7-12.5,4.5-16.4
				c-0.4-0.1-0.8-0.3-1.1-0.4c1.7,4.2,3.4,8.3,5.1,12.5c-0.4,0.9-2.2-0.1-0.8,0.8c0.5,0.3,2.6-0.2,3.1-0.3c3.2-0.7,5.9-2.3,7.7-5.2
				c0.3-0.4,2.1-3.7,0.6-1.9c-1.4,1.7,0.9-0.2,1.5-0.5c2.3-1.4,4-3,5.5-5.3c3.2-5.1-0.9-13.5-7.3-12.8c-3.8,0.4-7.1,1.2-10.4,3.3
				c-2.5,1.7-5.1,5.4-6.1,6.5c1.3-0.7,2.5-1.5,3.8-2.2c-2.4,0.8-5.6,0-8.2,0.6c-2.9,0.7-5.5,2.8-8.3,3.5c-1.3,0.3-4.4-0.2-6.2,0.1
				c-3.5,0.5-6.6,1.7-9.7,3.3c-7.6,3.8-3.9,16.1,4.3,15.8c1.7-0.1,3.4-0.1,5-0.2C142.9,98.2,142.9,81.2,131.9,81.6L131.9,81.6z"/>
		</g>
	</g>
	<g>
		<g>
			<path class="st1" d="M118.5,103.9c10.9,0,11-17,0-17C107.5,86.9,107.5,103.9,118.5,103.9L118.5,103.9z"/>
		</g>
	</g>
	<g>
		<g>
			<path class="st1" d="M122.4,102c0.1,1.3-0.6,2.3-0.9,3.5c-0.5,1.8-0.6,3.9-0.4,5.7c0.2,3.4,2.1,6.3,2.6,9.6
				c0.3-2.2,0.6-4.4,0.9-6.5c-0.1,0.1-0.1,0.2-0.2,0.3c2.4-1.4,4.9-2.8,7.3-4.2c-0.1,0-0.2,0-0.3,0c1.4,0.4,2.9,0.8,4.3,1.2
				c0.3,0.5,0.5,1,0.8,1.4c-4.7,2.8-9.5,5.5-14.2,8.3c3.2,3.2,2.3,8.5,2,12.6c-0.8,10.9,16.2,10.9,17,0c0.6-9-0.2-18-7-24.6
				c-6.1-6-16.3,0-14.2,8.3c2,7.9,13.4,14.6,19,5.7c2.3-3.7,1-7.1-0.2-10.8c-1.3-3.7,1.2-6.5,0.8-10.5c-0.5-4.6-3.5-8.5-8.5-8.5
				C126.7,93.5,121.8,97.4,122.4,102L122.4,102z"/>
		</g>
	</g>
	<g>
		<g>
			<path class="st1" d="M124.1,140.6c0.2,7-0.1,13.9-1,20.8c-0.5,4.3,4,8,8,8c4.8,0,7.5-3.7,8-8c0.8-6.9,1.2-13.9,1-20.8
				C139.8,130.3,123.8,130.2,124.1,140.6L124.1,140.6z"/>
		</g>
	</g>
	<g>
		<g>
			<path class="st1" d="M124.2,157.7c-2.9,5.3-7.2,11.2-6.3,17.5c0.3,2.4,1.8,4.4,2.2,6.8c0.5,2.9-0.3,6-0.4,8.9
				c-0.2,12.1,10.9,22.3,22.5,23.7c-2.6-2-5.1-3.9-7.7-5.9c0.1,0.3,0.1,0.6,0.2,0.9c0-1.4,0-2.8,0-4.3c-0.1,0.3-0.2,0.6-0.3,0.9
				c0.7-1.2,1.4-2.4,2.1-3.5c-0.2,0.2-0.5,0.4-0.7,0.6c-7.9,6.6,3.5,17.9,11.3,11.3c3.2-2.7,3.6-6.3,2.9-10.2
				c-0.7-3.7-4.4-5.5-7.7-5.9c-1.6-0.2-5.5-4-6.1-5.3c-1.1-2.5,0-6.3,0-9.1c0.1-3.6-0.4-7.2-2-10.4c-1.4-2.7-0.5,0.7,0.1-1
				c0.9-2.4,2.6-4.8,3.8-7C142.9,156.7,129.1,148.6,124.2,157.7L124.2,157.7z"/>
		</g>
	</g>
	<g>
		<g>
			<path class="st1" d="M140.8,203.2c-4-5.8-8.8-9.9-14.6-13.8c1,1,1.9,1.9,2.9,2.9c-0.2-0.2-0.3-0.5-0.5-0.7c0.4,1.3,0.7,2.7,1.1,4
				c0.1-1,1.7-3.2,2.2-4.3c1.1-2.5,1.9-4.9,1.9-7.7c0.1-5.1-2.2-9.5-5.1-13.5c-2.5-3.5-7-5.2-10.9-2.9c-3.4,2-5.4,7.4-2.9,10.9
				c2.3,3.2,3.5,4.3,1.9,7.8c-1.5,3.5-3.5,6.7-3,10.7c0.5,4,3.4,5.8,6.4,7.9c2.6,1.8,4.9,4.1,6.8,6.8
				C132.8,219.7,146.7,211.7,140.8,203.2L140.8,203.2z"/>
		</g>
	</g>
	<g>
		<g>
			<path class="st1" d="M116.4,165.4c-4.8,1.5-9.7,2.2-14.7,2.4c-2.4,0.1-10.5,1.5-11.4-1.6c-2.9,2.3-5.9,4.5-8.8,6.8
				c3.1,1.8,6.2,3.5,9.4,5.3c6.7,3.8,12.8-6.6,6.1-10.4c-3.1-1.8-6.2-3.5-9.4-5.3c-4.5-2.5-10.2,1.7-8.8,6.8
				c2.1,7.5,8.9,10.5,16.2,10.6c8.2,0.2,16.8-0.6,24.6-3C126.9,174.7,123.8,163.1,116.4,165.4L116.4,165.4z"/>
		</g>
	</g>
	<g>
		<g>
			<path class="st1" d="M116.5,169.8c-8.8,0.3-16.5-2.1-25,1.5c-5.8,2.5-2.4,11.1,3,11.2c4.4,0.1,8.9,0.2,13.3,0.3
				c7.7,0.2,7.7-11.8,0-12c-4.4-0.1-8.9-0.2-13.3-0.3c1,3.7,2,7.5,3,11.2c5.6-2.4,13,0.4,18.9,0.2
				C124.2,181.6,124.2,169.6,116.5,169.8L116.5,169.8z"/>
		</g>
	</g>
	<g>
		<g>
			<path class="st1" d="M76.5,177.4c-0.1,3.7,0,7.5,0.1,11.2c0.3,6,7.9,8.1,11.2,3c2.1-3.2,2.9-6.3,3.3-10.1c-4,0-8,0-12,0
				c0.9,8.8-1.6,17.6,0.3,26.3c1.8,8.2,7.6,13.5,14.4,17.8c0.5-3.7,1-7.3,1.4-11c-2.2,0.8-4.4,2-6.7,2.4c1.9,0.5,3.9,1,5.8,1.5
				c-3-2.6-6-4.9-9.3-7.2c-3.4-2.4-4.6-5.3-4.8-9.3c-0.6-8.8,2.2-17.1-0.4-25.8c-2.2-7.4-13.8-4.2-11.6,3.2
				c3.4,11.4-3.2,23.4,3,34.5c2.9,5.2,7.9,7,12.1,10.7c2.1,1.8,3.6,4.1,6.7,4.1c2.8,0.1,5.7-1.6,8.3-2.6c4.8-1.9,6-8,1.4-11
				c-5.5-3.5-9-7.3-9.2-14.1c-0.2-6.6,1.1-13,0.5-19.6c-0.7-7.7-11.3-7.7-12,0c-0.1,1.6-0.8,2.7-1.6,4c3.7,1,7.5,2,11.2,3
				c-0.2-3.7-0.2-7.5-0.1-11.2C88.6,169.6,76.6,169.6,76.5,177.4L76.5,177.4z"/>
		</g>
	</g>
	<g>
		<g>
			<path class="st1" d="M29.5,96.6c2.8,0.3,5.5,0.8,8.6,1.5c3.1,0.8,6.5-1,7.4-4.2c0.8-3.1-1-6.6-4.2-7.4c-3.9-0.9-7.8-1.6-11.8-1.9
				c-3.2-0.3-6,3-6,6C23.5,94.1,26.3,96.3,29.5,96.6L29.5,96.6z"/>
		</g>
	</g>
	<g>
		<g>
			<path class="st1" d="M49.8,92.2c7.7,0,7.7-12,0-12C42.1,80.2,42.1,92.2,49.8,92.2L49.8,92.2z"/>
		</g>
	</g>
	<g>
		<g>
			<path class="st1" d="M119.8,78.7c-0.1,0.6-0.2,1.3-0.1,1.9c0,0.6,0.1,1.3,0.3,1.9c0.1,0.4,0.4,0.7,0.7,0.9
				c0.3,0.2,0.8,0.3,1.2,0.2c0.4-0.1,0.7-0.3,0.9-0.7c0.2-0.4,0.3-0.8,0.2-1.2c-0.1-0.3-0.1-0.6-0.2-0.9c0,0.1,0,0.3,0.1,0.4
				c-0.1-0.6-0.1-1.3,0-1.9c0,0.1,0,0.3-0.1,0.4c0,0,0-0.1,0-0.1c0.1-0.2,0.1-0.4,0-0.6c0-0.2-0.1-0.4-0.2-0.6
				c-0.2-0.3-0.5-0.6-0.9-0.7c-0.4-0.1-0.8-0.1-1.2,0.2C120.2,78,119.9,78.3,119.8,78.7L119.8,78.7z"/>
		</g>
	</g>
	<g>
		<g>
			<path class="st1" d="M125.8,67.9c0.1,0.3,0.1,0.5,0.1,0.8c0-0.1,0-0.3-0.1-0.4c0.1,0.8,0.1,1.6,0,2.4c0-0.1,0-0.3,0.1-0.4
				c0,0.1,0,0.2-0.1,0.3c0.1-0.1,0.1-0.2,0.2-0.4c0,0,0,0.1,0,0.1c0.1-0.1,0.2-0.2,0.2-0.3c0,0-0.1,0.1-0.1,0.1
				c0.1-0.1,0.2-0.2,0.3-0.2c0,0-0.1,0-0.1,0c0.1-0.1,0.2-0.1,0.4-0.2c0,0-0.1,0-0.1,0c0.1,0,0.3,0,0.4-0.1c-0.1,0-0.1,0-0.2,0
				c0.1,0,0.3,0,0.4,0.1c-0.1,0-0.2,0-0.3-0.1c0.1,0.1,0.2,0.1,0.4,0.2c-0.2-0.1-0.5-0.3-0.7-0.4c-0.6-0.2-1.2-0.4-1.8-0.2
				c-0.4,0.1-0.7,0.4-0.9,0.7c-0.2,0.3-0.3,0.8-0.2,1.2c0.1,0.4,0.3,0.7,0.7,0.9c0.3,0.2,0.8,0.3,1.2,0.2c0,0,0.1,0,0.1,0
				c-0.1,0-0.3,0-0.4,0.1c0.1,0,0.1,0,0.2,0c-0.1,0-0.3,0-0.4-0.1c0.1,0,0.2,0,0.3,0.1c-0.1-0.1-0.2-0.1-0.4-0.2
				c0.4,0.2,0.8,0.5,1.3,0.6c1.1,0.3,2.1-0.3,2.4-1.4c0.1-0.4,0.1-0.8,0.1-1.1c0-0.3,0-0.6,0-0.9c0-0.7-0.1-1.5-0.3-2.2
				c-0.1-0.4-0.4-0.7-0.7-0.9c-0.3-0.2-0.8-0.3-1.2-0.2C126,66.3,125.6,67.1,125.8,67.9L125.8,67.9z"/>
		</g>
	</g>
	<g>
		<g>
			<path class="st1" d="M130.5,68.3c-0.2-3-1-5.8-2.4-8.5c-1.3-2.5-3-4.8-4.1-7.4c-1.2-2.8-1.4-5.8-1-8.9c0.3-2.5,0.8-5.6,3.1-7.1
				c1.6-1.1,0.1-3.7-1.5-2.6c-2.4,1.6-3.6,4.2-4.1,7c-0.6,3.3-0.9,6.8-0.1,10c0.8,3,2.5,5.7,4,8.3c1.7,2.9,3,5.7,3.2,9.1
				C127.6,70.3,130.6,70.3,130.5,68.3L130.5,68.3z"/>
		</g>
	</g>
	<g>
		<g>
			<path class="st1" d="M117,1.9c-3.7-0.8-7,0.9-9.7,3.2c-1.3,1.1-2.6,2.3-3.9,3.5c-1.3,1.2-2.7,2.5-2.2,4.5
				c0.5,1.9,3.4,1.1,2.9-0.8c0-0.2,0.4-0.6,0.6-0.8c0.5-0.5,1-0.9,1.5-1.4c1.1-1,2.1-2,3.2-2.9c1.9-1.5,4.3-3,6.8-2.4
				C118.1,5.2,118.9,2.3,117,1.9L117,1.9z"/>
		</g>
	</g>
	<g>
		<g>
			<path class="st1" d="M94.4,23.8c-0.4,0-0.9,0.1-1.3,0c0.2,0-0.1,0-0.1,0c-0.1,0-0.3-0.1-0.4-0.1c-0.2,0-0.4-0.1-0.7-0.2
				c-0.8-0.2-1.7-0.5-2.5-0.6c-1.8-0.3-3.7-0.1-5.1,1.2c-0.6,0.5-0.6,1.6,0,2.1c0.6,0.6,1.5,0.6,2.1,0c0.1-0.1,0.1-0.1,0,0
				c0.1-0.1,0.1-0.1,0.2-0.1c0.1,0,0.2-0.1,0.2-0.1c-0.2,0.1-0.2,0.1,0,0c0.1,0,0.3-0.1,0.4-0.1c0.1,0,0.1,0,0.2,0c-0.2,0-0.2,0,0,0
				c0.4,0,0.7,0,1.1,0c0.3,0-0.2,0,0.2,0c0.2,0,0.4,0.1,0.5,0.1c1.7,0.4,3.4,1.1,5.2,0.9c0.8-0.1,1.5-0.6,1.5-1.5
				C95.8,24.6,95.2,23.7,94.4,23.8L94.4,23.8z"/>
		</g>
	</g>
	<g>
		<g>
			<path class="st1" d="M120.5,81.2c0.2,0.2,0.5,0.3,0.7,0.5c-0.1-0.1-0.2-0.2-0.3-0.2c0.6,0.5,1.2,1,1.6,1.6
				c-0.1-0.1-0.2-0.2-0.2-0.3c0.1,0.2,0.3,0.3,0.4,0.5c0.2,0.3,0.5,0.6,0.9,0.7c0.4,0.1,0.8,0.1,1.2-0.2c0.3-0.2,0.6-0.5,0.7-0.9
				c0.1-0.4,0.1-0.8-0.2-1.2c-0.9-1.3-2-2.4-3.3-3.2c-0.3-0.2-0.8-0.3-1.2-0.2c-0.3,0.1-0.7,0.4-0.9,0.7c-0.2,0.3-0.3,0.8-0.2,1.2
				C119.9,80.6,120.1,80.9,120.5,81.2L120.5,81.2z"/>
		</g>
	</g>
	<g>
		<g>
			<path class="st1" d="M138.1,100.4c-0.1,0.6-0.2,1.2-0.3,1.9c-0.1,0.2-0.1,0.4,0,0.6c0,0.2,0.1,0.4,0.2,0.6
				c0.1,0.2,0.2,0.3,0.4,0.4c0.1,0.1,0.3,0.2,0.5,0.3c0.4,0.1,0.8,0.1,1.2-0.2c0.3-0.2,0.6-0.5,0.7-0.9c0.1-0.6,0.2-1.2,0.3-1.9
				c0.1-0.2,0.1-0.4,0-0.6c0-0.2-0.1-0.4-0.2-0.6c-0.1-0.2-0.2-0.3-0.4-0.4c-0.1-0.1-0.3-0.2-0.5-0.3c-0.4-0.1-0.8-0.1-1.2,0.2
				C138.5,99.7,138.2,100.1,138.1,100.4L138.1,100.4z"/>
		</g>
	</g>
	<g>
		<g>
			<path class="st1" d="M106.7,93.7c-0.9,0-1.8,0-2.7,0c-0.4,0-0.8,0.2-1.1,0.4c-0.3,0.3-0.5,0.7-0.4,1.1c0,0.4,0.1,0.8,0.4,1.1
				c0.3,0.3,0.7,0.4,1.1,0.4c0.9,0,1.8,0,2.7,0c0.4,0,0.8-0.2,1.1-0.4c0.3-0.3,0.5-0.7,0.4-1.1c0-0.4-0.1-0.8-0.4-1.1
				C107.5,93.9,107.1,93.7,106.7,93.7L106.7,93.7z"/>
		</g>
	</g>
	<g>
		<g>
			<path class="st1" d="M77,108.6c0,0.5,0,1.1,0,1.6c0,0.2,0,0.4,0.1,0.6c0.1,0.2,0.2,0.3,0.3,0.5c0.1,0.1,0.3,0.2,0.5,0.3
				c0.2,0.1,0.4,0.1,0.6,0.1c0.1,0,0.3,0,0.4-0.1c0.3-0.1,0.5-0.2,0.7-0.4c0.3-0.3,0.4-0.7,0.4-1.1c0-0.5,0-1.1,0-1.6
				c0-0.2,0-0.4-0.1-0.6c-0.1-0.2-0.2-0.3-0.3-0.5c-0.1-0.1-0.3-0.2-0.5-0.3c-0.2-0.1-0.4-0.1-0.6-0.1c-0.1,0-0.3,0-0.4,0.1
				c-0.3,0.1-0.5,0.2-0.7,0.4C77.2,107.9,77,108.2,77,108.6L77,108.6z"/>
		</g>
	</g>
	<g>
		<g>
			<path class="st1" d="M89.6,181.4c0,0.6,0,1.3,0,1.9c0,0.4,0.2,0.8,0.4,1.1c0.1,0.1,0.3,0.2,0.5,0.3c0.2,0.1,0.4,0.1,0.6,0.1
				c0.4,0,0.8-0.1,1.1-0.4c0.3-0.3,0.4-0.7,0.4-1.1c0-0.6,0-1.3,0-1.9c0-0.4-0.2-0.8-0.4-1.1c-0.1-0.1-0.3-0.2-0.5-0.3
				c-0.2-0.1-0.4-0.1-0.6-0.1c-0.4,0-0.8,0.1-1.1,0.4C89.8,180.7,89.6,181,89.6,181.4L89.6,181.4z"/>
		</g>
	</g>
	<g>
		<g>
			<path class="st1" d="M118.5,183.2c-0.9-0.1-1.9-0.2-2.8-0.3c0.1,0,0.3,0,0.4,0.1c-0.1,0-0.2,0-0.3-0.1c0.1,0.1,0.2,0.1,0.4,0.2
				c-0.1,0-0.1-0.1-0.2-0.1c0.1,0.1,0.2,0.2,0.3,0.2c0,0-0.1-0.1-0.1-0.1c0.1,0.1,0.2,0.2,0.2,0.3c0,0,0,0,0-0.1
				c0.1,0.1,0.1,0.2,0.2,0.4c0,0,0-0.1,0-0.1c0,0.1,0,0.3,0.1,0.4c0,0,0-0.1,0-0.1c0,0.1,0,0.3-0.1,0.4c0,0,0-0.1,0-0.1
				c-0.1,0.1-0.1,0.2-0.2,0.4c0,0,0-0.1,0-0.1c-0.1,0.1-0.2,0.2-0.2,0.3c0,0,0,0,0,0c-0.1,0.1-0.2,0.2-0.3,0.2c0,0,0,0,0.1,0
				c-0.1,0.1-0.2,0.1-0.4,0.2c0,0,0,0,0,0c-0.1,0-0.3,0-0.4,0.1c0,0,0,0,0,0c0.2,0,0.4,0,0.6-0.1c0.2-0.1,0.3-0.2,0.5-0.3
				c0.3-0.3,0.5-0.7,0.4-1.1c0-0.4-0.1-0.8-0.4-1.1c-0.3-0.2-0.7-0.5-1.1-0.4c-0.3,0-0.6,0.1-0.9,0.2c-0.2,0.1-0.5,0.4-0.6,0.6
				c-0.2,0.5-0.3,0.9-0.2,1.4c0.2,0.8,0.9,1.4,1.7,1.5c1.1,0.2,2.2,0.2,3.2,0.3c0.4,0,0.8-0.2,1.1-0.4c0.3-0.3,0.5-0.7,0.4-1.1
				c0-0.4-0.1-0.8-0.4-1.1C119.3,183.4,118.9,183.3,118.5,183.2L118.5,183.2z"/>
		</g>
	</g>
	<g>
		<g>
			<path class="st1" d="M148,209c-0.1,0.5-0.2,1-0.4,1.5c0,0.1-0.1,0.3-0.1,0.4c0,0.1-0.2,0.4-0.1,0.2c0.1-0.2,0,0,0,0.1
				c0,0.1,0,0.1-0.1,0.2c-0.1,0.1-0.1,0.2-0.2,0.4c-0.2,0.4-0.5,0.9-0.8,1.3c-0.1,0.2,0.2-0.2,0.1-0.1c0,0-0.1,0.1-0.1,0.1
				c-0.1,0.1-0.2,0.2-0.3,0.3c-0.2,0.2-0.4,0.4-0.6,0.6c-0.6,0.5-0.6,1.6,0,2.1c0.6,0.6,1.5,0.6,2.1,0c1.7-1.6,2.9-3.8,3.3-6.1
				c0.1-0.4,0.1-0.8-0.2-1.2c-0.2-0.3-0.5-0.6-0.9-0.7C149.1,207.8,148.1,208.2,148,209L148,209z"/>
		</g>
	</g>
	<g>
		<g>
			<path class="st1" d="M103.7,219.1c-0.2-0.1-0.4-0.2-0.5-0.4c0.1,0.1,0.2,0.2,0.3,0.2c-0.5-0.4-0.9-0.8-1.3-1.3
				c0.1,0.1,0.2,0.2,0.2,0.3c-0.4-0.5-0.7-1-0.9-1.6c0.1,0.1,0.1,0.2,0.2,0.4c-0.1-0.1-0.1-0.3-0.2-0.4c-0.1-0.4-0.3-0.7-0.7-0.9
				c-0.3-0.2-0.8-0.3-1.2-0.2c-0.4,0.1-0.7,0.3-0.9,0.7c-0.2,0.3-0.3,0.8-0.2,1.2c0.7,1.9,1.9,3.5,3.7,4.7c0.7,0.4,1.7,0.2,2.1-0.5
				C104.6,220.4,104.4,219.6,103.7,219.1L103.7,219.1z"/>
		</g>
	</g>
	<g>
		<g>
			<path class="st1" d="M99.6,217.8c0.2,0.1,0.4,0.1,0.5,0.2c-0.1-0.1-0.2-0.1-0.4-0.2c0.4,0.2,0.7,0.3,1,0.6
				c-0.1-0.1-0.2-0.2-0.3-0.2c0.3,0.2,0.6,0.5,0.8,0.8c-0.1-0.1-0.2-0.2-0.2-0.3c0.1,0.2,0.3,0.4,0.4,0.6c0.2,0.3,0.5,0.6,0.9,0.7
				c0.4,0.1,0.8,0.1,1.2-0.2c0.3-0.2,0.6-0.5,0.7-0.9c0.1-0.4,0-0.8-0.2-1.2c-0.8-1.4-2.1-2.4-3.6-2.8c-0.4-0.1-0.8,0-1.2,0.2
				c-0.3,0.2-0.6,0.5-0.7,0.9c-0.1,0.4-0.1,0.8,0.2,1.2C98.9,217.5,99.2,217.7,99.6,217.8L99.6,217.8z"/>
		</g>
	</g>
	<g>
		<g>
			<path class="st1" d="M93.8,207.3c-0.4-0.6-0.8-1.2-1.2-1.9c-0.9,0.5-1.7,1-2.6,1.5c0.7,1,1.3,2,1.8,3c0.3,0.5,0.5,1,0.8,1.5
				c0.1,0.3,0.2,0.5,0.4,0.8c0,0.1,0.1,0.1,0.1,0.2c-0.1-0.2-0.1-0.2,0,0c0.1,0.1,0.1,0.3,0.2,0.4c0.1,0.4,0.3,0.7,0.7,0.9
				c0.3,0.2,0.8,0.3,1.2,0.2c0.7-0.2,1.4-1.1,1-1.8c-0.9-2.3-2.1-4.6-3.5-6.6c-0.4-0.6-1.3-1-2.1-0.5c-0.7,0.4-1,1.3-0.5,2.1
				c0.4,0.6,0.8,1.2,1.2,1.9c0.4,0.7,1.4,1,2.1,0.5C93.9,208.9,94.3,208,93.8,207.3L93.8,207.3z"/>
		</g>
	</g>
	<g>
		<g>
			<path class="st2" d="M94.4,58.9c-0.8,0.1-1.6,0.2-2.4,0.4c-0.7,0.1-1.4,0.3-2,0.5c-0.8,0.3-1.5,0.8-1.9,1.5
				c-0.5,0.9-0.4,2,0.4,2.7c0.6,0.6,1.5,0.7,2.2,0.6c0.8-0.1,1.6-0.2,2.4-0.4c1.4-0.2,3-0.4,3.8-1.7c0.6-0.9,0.3-2-0.3-2.8
				c-0.6-0.8-1.8-1-2.7-0.5c-0.6,0.4-1,1.3-0.5,2.1c0.4,0.6,1.4,1,2.1,0.5c0.1,0,0.2-0.1-0.1,0C95.2,62,95,62,94.9,62
				c0,0-0.4-0.1-0.2,0c0,0-0.4-0.2-0.2-0.1c0.1,0.1-0.2-0.1-0.2-0.1c0,0,0.1,0.1,0.1,0.1c0.1,0.1-0.1-0.2-0.1-0.2
				c0,0,0.1,0.1,0.1,0.1c-0.2-0.2-0.1-0.3-0.1-0.2c0,0.1,0,0.2,0-0.1c0-0.3,0-0.1,0-0.1c0,0,0.1-0.4,0-0.2c0,0.1,0.1-0.2,0.1-0.2
				c-0.1,0.2-0.1,0,0.1-0.1c0,0-0.1,0.1-0.1,0.1c-0.2,0.1,0.3-0.2,0.1-0.1c-0.1,0-0.1,0.1-0.2,0.1c-0.1,0.1,0.2-0.1,0.2-0.1
				c-0.1,0-0.1,0-0.2,0.1c-0.2,0.1-0.4,0.1-0.6,0.1c-0.5,0.1-1,0.2-1.5,0.2c-0.5,0.1-1,0.2-1.6,0.2c-0.3,0.1,0.3,0,0,0
				c-0.1,0-0.2,0-0.2,0c-0.1,0-0.4,0-0.1,0c0.3,0,0.1,0,0,0c-0.2-0.1,0.3,0.2,0.1,0.1c-0.1-0.1,0.2,0.1,0.2,0.1c0,0-0.1-0.1,0,0
				c0.1,0.1,0.1,0.2,0.2,0.3c0,0,0,0.4,0,0.2c0,0-0.1,0.4,0,0.2c0-0.1-0.1,0.2-0.1,0.2c0,0,0.1-0.2,0,0c-0.1,0.2,0,0,0,0
				c0.2-0.2-0.2,0.1,0,0c0.1,0,0.2-0.1,0.2-0.1c0,0,0.1,0,0.1-0.1c0.1-0.1-0.1,0.1-0.2,0.1c0.1,0,0.3-0.1,0.4-0.1
				c0.5-0.2,1.1-0.3,1.7-0.4c0.3-0.1,0.6-0.1,0.9-0.2c0.2,0,0.3-0.1,0.5-0.1c0.1,0,0.6-0.1,0.2,0c0.4-0.1,0.8-0.1,1.1-0.4
				c0.3-0.3,0.5-0.7,0.4-1.1C95.9,59.7,95.3,58.8,94.4,58.9L94.4,58.9z"/>
		</g>
	</g>
</g>
<g id="Layer_2">
	<g>
		<g>
			<path class="st3" d="M48.5,111.9c-2.5,2.6-3.9,6-4.2,9.5c-0.2,1.8,0,3.6,0.5,5.3c0.2,0.8,0.5,1.6,0.9,2.4
				c0.3,0.7,1.1,1.8,0.7,2.6c-0.4,0.6-1.3,1-1.9,1.6c-0.6,0.7-1,1.4-1.3,2.3c-0.6,1.7-0.5,3.6,0,5.2c0.6,2.1,1.7,4,2.3,6.1
				c0.7,2.1,0.9,4.2,0.7,6.4c-0.2,2.1-0.9,4.2-0.5,6.3c0.4,2.1,1.6,3.9,2.6,5.7c1.2,2.2,2.5,4.3,3.7,6.5c1,1.7,1.9,3.7,3.3,5
				c2.8,2.5,6.6,1.6,9.8,3c3,1.3,3.7,4.8,3.6,7.7c-0.2,4.1-2.2,7.9-3,11.9c-0.8,4.1-0.2,8.1,1.6,11.9c1.8,3.8,4.8,6.9,8,9.6
				c3.2,2.7,6.7,5.5,10.4,7.5c3.3,1.8,7,2.5,10.7,1.5c3.3-0.9,6.5-3,8.3-6c1.7-3,2-7.1-0.9-9.5c-1.4-1.2-3.3-1.8-4.7-2.9
				c-1.4-1.1-2.6-2.5-3.5-4c-2.1-3.4-2.8-7.4-2.9-11.4c0-2.4,0.1-4.7,0.4-7c0.1-1.2,0.3-2.3,0.4-3.5c0-0.3,0-1.1,0.3-1.3
				c0.4-0.2,1.3,0,1.7,0c4.7,0.1,9.3,0.4,14,0.3c4-0.1,8-1,11-3.7c1.3-1.2,2.3-2.7,2.9-4.4c0.6-1.8-2.3-2.6-2.9-0.8
				c-1.1,3.5-4.8,5.2-8.2,5.7c-4.3,0.6-8.9,0.1-13.3,0c-1.1,0-2.1-0.1-3.2-0.1c-1,0-2.1-0.2-3,0.1c-2,0.7-2.1,2.9-2.3,4.7
				c-0.6,4.4-1.1,8.9-0.5,13.3c0.4,3.6,1.5,7.1,3.5,10.2c0.9,1.4,2,2.7,3.3,3.8c1.4,1.2,3,1.9,4.5,2.8c3.2,1.9,1.6,5.9-0.6,8.1
				c-2.4,2.3-5.9,3.4-9.2,3c-3.9-0.5-7.2-3.4-10.2-5.6c-3.3-2.4-6.6-5-9-8.3c-2.4-3.1-4-6.9-3.8-10.9c0.2-4.1,2.2-7.9,3.1-12
				c0.6-3,0.6-6.3-0.7-9.1c-1.3-3-4-4.6-7.2-5.2c-1.6-0.3-3.4-0.3-4.9-1c-1.8-0.7-2.6-2.6-3.5-4.2c-1.2-2-2.3-4-3.5-6.1
				c-1-1.7-2.3-3.5-2.9-5.5c-0.6-2,0.2-4.1,0.4-6.1c0.2-2,0-4-0.4-5.9c-0.5-2.1-1.4-3.9-2.2-5.9c-0.6-1.6-1.2-3.5-0.6-5.2
				c0.6-1.6,2.3-2.1,3.1-3.6c0.9-1.7,0.1-3.4-0.7-5c-1.5-3-1.5-6.5-0.4-9.7c0.6-1.6,1.5-3,2.6-4.3C51.9,112.6,49.8,110.5,48.5,111.9
				L48.5,111.9z"/>
		</g>
	</g>
	<g>
		<g>
			<path class="st3" d="M111.2,182.9c0,1.4,0.7,2.4,1.7,3.3c0.7,0.7,1.6,1.3,1.4,2.4c-0.2,1-0.8,1.9-1.4,2.8
				c-0.7,1.1-1.3,2.2-1.7,3.4c-1,3,0.6,5.5,2.5,7.7c2.2,2.6,5,4.8,7.8,6.8c2.7,2,5.5,3.8,8.5,5.3c3,1.6,6.1,3.1,9.4,4
				c3,0.8,6.3,0.8,9-0.9c2.2-1.4,3.8-3.7,4.6-6.2c1.7-5.4-1.2-10.8-5.8-13.7c-1.2-0.8-2.6-1.3-3.9-1.7c-0.6-0.2-1.1-0.3-1.7-0.4
				c-0.8-0.1-1.9-0.1-2.6-0.6c-1-0.7-0.7-2.3-0.6-3.3c0.2-1.7,0.4-3.3,0.4-5c0-3.4-0.6-6.8-1.8-10c-0.5-1.5-1.4-3-1.5-4.5
				c-0.1-1.7,1.1-2.6,2.3-3.6c1-0.8,1.9-1.5,2.6-2.6c0.8-1.4,0.9-3.1,0.6-4.7c-0.2-1.5-0.7-3-1-4.5c-0.3-1.5-0.5-3.1-0.5-4.7
				c-0.5-13.6,5.9-28-0.6-40.9c-0.9-1.7-3.5-0.2-2.6,1.5c5.3,10.6,1,23.1,0.3,34.2c-0.2,2.9-0.2,5.8,0.2,8.7
				c0.2,1.4,0.5,2.7,0.8,4.1c0.4,1.5,1,3.3,0.2,4.7c-0.6,1-1.6,1.6-2.5,2.3c-1,0.8-1.9,1.8-2.4,3c-1.2,3.1,0.7,6.1,1.6,9
				c1,3.1,1.4,6.4,1.2,9.7c-0.2,2.6-1.2,5.6,0.4,8c1.6,2.4,5,1.9,7.4,2.8c2.3,0.9,4.4,2.5,5.7,4.6c2.4,4,1.1,10-3.5,11.9
				c-3.1,1.2-6.5-0.3-9.4-1.5c-2.9-1.3-5.8-2.8-8.5-4.4c-3.1-1.9-6.1-4-8.8-6.5c-1.3-1.1-2.6-2.4-3.6-3.7c-0.9-1.1-1.6-2.3-1.3-3.8
				c0.6-2.4,2.7-4.2,3.2-6.7c0.2-1.2,0-2.4-0.7-3.4c-0.5-0.8-2.3-1.9-2.3-2.8C114.2,181,111.2,181,111.2,182.9L111.2,182.9z"/>
		</g>
	</g>
	<g>
		<g>
			<path class="st3" d="M175,77.5c2.1,3.2-4.5,6.1-6,7.9c-0.6,0.7-1.1,1.5-1.5,2.4c-0.4,0.8-0.8,1.7-1.6,2.2
				c-1.4,0.8-3.2,0.7-4.7,1.1c-2,0.5-3.1,1.6-4.3,3.2c-1.2,1.6-2.9,2.1-4.8,2.4c-1.8,0.3-3.6,0.5-5.4,1.1c-1.7,0.6-3.3,1.5-4.7,2.6
				c-3.3,2.6-5.7,6.3-6.4,10.5c-0.3,1.9,2.6,2.7,2.9,0.8c0.6-3.7,2.8-7.1,5.9-9.3c1.6-1.1,3.3-1.8,5.2-2.2c1.9-0.4,3.8-0.5,5.6-1.1
				c2-0.7,3.3-1.9,4.5-3.6c1.1-1.5,2.8-1.6,4.6-1.9c1.8-0.3,3.5-0.9,4.7-2.3c0.6-0.8,1-1.7,1.5-2.6c0.5-0.9,1.1-1.6,1.9-2.2
				c1.8-1.4,3.8-2.4,5-4.4c1.1-1.8,1.5-4.1,0.3-5.9C176.6,74.3,174,75.8,175,77.5L175,77.5z"/>
		</g>
	</g>
	<g>
		<g>
			<path class="st3" d="M178.2,75.8c-1.5-4.6-5.8-8-10.6-8.8c-5.4-0.8-10.6,1.4-14.5,5c-0.7,0.6-1.7,1.9-2.7,1.8
				c-0.6-0.1-1.2-0.6-1.7-0.7c-0.6-0.2-1.3-0.2-1.9-0.1c-2.4,0.4-3.7,2.5-5.5,3.9c-2,1.4-4.5,1.6-6.8,1.7c-2.5,0.1-5,0.1-7.4,0.8
				c-2.5,0.7-4.6,2.3-6.7,3.9c-2,1.5-4.1,3.3-6.7,3.3c-1.9,0-1.9,3,0,3c4.7-0.1,7.6-3.7,11.3-6c4.1-2.6,8.9-1.6,13.5-2.4
				c2.3-0.4,4.1-1.4,5.8-3c0.8-0.7,1.6-1.7,2.6-2.1c1-0.5,1.9,0.4,2.9,0.6c2.6,0.5,4.3-1.6,6.1-3.1c1.9-1.7,4.3-2.9,6.8-3.5
				c5.1-1.2,11,1.2,12.7,6.4C175.9,78.5,178.8,77.7,178.2,75.8L178.2,75.8z"/>
		</g>
	</g>
	<g>
		<g>
			<path class="st3" d="M125.6,79.6c-0.9-2.2,0-5,2.2-6.1c1.2-0.6,2.5-0.6,3.4-1.8c1-1.3,0.7-2.9,0.6-4.5c-0.4-3.8-0.7-7.7-1.2-11.5
				c-0.2-1.5-0.5-3.1-1.3-4.4c-0.8-1.3-2.1-2.2-2.9-3.4c-1.3-2-1.4-4.6-0.7-6.8c0.8-2.5,2.5-4.1,4.9-5.1c2.9-1.2,5.5-2.2,7.2-5
				c1.5-2.3,2-5.2,1.5-7.9c-0.3-1.4-1-2.7-1.6-4c-0.6-1.3-0.8-2.6-0.9-4c-0.1-2.5,0.1-5.2-1.2-7.5c-1.5-2.7-4.3-3-7.1-3.1
				c-1.7,0-3-0.4-4.5-1.1c-1.4-0.7-2.7-1.5-4.2-2.1c-3.1-1.2-6.4-0.5-9.3,0.9c-2.8,1.4-5.9,3.3-8.2,5.6c-2.4,2.4-2.9,5.2-3,8.5
				c-0.1,2.4-0.7,6.3-4,5.3c-1.7-0.5-3.3-1.1-5.2-1c-1.7,0.1-3.3,0.4-5,0.9c-3.4,1-6.6,2.3-10.2,2.2c-1.9-0.1-3.6,0-5.4,0.7
				c-1.6,0.6-3,1.6-4.4,2.6c-2.5,1.8-6.1,4.6-9.3,2.6c0.2,0.7,0.4,1.4,0.5,2.1c1.5-3.4,1.9-7.2,0.9-10.8c-1-3.5-3.4-6.5-5.6-9.3
				c-2.1-2.5-4.7-4.8-8.1-5.2c-3-0.3-5.9,1.1-8.3,2.7c-2.6,1.8-5.1,3.8-8,5c-2.7,1.2-5.7,2.1-7.6,4.5c-1.1,1.4-1.5,3-1.8,4.7
				c-0.3,1.9-1.1,3.5-2.1,5.2c-1.9,3.4-2.1,7-1.4,10.8c0.4,2,0.9,4.1,1.6,6c0.6,1.7,1.4,3.3,3,4.2c2.8,1.7,6.6,0.7,8.3-2
				c-0.8,0.1-1.6,0.2-2.4,0.3c3.5,3.9,9,3.9,13.8,3.5c-0.5-0.6-1-1.3-1.4-1.9c-1.1,3.9-2.2,7.9-1.7,12c0.3,2,1.1,3.7,2.1,5.5
				c0.5,0.9,0,1.5-0.3,2.4c-0.2,0.6-0.3,1.3-0.2,2c0.3,2.8,2.9,4.5,4.7,6.5c0.8,0.9,1.5,1.8,1.4,3.1c-0.2,1.9-0.9,3.7,0.4,5.4
				c1.4,1.7,4.1,2.3,6,3.1c2.6,1.1,5.2,2.1,7.8,3.2c1.8,0.7,2.6-2.2,0.8-2.9c-2.1-0.8-4.1-1.7-6.2-2.5c-1-0.4-2-0.8-3-1.2
				c-0.9-0.4-2.1-0.7-2.8-1.3c-1.1-1,0.1-3.3,0-4.6c-0.1-1.3-0.7-2.4-1.4-3.4c-0.8-1-1.7-1.9-2.6-2.7c-0.7-0.7-1.7-1.5-2-2.5
				c-0.4-1.3,0.8-2.5,0.8-3.9c0-1.7-1.5-3.1-2-4.7c-1.3-4.1,0-8.6,1.2-12.5c0.3-0.9-0.5-2-1.4-1.9c-4,0.3-8.8,0.6-11.7-2.7
				c-0.7-0.8-1.9-0.5-2.4,0.3c-1.1,1.8-3.9,1.8-5.1,0.1c-0.8-1.1-1.1-2.6-1.4-3.9c-0.4-1.6-0.9-3.2-1.1-4.8C17,36,17,34.5,17.3,33.1
				c0.3-1.6,1.2-2.9,1.9-4.3c0.7-1.3,1.2-2.5,1.5-3.9c0.3-1.4,0.4-3,1.3-4.3c1.4-1.8,3.9-2.6,6-3.5c2.5-1,4.7-2.4,6.9-4
				c2-1.4,4.1-3,6.5-3.6c2.6-0.6,4.9,0.6,6.7,2.4c2.3,2.3,4.5,5.2,5.8,8.1c1.5,3.2,1.5,6.9,0,10.1c-0.3,0.8-0.2,1.6,0.5,2.1
				c2.7,1.7,5.9,1.1,8.7-0.2c2.7-1.3,4.8-3.7,7.7-4.8c1.5-0.6,3.1-0.5,4.7-0.4c1.6,0,3.2-0.2,4.8-0.6c3-0.7,5.8-2.1,8.8-2.5
				c1.4-0.2,2.8-0.1,4.1,0.3c1.5,0.5,3,1.1,4.6,0.6c2.6-0.7,4-3.4,4.4-5.8c0.2-1.5,0.2-3.1,0.3-4.7c0.2-1.7,0.9-3.1,2.1-4.4
				c1.1-1.1,2.3-1.9,3.6-2.7c1.5-1,3-2,4.7-2.6c1.5-0.6,3.1-0.9,4.6-0.7c1.5,0.3,2.9,1.1,4.3,1.9c1.2,0.7,2.5,1.3,3.9,1.6
				c1.6,0.3,3.2,0.1,4.8,0.3c2.8,0.4,3.1,2.8,3.2,5.2c0.1,2.7,0.2,5.3,1.4,7.8c1.2,2.6,2,5,0.7,7.8c-1.4,3-4.1,3.8-7,5
				c-4.8,2.1-7.3,7.3-6.4,12.5c0.2,1.3,0.8,2.6,1.5,3.7c0.9,1.4,2.4,2.4,3.1,3.9c0.8,1.8,0.7,4,0.9,6c0.2,2.1,0.4,4.2,0.6,6.3
				c0.1,0.9,0.2,1.9,0.3,2.8c0.1,1,0,1.4-1,1.8c-1.4,0.5-2.7,1-3.7,2.2c-1.9,2.1-2.7,5.2-1.6,7.9C123.5,82.2,126.4,81.4,125.6,79.6
				L125.6,79.6z"/>
		</g>
	</g>
	<g>
		<g>
			<path class="st3" d="M43.4,85.2c-4.5-0.3-9-0.8-13.4-1.7c-2-0.4-4.1-0.7-6.1-1.3c-0.8-0.2-1.6-0.6-2.3-1.1
				c-0.7-0.6-1.2-1.4-1.8-2.1c-2.5-2.6-6.2-2.4-9.4-1.6c-2.7,0.7-6.3,1.8-7,4.9c-0.4,1.7,0.8,3.2,0,4.8c-0.8,1.4-1.9,2.6-2.5,4.2
				c-1.2,3.6,0.7,7.3,2.9,10.1c1.2,1.6,2.6,3,3.6,4.7c0.8,1.3,1.5,2.8,2.5,4c1.1,1.3,2.6,2,4.2,2.1c2.2,0.1,4.5-0.2,6.8-0.2
				c9.7,0.2,19.3,4.1,28.9,1.9c1.9-0.4,1.1-3.3-0.8-2.9c-7.8,1.8-15.7-0.9-23.5-1.7c-2-0.2-3.9-0.3-5.9-0.3c-1,0-2,0-3,0.1
				c-1,0.1-2.3,0.3-3.3,0c-1.1-0.4-1.8-1.5-2.3-2.5c-0.8-1.5-1.7-2.9-2.7-4.2c-2-2.6-5-5.4-4.8-8.9c0.2-3.1,3.6-4.8,3.1-8.1
				c-0.2-1.4-0.9-2.3,0.4-3.3c1.1-0.8,2.4-1.2,3.7-1.5c1.4-0.4,2.9-0.7,4.3-0.5c1.8,0.2,2.6,1.4,3.7,2.7c2.6,3,7.5,3.4,11.2,4.1
				c4.5,0.8,8.9,1.3,13.5,1.7C45.3,88.3,45.3,85.3,43.4,85.2L43.4,85.2z"/>
		</g>
	</g>
	<g>
		<g>
			<path class="st3" d="M93.4,70.9c-0.2,2.8-0.1,6.2,2.3,8.1c1.3,1.1,3,1.4,4.7,1.5c1.4,0,2.8,0,4.1-0.4c1.6-0.5,3-1.7,3-3.5
				c0-0.8-0.7-1.5-1.5-1.5c-0.8,0-1.5,0.7-1.5,1.5c0,0.2,0,0.2,0,0c0,0.1,0,0.2-0.1,0.2c0.1-0.2,0-0.1-0.1,0.1c0.2-0.3,0,0-0.1,0.1
				c0.2-0.2-0.1,0.1-0.2,0.1c-0.1,0-0.4,0.2-0.1,0.1c-0.1,0.1-0.3,0.1-0.4,0.1c-0.3,0.1-0.6,0.2-1,0.2c0.3,0-0.1,0-0.2,0
				c-0.2,0-0.3,0-0.5,0c-0.4,0-0.8,0-1.1,0c-0.8,0-1.4,0-2.1-0.2c-0.4-0.1-0.5-0.2-0.8-0.3c-0.3-0.2-0.4-0.3-0.7-0.6
				c-0.2-0.2,0,0.1-0.1-0.2c-0.1-0.1-0.2-0.3-0.2-0.4c0-0.1-0.1-0.2-0.1-0.3c0.1,0.1,0,0.1,0-0.1c0-0.1-0.1-0.3-0.1-0.4
				c-0.2-0.7-0.2-1-0.2-1.8c0-0.8,0-1.5,0.1-2.3c0.1-0.8-0.7-1.5-1.5-1.5C94,69.4,93.4,70.1,93.4,70.9L93.4,70.9z"/>
		</g>
	</g>
	<g>
		<g>
			<path class="st3" d="M93.2,75.8c-0.1,0.3-0.1,0.2-0.2,0.5c-0.1,0.3-0.3,0.5-0.4,0.8c-0.3,0.5-0.5,0.7-0.9,1.2
				c-0.8,0.9-1.4,1.4-2.3,1.9c-0.2,0.1-0.5,0.3-0.7,0.4c-0.3,0.2-0.3,0.1-0.5,0.2c-0.5,0.2-1.1,0.4-1.6,0.5
				c-0.6,0.1-0.7,0.1-1.3,0.2c-0.3,0-0.6,0-0.9,0c-0.1,0-0.3,0-0.4,0c-0.3,0,0.1,0-0.2,0c-0.8-0.1-1.6,0.2-1.8,1
				c-0.2,0.7,0.2,1.7,1,1.8c5.6,0.9,11.2-2.3,13.2-7.6c0.3-0.8-0.3-1.6-1-1.8C94.2,74.5,93.5,75,93.2,75.8L93.2,75.8z"/>
		</g>
	</g>
	<g>
		<g>
			<path class="st3" d="M56.7,142.1c-1.1,2.4-0.6,4.9,0.6,7.2c0.6,1.2,1.3,2.3,1.7,3.6c0.4,1.4,0,2.5-0.2,3.9
				c-0.4,2.6,0.9,4.3,3,5.6c1.8,1.2,3.9,3,3.2,5.4c-0.5,1.9,2.4,2.7,2.9,0.8c0.6-2.2-0.1-4.5-1.5-6.2c-0.7-0.9-1.6-1.6-2.5-2.2
				c-0.9-0.6-2.1-1.1-2.2-2.2c-0.1-1.2,0.5-2.5,0.5-3.7c0-1.2-0.3-2.4-0.8-3.5c-0.9-2-3.1-4.8-2-7.1
				C60.1,141.9,57.5,140.3,56.7,142.1L56.7,142.1z"/>
		</g>
	</g>
	<g>
		<g>
			<path class="st3" d="M70.3,205.3c0.5,2.9,3.2,4.6,5.9,5.3c0.6,0.2,1.5,0.1,2.1,0.4c0.5,0.3,0.5,0.8,0.6,1.4
				c0.4,1.8,0.8,3.7,1.1,5.5c0.1,0.6,0.8,1.2,1.4,1.1c2-0.3,4-0.3,6-0.2c0.9,0.1,2.7,0.1,2.8,1.3c0.1,0.8,1.1,1.2,1.8,1
				c0.9-0.2,1.2-1,1-1.8c-0.3-2-2.3-3-4.1-3.3c-2.5-0.4-5.2-0.3-7.7,0c0.5,0.4,1,0.7,1.4,1.1c-0.4-1.8-0.8-3.7-1.1-5.5
				c-0.3-1.6-0.9-2.9-2.5-3.4c-1.3-0.4-2.6-0.4-3.8-1c-1.1-0.6-2-1.3-2.2-2.6C72.8,202.6,69.9,203.4,70.3,205.3L70.3,205.3z"/>
		</g>
	</g>
	<g>
		<g>
			<path class="st3" d="M119.4,198.5c0.2,1.6,1.5,2.7,2.9,3.3c1.6,0.7,3.2,0.6,4.9,0.7c0.3,0,0.7,0.1,1,0.2c0.2,0,0.4,0.1,0.6,0.2
				c-0.2-0.1,0.2,0.1,0.2,0.1c0.1,0.1,0.3,0.2,0.4,0.3c-0.2-0.2,0.1,0.1,0.1,0.1c0.1,0.1,0.2,0.2,0.3,0.3c0.2,0.2,0-0.1,0.1,0.2
				c0.4,0.6,0.5,0.8,0.6,1.6c0.1,0.4,0-0.2,0,0.2c0,0.1,0,0.3,0,0.4c0,0.1,0,0.5,0,0.2c0,0.2-0.1,0.4-0.1,0.6
				c-0.2,0.8,0.3,1.6,1,1.8c0.8,0.2,1.6-0.3,1.8-1c0.9-3.1-0.8-6.5-3.8-7.6c-0.9-0.3-1.8-0.5-2.7-0.5c-0.8,0-1.8,0-2.4-0.1
				c-0.4,0-0.7-0.2-1.1-0.3c-0.1,0-0.3-0.1-0.6-0.3c-0.1-0.1-0.2-0.1-0.2-0.2c0.1,0.1,0.1,0.1,0-0.1c0,0-0.3-0.4-0.1-0.1
				c-0.3-0.4-0.2-0.3-0.3-0.7c-0.1-0.8-1.1-1.2-1.8-1C119.6,196.9,119.3,197.7,119.4,198.5L119.4,198.5z"/>
		</g>
	</g>
	<g>
		<g>
			<path class="st3" d="M17.1,101.6c2.6-0.6,5.3,0.1,7.4,1.7c1,0.8,2,1.7,3.2,2.1c1.4,0.5,2.9,0.5,4.3,0.3c1.5-0.1,2.8-0.2,4.2,0.2
				c1.4,0.3,2.7,0.9,4,1.3c2.6,0.9,5.5,1.4,8.1,0.4c1.8-0.7,1-3.6-0.8-2.9c-2.7,1.1-5.4,0-8-0.9c-1.3-0.5-2.7-0.9-4.1-1.1
				c-1.5-0.2-2.9,0-4.4,0.1c-1.5,0.1-2.6-0.2-3.9-1.1c-1-0.8-2-1.6-3.2-2.1c-2.5-1.1-5.2-1.4-7.8-0.8C14.4,99.1,15.2,102,17.1,101.6
				L17.1,101.6z"/>
		</g>
	</g>
	<g>
		<g>
			<path class="st3" d="M44.7,62.9c-0.1,2.4,0.1,5,2.1,6.7c0.9,0.7,2,1.1,2.8,1.8c0.9,0.8,0.6,2.2,0.7,3.3c0.1,2.3,1.1,4,2.9,5.4
				c1.3,1,3.2,1.9,3.5,3.6c0.4,1.9,3.2,1.1,2.9-0.8c-0.4-1.9-1.9-3.2-3.4-4.3c-0.7-0.5-1.5-1-2.1-1.7c-0.6-0.7-0.8-1.5-0.8-2.5
				c0-1.2,0-2.5-0.5-3.7c-0.5-1.1-1.5-1.8-2.5-2.4c-0.9-0.5-1.8-0.9-2.2-2c-0.4-1.1-0.4-2.3-0.3-3.4C47.8,61,44.8,61,44.7,62.9
				L44.7,62.9z"/>
		</g>
	</g>
	<g>
		<g>
			<path class="st3" d="M108.7,96.6c-4.1-0.8-8.2-1.6-12.4-2.2c-1.9-0.3-3.7-0.4-5.4,0.4c-1.5,0.6-2.9,1.7-4.2,2.7
				c-2.5,1.9-5.1,4.1-6.3,7.1c-0.7,1.7-0.8,3.3-0.7,5.1c0.1,1.9-0.2,3.1-1.5,4.5c-1,1.2-2,2.3-2.6,3.8c-0.6,1.5-0.7,3.2-0.6,4.8
				c0.3,3.4,1.7,6.5,2.4,9.8c0.8,3.8,0,7.6,0.2,11.4c0.2,3.1,0.9,6.1,2.1,9c2.3,5.7,6.3,10.6,11.5,13.9c2.8,1.8,6,3.2,9.3,3.7
				c3.9,0.6,7.5-0.8,11.2-2.2c1.9-0.7,3.9-1.4,5.8-2.1c1.8-0.7,3.7-1.2,5.4-2.1c3.2-1.8,3.2-5.4,3.4-8.7c0.2-4.2,0.5-8.4,0.7-12.5
				c0.2-4,0.6-8.1,0.5-12.2c0-1.7-0.3-3.4-1.2-4.9c-0.9-1.4-2.2-2.5-3.1-3.8c-1.9-2.7-1.8-6.2-2-9.3c-0.1-3.2-0.5-6.6-2.3-9.3
				c-1.7-2.6-4.3-4.5-7.2-5.4c-1.4-0.4-3-0.6-4.5-0.5c-1.9,0.1-1.9,3.1,0,3c2.7-0.2,5.4,0.7,7.5,2.5c2.2,2,3.1,4.6,3.4,7.5
				c0.3,3,0.1,6,0.8,8.9c0.3,1.3,0.8,2.7,1.5,3.8c0.9,1.3,2.1,2.4,3,3.6c2,2.7,1.1,6.8,0.9,9.8c-0.2,3.8-0.4,7.5-0.6,11.3
				c-0.1,1.8-0.2,3.6-0.3,5.4c-0.1,1.8-0.1,3.6-0.4,5.4c-0.2,1.5-0.9,2.4-2.3,3c-1.8,0.8-3.6,1.3-5.4,2c-3.4,1.2-6.8,2.8-10.4,3.6
				c-3.2,0.7-6.5-0.2-9.4-1.6c-4.9-2.4-9-6.4-11.7-11.1c-1.3-2.4-2.3-5-2.8-7.7c-0.6-3.1-0.4-6.3-0.2-9.4c0.1-3.4-0.6-6.5-1.6-9.8
				c-0.8-2.7-2-5.9-0.9-8.7c0.6-1.5,1.8-2.6,2.8-3.8c1-1.3,1.6-2.8,1.6-4.5c0-1.7-0.3-3.4,0.4-5c0.6-1.5,1.7-2.7,2.9-3.8
				c1.2-1.2,2.6-2.2,3.9-3.2c1.7-1.2,3.2-1.8,5.3-1.5c4.2,0.6,8.4,1.5,12.6,2.3C109.8,99.8,110.6,96.9,108.7,96.6L108.7,96.6z"/>
		</g>
	</g>
	<g>
		<g>
			<path class="st3" d="M72.6,50c-0.1-0.2-0.2-0.4-0.3-0.5c0.4,0.8,0.1-0.6,0.1,0.7c0.2,1-0.4,1.5-1.7,1.6c-0.5,0.9-1.2,1.2-1.8,0.9
				c-0.3-0.1-0.4-0.3-0.6-0.5c0.2,0.2,0.3,0.5,0.1,0c0.1,0.2,0.2,0.5,0.2,0.7c-0.2-0.7-0.1,0.3,0-0.1c0-0.2,0-0.2,0,0
				C68.2,54,69,53.4,71,51c0.7,0.2,1.3,0.4,2,0.5c0.2,0.1,0.7,1,0.4,0.5c-0.1-0.3-0.3-0.5-0.5-0.8c0.2,0.4,0.1,0.1,0-0.1
				c-0.1-0.4-0.2-0.7-0.2-1.1c-0.3-2.1-3-3.4-4.9-2.8c-2.3,0.7-3.1,2.7-2.8,4.9c0.5,3.1,2.6,7.1,6.2,7c4.3-0.2,5.9-4.9,4.9-8.5
				c-1-3.4-4.2-6.3-7.9-5.5c-1.8,0.4-3.3,2.1-3.7,3.9c-0.3,1.8,0.2,3.5,1.1,5.1c1,1.8,3.7,2.6,5.5,1.4C73,54.3,73.7,52,72.6,50
				L72.6,50z"/>
		</g>
	</g>
	<g>
		<g>
			<path class="st3" d="M110.3,48.3c-0.2-0.9-0.5-1.7-0.7-2.6c-0.1-0.4-0.2-0.8-0.3-1.2c-0.1-0.2-0.1-0.4-0.2-0.6
				c0,0.6,0.1,0.7,0.1,0.3c-0.2,0.7-0.4,1.3-0.5,2c0-0.1,0.1-0.1,0.1-0.2c-0.5,0.5-1,1-1.4,1.4c-0.2,0.1-0.3,0.1-0.5,0.2
				c-0.7,0-1.4,0-2.1,0c-1.4-2.8-2-3.6-1.9-2.4c0,0.2,0,0.4,0,0.6c0,0.4,0,0.8,0,1.1c0,1.3-0.3,0.9,1.8-0.7c0.6-1.3,1.4-1.7,2.2-1.2
				c-0.3-0.2-0.4-0.2-0.1,0c0.5,0.3-0.2-0.2-0.3-0.3c-0.1-0.1-0.2-0.2-0.4-0.4c-0.2-0.2-0.2-0.2,0.1,0.1c0.5,1.3-0.6,3.3-2.2,3.2
				c2.1,0.2,4.1-2,4-4c-0.1-2.3-1.8-3.8-4-4c-2.4-0.2-4.6,1.6-5.3,3.8c-0.7,2-0.2,4.1,1.1,5.7c1.1,1.4,2.5,2.7,4.3,3.3
				c2.3,0.8,5-0.1,6.1-2.3c0.8-1.6,0.7-3.6,0.6-5.3c-0.2-2.8-2-5-5-5.2c-1.5-0.1-3.2,0.9-3.9,2.2c-0.7,1.2-0.8,2.5-0.5,3.8
				c0.3,1.5,0.8,3.1,1.2,4.6c0.5,2,2.9,3.5,4.9,2.8C109.6,52.6,110.8,50.5,110.3,48.3L110.3,48.3z"/>
		</g>
	</g>
	<g>
		<g>
			<path class="st4" d="M41.4,28.3c-2.5,1.6-4.9,3.8-4.8,7c0.1,3.8,4.2,7,7.8,5.3c3.1-1.4,4.9-5.9,4.4-9.2c-0.5-3.5-4.2-6.5-7.8-5.2
				c-2,0.7-3.4,2.7-2.8,4.9c0.5,2,2.9,3.5,4.9,2.8c-0.4,0.2-1.4-0.2-1.7-0.4c0.7,0.6-0.9-1-0.5-1.2c-0.1,0-0.2,0.6-0.2,0.7
				c-0.4,1.1-1.3,1.3,0.9,0.6c1.2-0.4,2.5-0.7,2.9,0.9c0.1,0.5,0.1,0.9-0.1,1.2c-0.1,0.1-0.1,0.3-0.3,0.4c0-0.1,1-0.9,0.3-0.4
				c0.3-0.2,0.6-0.4,1-0.6c1.8-1.1,2.5-3.6,1.4-5.5C45.8,27.9,43.3,27.2,41.4,28.3L41.4,28.3z"/>
		</g>
	</g>
	<g>
		<g>
			<path class="st4" d="M119.8,20.8c-0.8-0.2-1.6-0.4-2.4-0.8c0.6,0.2-0.5-0.3-0.6-0.3c-0.4-0.2-0.7-0.4-1.1-0.6
				c-1,2.4-2.1,4.9-3.1,7.3c0.2,0.1,0.5,0.1,0.7,0.2c1.1,0.4-0.3-0.2,0.2,0.1c0.5,0.3,1,0.5,1.4,0.9c-0.3-0.2-0.2-0.1,0.1,0.1
				c0.2,0.2,0.4,0.3,0.5,0.5c0.2,0.2,0.4,0.4,0.6,0.7c0.4,0.5-0.5-0.7,0.2,0.2c1.2,1.7,3.6,2.7,5.5,1.4c1.7-1.1,2.7-3.6,1.4-5.5
				c-2.1-3-5-5.2-8.6-6.3c-4.4-1.3-7,5-3.1,7.3c1.9,1.1,3.9,1.9,6,2.5c2,0.5,4.4-0.7,4.9-2.8C123.1,23.6,122,21.3,119.8,20.8
				L119.8,20.8z"/>
		</g>
	</g>
	<g>
		<g>
			<path class="st3" d="M46.1,24.9c-1.8,0.2-3.5-0.7-5.4-0.4c-1.7,0.3-3.1,1.4-4.1,2.8c-1,1.5-1.4,3.3-1.7,5
				c-0.3,1.9-0.6,3.8,0.1,5.6c0.6,1.6,1.9,3.3,3.3,4.3c1.4,1,3.3,1.2,4.9,0.9c3.4-0.7,5.3-3.7,5.7-7c0.5-3.3,1-7.8-1.7-10.4
				c-1.4-1.3-3.5,0.8-2.1,2.1c1.6,1.5,1.2,4.3,1.1,6.3c-0.2,2.2-0.6,4.9-2.8,5.8c-0.9,0.4-2,0.4-2.9,0c-1-0.4-1.8-1.6-2.3-2.5
				c-0.7-1.2-0.6-2.6-0.4-4c0.2-1.3,0.4-2.8,1.1-4c0.5-1,1.4-2,2.6-2.1c0.7-0.1,1.5,0.2,2.2,0.3c0.8,0.2,1.6,0.3,2.5,0.2
				c0.8-0.1,1.5-0.6,1.5-1.5C47.6,25.6,46.9,24.8,46.1,24.9L46.1,24.9z"/>
		</g>
	</g>
	<g>
		<g>
			<path class="st3" d="M124.7,23.2c-0.3-1.8-1.9-3-3.3-3.9c-1.7-1.1-3.5-2.1-5.5-2.6c-3.7-0.9-7.9,0.6-8.8,4.6
				c-0.8,3.5,0.9,7.3,4.4,8.4c0.8,0.3,1.7,0.4,2.5,0.8c0.8,0.4,1.6,1,2.3,1.5c1.7,1.1,3.7,2,5.6,1c1.8-1,2.7-3.2,3.2-5
				c0.6-2.2,0.1-4.8-2-5.9c-1.7-0.9-3.2,1.7-1.5,2.6c1.1,0.6,0.8,2.1,0.5,3.1c-0.3,0.9-0.7,2.2-1.6,2.7c-1,0.5-2.4-0.8-3.2-1.3
				c-1.2-0.8-2.4-1.5-3.8-1.9c-1.1-0.3-2.1-0.5-2.8-1.5c-0.6-0.8-0.9-1.9-0.8-2.9c0.2-2.5,2.4-3.6,4.7-3.2c1.7,0.3,3.2,1.1,4.6,2
				c1,0.6,2.4,1.2,2.6,2.5c0.1,0.8,1.1,1.2,1.8,1C124.5,24.8,124.8,24,124.7,23.2L124.7,23.2z"/>
		</g>
	</g>
</g>
</svg>
