<?xml version="1.0" encoding="UTF-8"?>
<svg xmlns="http://www.w3.org/2000/svg" viewBox="0 0 180 464.8">
  <defs>
    <style>
      .cls-1 {
        fill: #90c7e0;
        stroke: #3e8fbd;
        stroke-miterlimit: 10;
      }

      .cls-2 {
        fill: #3e8fbd;
      }

      .cls-2, .cls-3, .cls-4, .cls-5, .cls-6, .cls-7, .cls-8, .cls-9, .cls-10, .cls-11 {
        stroke-width: 0px;
      }

      .cls-3 {
        fill: #cca15c;
      }

      .cls-4 {
        fill: #c6b19e;
      }

      .cls-5 {
        fill: #beaca6;
      }

      .cls-6 {
        fill: #a6716d;
      }

      .cls-7 {
        fill: #b0eeff;
      }

      .cls-8 {
        fill: #92524d;
      }

      .cls-9 {
        fill: #8c7864;
      }

      .cls-10 {
        fill: #8ac6de;
      }

      .cls-11 {
        fill: #6b3d3d;
      }
    </style>
  </defs>
  <g id="Layer_1" data-name="Layer 1">
    <path class="cls-1" d="m90.83,194.12c9.12,14.96,9.11,43.47,4.11,59.99-.49,1.72-1.15,3.36-1.67,5.09-.5,1.75-.81,3.66-1.58,5.33-1.3,2.98-2.87,5.94-4.84,8.58-2.59,4.05-8.55,4.58-11.83,1.05-2.93-3.03-2.77-8.09.35-10.81,1.02-.77,2.04-1.58,3.01-2.43,2.26-2.02,4.51-4.07,6.8-6.13,2.94-3.57,5.14-7.76,6.52-12.19,2.34-9.22,2.93-19.15,1.91-28.59-.74-6.19-2.21-12.58-5.54-17.9-1.36-1.84,1.39-3.89,2.75-2h0Z"/>
    <path class="cls-1" d="m72.95,190.73c-20.66,9.38-34.07,27.56-25.58,50.38.59,1.92,1.61,3.89,2.49,5.68.59.89,1.76,3.1,2.44,3.89.46.6,1.37,1.81,1.82,2.41,1,1.05,1.98,2.34,3.21,3.14,2.41,1.64,4.87,3.22,7.42,4.59,2.22,1.14,4.73,2.27,7.07,2.78,4.01,1.27,6.23,5.55,4.95,9.56-1.27,4.01-5.55,6.23-9.56,4.95-3.3-1.29-6.06-3.29-8.77-5.47-1.44-1.26-2.84-2.6-4.12-4.02-2.62-2.74-4.22-6.2-6.15-9.38-2.81-4.56-4.62-9.68-6.06-14.79-.23-1.09-.87-3.97-1.12-5.09-.42-2.84-.88-5.71-1.01-8.6-.79-14.79,8.15-28.18,19.96-36.35,3.68-2.67,7.51-4.92,11.75-6.83.86-.39,1.86,0,2.25.85.41.9-.05,1.96-.97,2.3h0Z"/>
    <g>
      <g id="Layer_4" data-name="Layer 4">
        <path class="cls-5" d="m115.1,357.83c1-3.8,1-7.7-.8-11.3-.9-1.8-2.1-3.3-3.5-4.7-.8-.7-1.6-1.4-2.4-2.1-.8-1.4-1.1-1.5-1-.3,1.3-2.5.8-6.1-2-7.5-8.5-4.2-17.9-4.8-22.6,5-2,4.2-3.2,9.1-4.4,13.6-.7,2.7-1.3,5.2-.8,8,.3,2.4,1.5,4.4,2,6.7,1.2,5.2-.2,10.7.6,15.9.6,4.2,2.4,8,5.3,11.1,5.8,6.5,14.5,8.7,22.8,7.4,6.1-.9,4.7-11.4-1.5-10.8-1.9.2-3.8.4-5.8.5.5,3.6,1,7.2,1.5,10.8,6.6-1.7,18.4-2.4,21.1-10,1.2-3.4.8-7.3.8-10.9,0-4,.2-8.1,0-12.2-.4-7.8-4.7-14.4-6.1-22.1-1.2-6.4-3.9-15.3-12.4-13.1-6.8,1.8-3.9,12.4,2.9,10.6-2.2.6-2.9-2.2-2,1.4.3,1.1.5,2.1.7,3.2.4,2.4.8,4.8,1.5,7.2,1.6,5.3,4.4,9.4,4.4,15.1v8c0,2.3.6,5.7-.1,7.9-.5,1.8,1.1-.4-.2.6-.9.7-3.1.8-4.3,1.1-3.1.8-6.2,1.6-9.3,2.4-5.8,1.5-4.9,11.4,1.5,10.8,1.9-.2,3.8-.4,5.8-.5-.5-3.6-1-7.2-1.5-10.8-4.5.7-9.7-1.3-12.5-5-3.6-4.7-1.6-11.4-2-16.9-.2-2.8-.8-5.3-1.7-7.9-1.2-3.3-.1-5.9.8-9.2.7-2.5,1.3-5.3,2.3-7.7,1.7-3.8,4.2-2.7,7.5-1-.7-2.5-1.3-5-2-7.5-1.8,3.6-1.8,7.3.4,10.8,2.2,3.6,7.4,5.3,6.1,10.1-1.6,7.2,9,10.1,10.9,3.3h0Z"/>
        <path class="cls-5" d="m90.9,338.43c1.4,14.6-15,52,11,52.4,4.5.1,8.6-.8,11.6-4.4,3.1-3.7,5-9.6,5.8-14.3.9-5.7-2.5-9.4-4.8-14.3-2.3-5.1-5.8-8.3-10.3-11.6-3.4-2.5-8.5.8-8.3,4.7.5,9.5-.3,18.7-2.6,27.9-1,4.2,2.6,7.7,6.8,6.8,7.8-1.8,13-9.6,10.7-17.6-2.3-8.1-12.2-12.5-18.8-16.4.9,1.6,1.8,3.2,2.7,4.7v-.8c-.5,1.3-1.1,2.6-1.6,3.9.2-.2.4-.3.6-.5-1.3.5-2.6,1.1-3.9,1.6.3,0,.5.1.8.1,7,.9,6.9-10.1,0-11-4.1-.5-6.7,3-6.9,6.7-.1,1.9,1.1,3.8,2.7,4.7,3.7,2.2,7.5,4.3,10.9,6.9,2.8,2.1,4.6,5.9-.1,7.1l6.8,6.8c2.5-10.1,3.5-20.5,3-30.9-2.8,1.6-5.5,3.2-8.3,4.7,2.8,2.1,4.8,4,6.2,7.2,1.2,2.8,3.9,5.6,3.4,8.6-.5,2.5-1.7,7.4-4.3,8.1-2.2.7-4.8.3-5.5-1.8-.9-2.4-.2-6.5,0-9,.2-3.8.9-7.6,1.6-11.4,1.2-6.4,2.5-12.7,1.9-19.2-.7-6.6-11.7-6.7-11.1.3h0Z"/>
        <path class="cls-5" d="m119.9,368.63c7.1,0,7.1-11,0-11-7.1,0-7.1,11,0,11h0Z"/>
      </g>
      <g id="Layer_3" data-name="Layer 3">
        <path class="cls-6" d="m113.7,309.63c.1-4.9,0-9.7-.1-14.6-.3-7.4-9.1-11.2-14.5-6-7.8,7.5-8.3,19.8-9.3,29.9,4.8-2,9.7-4,14.5-6-2.2-1.9-3.8-3.8-5.2-6.4-5.3-9.6-20-1-14.7,8.6,2,3.7,4.7,7.1,7.9,9.9,5.8,5.1,13.8,1.4,14.5-6,.5-5.2.3-14,4.3-17.9-4.8-2-9.7-4-14.5-6,.2,4.9.2,9.7.1,14.6-.2,10.8,16.8,10.8,17-.1h0Z"/>
        <path class="cls-6" d="m95.7,292.83c-6.7,6.1-11.3,14-13.3,22.8-1.8,7.6,8.5,15.2,14.2,8.3.8-.9.7-.9-.3.1-1.4.4-2.9.8-4.3,1.2h.3c-1.4-.4-2.9-.8-4.3-1.2.3.1-3.8-5.3-2.8-3.4.7,1.3-.2-1.3,0-.6.2,1,.1,2,.4,3,2.4,9.7,16.1,7,16.7-2.3.5-8.1,1.7-16.4.8-24.5-.7-7.1-5-12.9-13.1-11.2-10.8,2.3-12.3,13.7-9.2,22.4,2.6,7.3,11.1,7.9,15.5,2,7.1-9.5,10.9-20.5,12.3-32.3-4.3,2.4-8.5,4.9-12.8,7.3,2.9,1.6,5.7,3.2,8.6,4.9,5.9,3.3,12.4-1,12.8-7.3.3-4.4.4-8.9,1-13.3-.4,1.4-.8,2.9-1.2,4.3.2-.4.4-.9.6-1.3l-3,3c.3-.2.5-.4.8-.6-1.4.4-2.9.8-4.3,1.2.3,0,.6-.1.9-.1-1.4-.4-2.9-.8-4.3-1.2.3.2.5.3.8.5,4.5,2.7,11.3.3,12.5-5.1.9-4.4,1.5-8.9-.6-13.1-.5-1.1-1-1.9-1.8-2.9-.7-.8-2.1-3.1-1.5-.5.9,4.2-.1.2.6.6-.3-.1,1.5-.6.3-.4-2.7-2.1-5.5-4.2-8.2-6.2,2,10.9,16.2,14.6,23.4,6.3,7.2-8.3-3.8-19.3-12-12-8,7.1-4.4,18.2,3.7,23.1-1.3-1.7-2.6-3.4-3.9-5.1.1.3.2.7.3,1,.3-2.2.6-4.4.9-6.5-.2.3-.3.7-.5,1l3-3c-.4.3-5.5.7-6.8,1.4-2,1-3.9,2.3-5.5,4-3.9,4.1-5.6,9.5-6.4,15-1.4,9.7-1.3,20.5,8.1,26.2,3.4,2,7.5,1.2,10.3-1.3,4.2-3.8,4.2-9,2.1-13.8-3.7-8.3-15.5-3.4-15.8,4.3-.1,2.1.3,4,1,6,.3.7.6,1.4.9,2,.3,1.1.5.6.6-1.5.1.1-4.9,6.1-4.9,6.2-2,3.1-2.9,6.5-3.1,10.2-.1,3.2,1,6.7.2,9.9,2.7-2.1,5.5-4.2,8.2-6.2h0c1.3.7,2.5,1.5,3.8,2.2-2.7-2.1-4.3-6.2-6-9.2-2.1-3.8-4.1-7.7-5.9-11.6-3.7-7.7-16.1-3.8-15.8,4.3.3,7.2,2.3,14.2,2.6,21.4.4,10.9,16.9,11,17,0,.2-19-5.9-38,.5-56.5,3-8.6-8.3-13.4-14.2-8.3-1.8,1.5-5.3,1.2-7.5,1.3-3.4.1-6.7.4-10,.9-7.6,1-15.1,2.2-21.5,6.8-3.7,2.7-5.5,7.4-3,11.6,2.2,3.7,7.9,5.7,11.6,3,12.7-9.1,30.3-1,42.5-11.5-4.7-2.8-9.5-5.5-14.2-8.3-7,20.3-.8,40.3-1.1,61h17c-.3-7.2-2.3-14.2-2.6-21.4-5.3,1.4-10.6,2.9-15.8,4.3,2.8,5.9,5.8,11.7,9.2,17.3,3.1,5.2,7.1,10.3,13.7,9.8,3.7-.3,7.2-2.5,8.2-6.2,1-3.9.8-7.4.5-11.4-.2-3.7.3-4,2.5-6.7,2.4-2.8,4.3-5.6,4.8-9.4.3-2,.1-3.9-.4-5.8-.4-1.3-1.5-2.7-1.4-4-5.3,1.4-10.6,2.9-15.8,4.3.1.3.3.6.4.9-.4-1.4-.8-2.9-1.2-4.3v1c.4-1.4.8-2.9,1.2-4.3q.1-.1.2-.2c3.4-.4,6.9-.9,10.3-1.3-1.3-.8-.3-6.3-.2-7.5.3-2.3.8-4.4,1.7-6.5.7-1.7,1-1,2.3-1.1,5.6-.3,10.5-3.5,11.4-9.3.4-2.8-.6-6.1-2.6-8.1-.6-.4-1.1-.9-1.7-1.3-1.5-1.1-1.7-1.1-.6.2.1,1,1.7,2.3.3,3.5l-12-12c2.2-.1,2.3-.3.5-.4,1.4.4,2.9.8,4.3,1.2-1.6-.8-1.6-.6.2.5-.6-3.3-4.8-6.6-8.2-6.2-7.7.9-14.6,5.1-16.8,13-1,3.6-1,7.5.7,10.9.7,1.3,2.4,2.5,2.9,3.7-.3-.6.2-.7-.2,1.2,4.2-1.7,8.3-3.4,12.5-5.1-5.1-3.1-11.5-1.3-14.4,3.9-2.8,5-2,12.6-2.4,18.2,4.3-2.4,8.5-4.9,12.8-7.3-2.9-1.6-5.7-3.2-8.6-4.9-6.1-3.4-12.1,1.1-12.8,7.3-1,8.8-4.7,16.7-10,23.7,5.2.7,10.4,1.4,15.5,2-.4-1-.7-2-1-3-.1-2.1-1-1.4-2.8,2-1.4-.4-2.9-.8-4.3-1.2-1.1-1.3-2.1-2.6-3.2-4,0,.2.1.3.1.5.3.1.1,1,0-.3.1,1.3.1,2.6.1,3.9,0,2.9-.1,5.8-.3,8.7-.2,3.7-.5,7.4-.7,11.1,5.6-.8,11.1-1.5,16.7-2.3,1.1,4.6,0-.8-.2-1.9-.5-2.1-1.3-4-2.8-5.5-4-4.2-10.7-3.5-14.3.8,4.7,2.8,9.5,5.5,14.2,8.3,1.5-6.1,4.3-11,9-15.3,7.5-7.8-4.6-19.8-12.6-12.4h0Z"/>
        <path class="cls-6" d="m92.4,270.43h-35.2c-11.2,0-10.6,15.8,0,17,2.9.3,6,1.1,8.7,2.4,1.2.6,2.4,1.2,3.4,2.1,1.1.9,2,3.5,2,1.3.4-1.4.8-2.9,1.2-4.3-.2.3-.3.5-.5.8,1.7-1.3,3.4-2.6,5.1-3.9,3,.9,3.5.7,1.3-.4-.9-.6-1.8-1.2-2.6-1.8-1.1-.9-2.2-1.8-3.2-2.7-2.6-2.4-5-4.9-7.4-7.4s-4.8-5.1-7.3-7.5c-1.1-1-2.1-2.2-3.2-3.2-1.7-1.5.4-.8-.8.3-3.4.4-6.9.9-10.3,1.3.1.1.3.2.4.2-1.3-3.2-2.6-6.4-3.9-9.6-.1.2-.1.3-.2.5,2.7-2.1,5.5-4.2,8.2-6.2h-.6c1.4.4,2.9.8,4.3,1.2-.2-.1-.3-.2-.5-.4l3,3c-2.9-4.1-3.3-8.9-9-10.6-5.8-1.7-10.5,1.5-15.2,4.5-4.5,2.8-9.3,5.7-12,10.4-3.2,5.5-2.3,11.8-.6,17.6,1.9,6.3,9.4,8.1,14.2,3.8.4-.4.7.1,1,.3,1.3-4.7,2.5-9.5,3.8-14.2,0,.1.1.2.1.3-.8,5.6-1.5,11.1-2.3,16.7,2.1-.1,7.9-.7,9.6.3l-3-3c.2.4.3.7.5,1.1-.4-1.4-.8-2.9-1.2-4.3.4,8.2-.3,16.6-.5,24.8,5.6-.8,11.1-1.5,16.7-2.3-.6-4.5-1.2-9-1.9-13.6-1.3-9.4-17.5-7.3-16.7,2.3.9,10.1,4.9,18.9,8.2,28.3,3.2,9.1,3,19,7.2,27.8,3.8,7.9,15.7,3.7,15.8-4.3.2-14.7.4-29.5.6-44.2h-17c.8,11.9,2.2,23.8,4.1,35.6.7,4.5,6.4,7.1,10.5,5.9,4.8-1.3,6.7-5.9,5.9-10.5-1.6-10.3-2.7-20.7-3.5-31.1-.8-10.8-16.8-11.1-17,0-.2,14.7-.4,29.5-.6,44.2,5.3-1.4,10.6-2.9,15.8-4.3-1.7-3.6-1.9-7.9-2.5-11.8-.6-4.1-1.6-8-3-11.9-2.7-7.8-6.9-15.5-7.6-23.8-5.6.8-11.1,1.5-16.7,2.3.6,4.5,1.2,9,1.9,13.6,1.3,9.7,16.5,7,16.7-2.3.1-4.6.2-9.2.3-13.7.1-4.6,1-9.9-.6-14.3-3-8.6-14.7-8-22.1-7.8-9.3.3-11.9,14.4-2.3,16.7,3.1.7,5.9.9,8.9-.3,5.8-2.3,8.6-9.3,3.8-14.2-7-7-17.8-6.9-25-.3,4.7,1.3,9.5,2.5,14.2,3.8-1.1-3.6-1.8-4.4,1.2-6.6,2.5-1.8,6.1-4.7,8.9-5.3h-4.5.1l-3-3c1.4,1.8,1.8,4.2,3.1,6.1,2,3,4.9,4.5,8.4,4.6,3.9.1,7-2.7,8.2-6.2.1-.2.1-.3.2-.5,1.2-3.6-.8-7.7-3.9-9.6-.1-.1-.3-.2-.4-.2-3.3-2.1-7.5-1.2-10.3,1.3-4.2,3.7-5.7,9.7-4.2,15.1,1.4,5.4,5.6,9.2,9.4,12.9,7.6,7.5,14.6,16.8,24.2,21.8,5.1,2.7,12.1,2.8,15.5-2.7,3-4.7,1.4-9.9-1.7-14.1-6.5-9.1-17.1-12.5-27.8-13.7v17h35.2c11-.1,11-17.1,0-17.1h0Z"/>
        <path class="cls-6" d="m66.1,305.23c-.2,9.8-.2,19.6.1,29.5.2,8.4,11.4,11.6,15.8,4.3,4-6.5,7.7-13.1,11.4-19.8-5.2-2.2-10.4-4.4-15.6-6.5-.1.6-.2,1.2-.3,1.9-.8,4.5,1.2,9.2,5.9,10.5,4.1,1.1,9.6-1.4,10.5-5.9.1-.6.2-1.2.3-1.9,1.6-8.9-10.7-15.6-15.5-6.5-3.6,6.7-7.4,13.3-11.4,19.8,5.3,1.4,10.6,2.9,15.8,4.3-.3-9.8-.3-19.6-.1-29.5.4-11.1-16.6-11.1-16.9-.2h0Z"/>
        <path class="cls-6" d="m85.7,330.53c10.9,0,11-17,0-17s-11,17,0,17h0Z"/>
        <path class="cls-6" d="m55,319.83c-3.7.2-7.3-.3-11,0-3.1.2-6.4,1.4-9.5,1.2-2.6-.2-5-2-7.3-3.2-3.4-1.8-6.9-3.6-10.3-5.4-6.8-3.6-13.9,2.3-12.5,9.6.3,1.5.8,2.8,1.2,4.2v-4.5c-.1.5-.2.9-.2,1.4.7-1.3,1.5-2.5,2.2-3.8-.2.2-.5.5-.7.7,1.3-.7,2.5-1.5,3.8-2.2-.3.1-.6.1-.9.2,2.2.3,4.4.6,6.5.9-.3-.1-.5-.3-.8-.4-8.8-4.6-16.5,6-10.3,13.3,1.5,1.8,2.8,3.9,3.6,6.1,2.2,5.7,9.5,8.8,14.2,3.8.2-.2.4-.5.7-.7-1.3.7-2.5,1.5-3.8,2.2,1.1-.4,5.3.3,7.5.6,4.1.5,8.1,1.2,12.2,1.6,7.6.7,15.2.5,22.5-1.8,10.4-3.2,6-19.6-4.5-16.4-7.9,2.4-15.9,1.5-23.9.4-7.2-1-17-4.2-22.8,2,4.7,1.3,9.5,2.5,14.2,3.8-1.9-5.1-4.5-9.4-8-13.6-3.4,4.4-6.9,8.9-10.3,13.3,4.4,2.3,9.2,1.9,12.7-1.8,4-4.3,2.2-8.9,1.2-13.9-4.2,3.2-8.3,6.4-12.5,9.6,6.8,3.6,14.3,9,21.9,10.5,4.3.8,8.2-.1,12.5-.5,4.1-.5,8.2.1,12.3-.1,10.9-.6,11-17.6.1-17.1h0Z"/>
        <path class="cls-6" d="m48.6,337.93c-2.8,5.5-4,11.2-3.8,17.4.1,3,.5,5.9.9,8.8.2,1.4.4,2.7.6,4.1.1.5.2,1.1.2,1.6,0,.9,0,.7.2-.8l3-3c-.3.1-.6.3-.9.4-4,1.8-5.4,8.1-3,11.6,2.8,4.2,2.5,7.3,2.8,12.2.3,5.8,2.9,10.7,6.7,15,7,8,20.1,10.4,27,.8,6.4-9,2-18-1.4-27.1-1.8-4.8-3.2-10-3.6-15.1-.3-2.7-.3-5.4-.3-8,.1-1.9-.3-5.2.6-6.9l-3,3c.3-.2.7-.4,1-.6,9.5-5.5.9-20.2-8.6-14.7-7.8,4.5-7.3,16.5-6.9,24.5.5,8.9,2.4,17.6,5.9,25.8.7,1.6,1.4,3.1,2,4.8.2.5.5,3.9.7,4.1-.4.6-.3.6.2.1.2-.3.5-.5.9-.5-.1-.5-2.6-2.4-3.1-3.1-2-3-1-7.4-1.5-10.9-.7-4.3-2.3-8.2-4.7-11.8-1,3.9-2,7.8-3,11.6,12.9-5.9.7-24.7,5.8-34.6,5-9.8-9.7-18.5-14.7-8.7h0Z"/>
        <path class="cls-6" d="m55.6,373.03c-.9,10.3-1,21,5.1,30s20.9.5,14.7-8.6c-4.4-6.4-3.5-14-2.8-21.4.9-10.9-16.1-10.8-17,0h0Z"/>
        <path class="cls-6" d="m124.6,335.43h.1c-.8.1-1.5.2-2.3.3h1c-.8-.1-1.5-.2-2.3-.3.4.1.7.1,1,.3,1.1.4,2.3.4,3.4.2,1.1-.1,2.2-.4,3.2-1,1-.5,1.8-1.3,2.4-2.2.8-.8,1.3-1.8,1.5-2.9.1-.8.2-1.5.3-2.3,0-1.5-.4-3-1.2-4.3-.4-.6-.9-1.1-1.3-1.7-1.1-1.1-2.3-1.8-3.8-2.2-1-.4-2.3-.5-3.3-.6-1.1-.1-2.3.2-3.4.3-1.1.3-2.1.8-2.9,1.5-.9.6-1.7,1.4-2.2,2.4-.6,1-1,2-1,3.2-.3,1.1-.2,2.3.2,3.4.3.7.6,1.4.9,2,.8,1.3,1.8,2.3,3,3,.7.3,1.4.6,2,.9,1.6.4,3.1.4,4.7,0h0Z"/>
        <path class="cls-6" d="m131.9,314.33c-1.7.1-3.4.1-5,.2,1.4,5.3,2.9,10.6,4.3,15.8,3.7-1.8,7.2-.8,11-1.6,3.4-.7,6.2-3.3,9.7-3.6,4.3-.4,7.8.6,11.3-2.7,1.2-1.2,2.5-4.7,4.4-4.9-2.4-4.3-4.9-8.5-7.3-12.8.9-1.4.1-.5-.9.1s-2.4,1.5-3.2,2.3c-1.8,1.7-2.4,4-3.7,5.9l3-3c-.4.2-.7.4-1.1.6,1.4-.4,2.9-.8,4.3-1.2-6.7.8-12.5.9-15.9,7.8-2.6,5.3-.2,10.5,5.1,12.5.4.1.8.3,1.1.4,1.5-5.5,3-10.9,4.5-16.4-8.9-1.6-14.3,3.5-22.3,6-8.5,2.6-15,7.7-13.5,17.4,5.5-1.5,10.9-3,16.4-4.5-.2-.5-.4-1-.6-1.6-1.7-4.3-5.7-7.2-10.5-5.9-4.1,1.1-7.6,6.2-5.9,10.5.2.5.4,1,.6,1.6,4.1,10.2,18,6.3,16.4-4.5-.1-.4-.1-.8-.2-1.1v4.5c-1.2,1.3-1.3,1.5-.3.8.9-.3,1.9-.6,2.9-.9,1.4-.5,2.9-.9,4.3-1.4,1.8-.7,7.3-4.5,8.3-4.3,10.8,2,14.7-12.5,4.5-16.4-.4-.1-.8-.3-1.1-.4,1.7,4.2,3.4,8.3,5.1,12.5-.4.9-2.2-.1-.8.8.5.3,2.6-.2,3.1-.3,3.2-.7,5.9-2.3,7.7-5.2.3-.4,2.1-3.7.6-1.9-1.4,1.7.9-.2,1.5-.5,2.3-1.4,4-3,5.5-5.3,3.2-5.1-.9-13.5-7.3-12.8-3.8.4-7.1,1.2-10.4,3.3-2.5,1.7-5.1,5.4-6.1,6.5,1.3-.7,2.5-1.5,3.8-2.2-2.4.8-5.6,0-8.2.6-2.9.7-5.5,2.8-8.3,3.5-1.3.3-4.4-.2-6.2.1-3.5.5-6.6,1.7-9.7,3.3-7.6,3.8-3.9,16.1,4.3,15.8,1.7-.1,3.4-.1,5-.2,10.8-.6,10.8-17.6-.2-17.2h0Z"/>
        <path class="cls-6" d="m118.5,336.63c10.9,0,11-17,0-17s-11,17,0,17h0Z"/>
        <path class="cls-6" d="m122.4,334.73c.1,1.3-.6,2.3-.9,3.5-.5,1.8-.6,3.9-.4,5.7.2,3.4,2.1,6.3,2.6,9.6.3-2.2.6-4.4.9-6.5-.1.1-.1.2-.2.3,2.4-1.4,4.9-2.8,7.3-4.2h-.3c1.4.4,2.9.8,4.3,1.2.3.5.5,1,.8,1.4-4.7,2.8-9.5,5.5-14.2,8.3,3.2,3.2,2.3,8.5,2,12.6-.8,10.9,16.2,10.9,17,0,.6-9-.2-18-7-24.6-6.1-6-16.3,0-14.2,8.3,2,7.9,13.4,14.6,19,5.7,2.3-3.7,1-7.1-.2-10.8-1.3-3.7,1.2-6.5.8-10.5-.5-4.6-3.5-8.5-8.5-8.5-4.5,0-9.4,3.9-8.8,8.5h0Z"/>
        <path class="cls-6" d="m124.1,373.33c.2,7-.1,13.9-1,20.8-.5,4.3,4,8,8,8,4.8,0,7.5-3.7,8-8,.8-6.9,1.2-13.9,1-20.8-.3-10.3-16.3-10.4-16,0h0Z"/>
        <path class="cls-6" d="m124.2,390.43c-2.9,5.3-7.2,11.2-6.3,17.5.3,2.4,1.8,4.4,2.2,6.8.5,2.9-.3,6-.4,8.9-.2,12.1,10.9,22.3,22.5,23.7-2.6-2-5.1-3.9-7.7-5.9.1.3.1.6.2.9v-4.3c-.1.3-.2.6-.3.9.7-1.2,1.4-2.4,2.1-3.5-.2.2-.5.4-.7.6-7.9,6.6,3.5,17.9,11.3,11.3,3.2-2.7,3.6-6.3,2.9-10.2-.7-3.7-4.4-5.5-7.7-5.9-1.6-.2-5.5-4-6.1-5.3-1.1-2.5,0-6.3,0-9.1.1-3.6-.4-7.2-2-10.4-1.4-2.7-.5.7.1-1,.9-2.4,2.6-4.8,3.8-7,4.8-9-9-17.1-13.9-8h0Z"/>
        <path class="cls-6" d="m140.8,435.93c-4-5.8-8.8-9.9-14.6-13.8,1,1,1.9,1.9,2.9,2.9-.2-.2-.3-.5-.5-.7.4,1.3.7,2.7,1.1,4,.1-1,1.7-3.2,2.2-4.3,1.1-2.5,1.9-4.9,1.9-7.7.1-5.1-2.2-9.5-5.1-13.5-2.5-3.5-7-5.2-10.9-2.9-3.4,2-5.4,7.4-2.9,10.9,2.3,3.2,3.5,4.3,1.9,7.8-1.5,3.5-3.5,6.7-3,10.7s3.4,5.8,6.4,7.9c2.6,1.8,4.9,4.1,6.8,6.8,5.8,8.4,19.7.4,13.8-8.1h0Z"/>
        <path class="cls-6" d="m116.4,398.13c-4.8,1.5-9.7,2.2-14.7,2.4-2.4.1-10.5,1.5-11.4-1.6-2.9,2.3-5.9,4.5-8.8,6.8,3.1,1.8,6.2,3.5,9.4,5.3,6.7,3.8,12.8-6.6,6.1-10.4-3.1-1.8-6.2-3.5-9.4-5.3-4.5-2.5-10.2,1.7-8.8,6.8,2.1,7.5,8.9,10.5,16.2,10.6,8.2.2,16.8-.6,24.6-3,7.3-2.3,4.2-13.9-3.2-11.6h0Z"/>
        <path class="cls-6" d="m116.5,402.53c-8.8.3-16.5-2.1-25,1.5-5.8,2.5-2.4,11.1,3,11.2,4.4.1,8.9.2,13.3.3,7.7.2,7.7-11.8,0-12-4.4-.1-8.9-.2-13.3-.3,1,3.7,2,7.5,3,11.2,5.6-2.4,13,.4,18.9.2,7.8-.3,7.8-12.3.1-12.1h0Z"/>
        <path class="cls-6" d="m76.5,410.13c-.1,3.7,0,7.5.1,11.2.3,6,7.9,8.1,11.2,3,2.1-3.2,2.9-6.3,3.3-10.1h-12c.9,8.8-1.6,17.6.3,26.3,1.8,8.2,7.6,13.5,14.4,17.8.5-3.7,1-7.3,1.4-11-2.2.8-4.4,2-6.7,2.4,1.9.5,3.9,1,5.8,1.5-3-2.6-6-4.9-9.3-7.2-3.4-2.4-4.6-5.3-4.8-9.3-.6-8.8,2.2-17.1-.4-25.8-2.2-7.4-13.8-4.2-11.6,3.2,3.4,11.4-3.2,23.4,3,34.5,2.9,5.2,7.9,7,12.1,10.7,2.1,1.8,3.6,4.1,6.7,4.1,2.8.1,5.7-1.6,8.3-2.6,4.8-1.9,6-8,1.4-11-5.5-3.5-9-7.3-9.2-14.1-.2-6.6,1.1-13,.5-19.6-.7-7.7-11.3-7.7-12,0-.1,1.6-.8,2.7-1.6,4,3.7,1,7.5,2,11.2,3-.2-3.7-.2-7.5-.1-11.2.1-7.6-11.9-7.6-12,.2h0Z"/>
        <path class="cls-6" d="m29.5,329.33c2.8.3,5.5.8,8.6,1.5,3.1.8,6.5-1,7.4-4.2.8-3.1-1-6.6-4.2-7.4-3.9-.9-7.8-1.6-11.8-1.9-3.2-.3-6,3-6,6,0,3.5,2.8,5.7,6,6h0Z"/>
        <path class="cls-6" d="m49.8,324.93c7.7,0,7.7-12,0-12s-7.7,12,0,12h0Z"/>
        <path class="cls-6" d="m119.8,311.43c-.1.6-.2,1.3-.1,1.9,0,.6.1,1.3.3,1.9.1.4.4.7.7.9.3.2.8.3,1.2.2.4-.1.7-.3.9-.7.2-.4.3-.8.2-1.2-.1-.3-.1-.6-.2-.9,0,.1,0,.3.1.4-.1-.6-.1-1.3,0-1.9,0,.1,0,.3-.1.4v-.1c.1-.2.1-.4,0-.6,0-.2-.1-.4-.2-.6-.2-.3-.5-.6-.9-.7s-.8-.1-1.2.2c-.3.1-.6.4-.7.8h0Z"/>
        <path class="cls-6" d="m125.8,300.63c.1.3.1.5.1.8,0-.1,0-.3-.1-.4.1.8.1,1.6,0,2.4,0-.1,0-.3.1-.4,0,.1,0,.2-.1.3.1-.1.1-.2.2-.4v.1c.1-.1.2-.2.2-.3l-.1.1c.1-.1.2-.2.3-.2h-.1c.1-.1.2-.1.4-.2h-.1c.1,0,.3,0,.4-.1h-.2c.1,0,.3,0,.4.1-.1,0-.2,0-.3-.1.1.1.2.1.4.2-.2-.1-.5-.3-.7-.4-.6-.2-1.2-.4-1.8-.2-.4.1-.7.4-.9.7-.2.3-.3.8-.2,1.2.1.4.3.7.7.9.3.2.8.3,1.2.2h.1c-.1,0-.3,0-.4.1h.2c-.1,0-.3,0-.4-.1.1,0,.2,0,.3.1-.1-.1-.2-.1-.4-.2.4.2.8.5,1.3.6,1.1.3,2.1-.3,2.4-1.4.1-.4.1-.8.1-1.1v-.9c0-.7-.1-1.5-.3-2.2-.1-.4-.4-.7-.7-.9-.3-.2-.8-.3-1.2-.2-.6.3-1,1.1-.8,1.9h0Z"/>
        <path class="cls-6" d="m130.5,301.03c-.2-3-1-5.8-2.4-8.5-1.3-2.5-3-4.8-4.1-7.4-1.2-2.8-1.4-5.8-1-8.9.3-2.5.8-5.6,3.1-7.1,1.6-1.1.1-3.7-1.5-2.6-2.4,1.6-3.6,4.2-4.1,7-.6,3.3-.9,6.8-.1,10,.8,3,2.5,5.7,4,8.3,1.7,2.9,3,5.7,3.2,9.1,0,2.1,3,2.1,2.9.1h0Z"/>
        <path class="cls-6" d="m117,234.63c-3.7-.8-7,.9-9.7,3.2-1.3,1.1-2.6,2.3-3.9,3.5-1.3,1.2-2.7,2.5-2.2,4.5.5,1.9,3.4,1.1,2.9-.8,0-.2.4-.6.6-.8.5-.5,1-.9,1.5-1.4,1.1-1,2.1-2,3.2-2.9,1.9-1.5,4.3-3,6.8-2.4,1.9.4,2.7-2.5.8-2.9h0Z"/>
        <path class="cls-6" d="m94.4,256.53c-.4,0-.9.1-1.3,0,.2,0-.1,0-.1,0-.1,0-.3-.1-.4-.1-.2,0-.4-.1-.7-.2-.8-.2-1.7-.5-2.5-.6-1.8-.3-3.7-.1-5.1,1.2-.6.5-.6,1.6,0,2.1.6.6,1.5.6,2.1,0q.1-.1,0,0,.1-.1.2-.1c.1,0,.2-.1.2-.1q-.2.1,0,0c.1,0,.3-.1.4-.1h.2q-.2,0,0,0h1.1c.3,0-.2,0,.2,0,.2,0,.4.1.5.1,1.7.4,3.4,1.1,5.2.9.8-.1,1.5-.6,1.5-1.5-.1-.8-.7-1.7-1.5-1.6h0Z"/>
        <path class="cls-6" d="m120.5,313.93c.2.2.5.3.7.5-.1-.1-.2-.2-.3-.2.6.5,1.2,1,1.6,1.6-.1-.1-.2-.2-.2-.3.1.2.3.3.4.5.2.3.5.6.9.7s.8.1,1.2-.2c.3-.2.6-.5.7-.9s.1-.8-.2-1.2c-.9-1.3-2-2.4-3.3-3.2-.3-.2-.8-.3-1.2-.2-.3.1-.7.4-.9.7-.2.3-.3.8-.2,1.2.2.4.4.7.8,1h0Z"/>
        <path class="cls-6" d="m138.1,333.13c-.1.6-.2,1.2-.3,1.9-.1.2-.1.4,0,.6,0,.2.1.4.2.6.1.2.2.3.4.4.1.1.3.2.5.3.4.1.8.1,1.2-.2.3-.2.6-.5.7-.9.1-.6.2-1.2.3-1.9.1-.2.1-.4,0-.6,0-.2-.1-.4-.2-.6-.1-.2-.2-.3-.4-.4-.1-.1-.3-.2-.5-.3-.4-.1-.8-.1-1.2.2-.3.2-.6.6-.7.9h0Z"/>
        <path class="cls-6" d="m106.7,326.43h-2.7c-.4,0-.8.2-1.1.4-.3.3-.5.7-.4,1.1,0,.4.1.8.4,1.1.3.3.7.4,1.1.4h2.7c.4,0,.8-.2,1.1-.4.3-.3.5-.7.4-1.1,0-.4-.1-.8-.4-1.1-.3-.2-.7-.4-1.1-.4h0Z"/>
        <path class="cls-6" d="m77,341.33v1.6c0,.2,0,.4.1.6s.2.3.3.5c.1.1.3.2.5.3.2.1.4.1.6.1.1,0,.3,0,.4-.1.3-.1.5-.2.7-.4.3-.3.4-.7.4-1.1v-1.6c0-.2,0-.4-.1-.6s-.2-.3-.3-.5c-.1-.1-.3-.2-.5-.3-.2-.1-.4-.1-.6-.1-.1,0-.3,0-.4.1-.3.1-.5.2-.7.4-.2.4-.4.7-.4,1.1h0Z"/>
        <path class="cls-6" d="m89.6,414.13v1.9c0,.4.2.8.4,1.1.1.1.3.2.5.3s.4.1.6.1c.4,0,.8-.1,1.1-.4.3-.3.4-.7.4-1.1v-1.9c0-.4-.2-.8-.4-1.1-.1-.1-.3-.2-.5-.3s-.4-.1-.6-.1c-.4,0-.8.1-1.1.4-.2.4-.4.7-.4,1.1h0Z"/>
        <path class="cls-6" d="m118.5,415.93c-.9-.1-1.9-.2-2.8-.3.1,0,.3,0,.4.1-.1,0-.2,0-.3-.1.1.1.2.1.4.2-.1,0-.1-.1-.2-.1.1.1.2.2.3.2l-.1-.1c.1.1.2.2.2.3v-.1c.1.1.1.2.2.4v-.1c0,.1,0,.3.1.4v-.1c0,.1,0,.3-.1.4v-.1c-.1.1-.1.2-.2.4v-.1c-.1.1-.2.2-.2.3h0c-.1.1-.2.2-.3.2h.1c-.1.1-.2.1-.4.2h0c-.1,0-.3,0-.4.1h0c.2,0,.4,0,.6-.1s.3-.2.5-.3c.3-.3.5-.7.4-1.1,0-.4-.1-.8-.4-1.1-.3-.2-.7-.5-1.1-.4-.3,0-.6.1-.9.2-.2.1-.5.4-.6.6-.2.5-.3.9-.2,1.4.2.8.9,1.4,1.7,1.5,1.1.2,2.2.2,3.2.3.4,0,.8-.2,1.1-.4.3-.3.5-.7.4-1.1,0-.4-.1-.8-.4-1.1-.2-.3-.6-.4-1-.5h0Z"/>
        <path class="cls-6" d="m148,441.73c-.1.5-.2,1-.4,1.5,0,.1-.1.3-.1.4s-.2.4-.1.2c.1-.2,0,0,0,.1s0,.1-.1.2c-.1.1-.1.2-.2.4-.2.4-.5.9-.8,1.3-.1.2.2-.2.1-.1l-.1.1-.3.3-.6.6c-.6.5-.6,1.6,0,2.1.6.6,1.5.6,2.1,0,1.7-1.6,2.9-3.8,3.3-6.1.1-.4.1-.8-.2-1.2-.2-.3-.5-.6-.9-.7-.6-.3-1.6.1-1.7.9h0Z"/>
        <path class="cls-6" d="m103.7,451.83c-.2-.1-.4-.2-.5-.4.1.1.2.2.3.2-.5-.4-.9-.8-1.3-1.3.1.1.2.2.2.3-.4-.5-.7-1-.9-1.6.1.1.1.2.2.4-.1-.1-.1-.3-.2-.4-.1-.4-.3-.7-.7-.9-.3-.2-.8-.3-1.2-.2-.4.1-.7.3-.9.7-.2.3-.3.8-.2,1.2.7,1.9,1.9,3.5,3.7,4.7.7.4,1.7.2,2.1-.5.3-.9.1-1.7-.6-2.2h0Z"/>
        <path class="cls-6" d="m99.6,450.53c.2.1.4.1.5.2-.1-.1-.2-.1-.4-.2.4.2.7.3,1,.6-.1-.1-.2-.2-.3-.2.3.2.6.5.8.8-.1-.1-.2-.2-.2-.3.1.2.3.4.4.6.2.3.5.6.9.7.4.1.8.1,1.2-.2.3-.2.6-.5.7-.9s0-.8-.2-1.2c-.8-1.4-2.1-2.4-3.6-2.8-.4-.1-.8,0-1.2.2-.3.2-.6.5-.7.9s-.1.8.2,1.2c.2.3.5.5.9.6h0Z"/>
        <path class="cls-6" d="m93.8,440.03c-.4-.6-.8-1.2-1.2-1.9-.9.5-1.7,1-2.6,1.5.7,1,1.3,2,1.8,3,.3.5.5,1,.8,1.5.1.3.2.5.4.8,0,.1.1.1.1.2q-.1-.2,0,0c.1.1.1.3.2.4.1.4.3.7.7.9.3.2.8.3,1.2.2.7-.2,1.4-1.1,1-1.8-.9-2.3-2.1-4.6-3.5-6.6-.4-.6-1.3-1-2.1-.5-.7.4-1,1.3-.5,2.1.4.6.8,1.2,1.2,1.9.4.7,1.4,1,2.1.5.5-.6.9-1.5.4-2.2h0Z"/>
        <path class="cls-3" d="m94.4,291.63c-.8.1-1.6.2-2.4.4-.7.1-1.4.3-2,.5-.8.3-1.5.8-1.9,1.5-.5.9-.4,2,.4,2.7.6.6,1.5.7,2.2.6.8-.1,1.6-.2,2.4-.4,1.4-.2,3-.4,3.8-1.7.6-.9.3-2-.3-2.8-.6-.8-1.8-1-2.7-.5-.6.4-1,1.3-.5,2.1.4.6,1.4,1,2.1.5.1,0,.2-.1-.1,0-.2.2-.4.2-.5.2,0,0-.4-.1-.2,0,0,0-.4-.2-.2-.1.1.1-.2-.1-.2-.1l.1.1c.1.1-.1-.2-.1-.2l.1.1c-.2-.2-.1-.3-.1-.2s0,.2,0-.1,0-.1,0-.1c0,0,.1-.4,0-.2,0,.1.1-.2.1-.2-.1.2-.1,0,.1-.1l-.1.1c-.2.1.3-.2.1-.1-.1,0-.1.1-.2.1-.1.1.2-.1.2-.1q-.1,0-.2.1c-.2.1-.4.1-.6.1-.5.1-1,.2-1.5.2-.5.1-1,.2-1.6.2-.3.1.3,0,0,0h-.2c-.1,0-.4,0-.1,0s.1,0,0,0c-.2-.1.3.2.1.1-.1-.1.2.1.2.1,0,0-.1-.1,0,0s.1.2.2.3c0,0,0,.4,0,.2,0,0-.1.4,0,.2,0-.1-.1.2-.1.2,0,0,.1-.2,0,0s0,0,0,0c.2-.2-.2.1,0,0,.1,0,.2-.1.2-.1,0,0,.1,0,.1-.1.1-.1-.1.1-.2.1.1,0,.3-.1.4-.1.5-.2,1.1-.3,1.7-.4.3-.1.6-.1.9-.2.2,0,.3-.1.5-.1.1,0,.6-.1.2,0,.4-.1.8-.1,1.1-.4.3-.3.5-.7.4-1.1-.1-.5-.7-1.4-1.6-1.3h0Z"/>
      </g>
      <g id="Layer_2" data-name="Layer 2">
        <path class="cls-11" d="m48.5,344.63c-2.5,2.6-3.9,6-4.2,9.5-.2,1.8,0,3.6.5,5.3.2.8.5,1.6.9,2.4.3.7,1.1,1.8.7,2.6-.4.6-1.3,1-1.9,1.6-.6.7-1,1.4-1.3,2.3-.6,1.7-.5,3.6,0,5.2.6,2.1,1.7,4,2.3,6.1.7,2.1.9,4.2.7,6.4-.2,2.1-.9,4.2-.5,6.3s1.6,3.9,2.6,5.7c1.2,2.2,2.5,4.3,3.7,6.5,1,1.7,1.9,3.7,3.3,5,2.8,2.5,6.6,1.6,9.8,3,3,1.3,3.7,4.8,3.6,7.7-.2,4.1-2.2,7.9-3,11.9-.8,4.1-.2,8.1,1.6,11.9,1.8,3.8,4.8,6.9,8,9.6,3.2,2.7,6.7,5.5,10.4,7.5,3.3,1.8,7,2.5,10.7,1.5,3.3-.9,6.5-3,8.3-6,1.7-3,2-7.1-.9-9.5-1.4-1.2-3.3-1.8-4.7-2.9-1.4-1.1-2.6-2.5-3.5-4-2.1-3.4-2.8-7.4-2.9-11.4,0-2.4.1-4.7.4-7,.1-1.2.3-2.3.4-3.5,0-.3,0-1.1.3-1.3.4-.2,1.3,0,1.7,0,4.7.1,9.3.4,14,.3,4-.1,8-1,11-3.7,1.3-1.2,2.3-2.7,2.9-4.4.6-1.8-2.3-2.6-2.9-.8-1.1,3.5-4.8,5.2-8.2,5.7-4.3.6-8.9.1-13.3,0-1.1,0-2.1-.1-3.2-.1-1,0-2.1-.2-3,.1-2,.7-2.1,2.9-2.3,4.7-.6,4.4-1.1,8.9-.5,13.3.4,3.6,1.5,7.1,3.5,10.2.9,1.4,2,2.7,3.3,3.8,1.4,1.2,3,1.9,4.5,2.8,3.2,1.9,1.6,5.9-.6,8.1-2.4,2.3-5.9,3.4-9.2,3-3.9-.5-7.2-3.4-10.2-5.6-3.3-2.4-6.6-5-9-8.3-2.4-3.1-4-6.9-3.8-10.9.2-4.1,2.2-7.9,3.1-12,.6-3,.6-6.3-.7-9.1-1.3-3-4-4.6-7.2-5.2-1.6-.3-3.4-.3-4.9-1-1.8-.7-2.6-2.6-3.5-4.2-1.2-2-2.3-4-3.5-6.1-1-1.7-2.3-3.5-2.9-5.5-.6-2,.2-4.1.4-6.1s0-4-.4-5.9c-.5-2.1-1.4-3.9-2.2-5.9-.6-1.6-1.2-3.5-.6-5.2.6-1.6,2.3-2.1,3.1-3.6.9-1.7.1-3.4-.7-5-1.5-3-1.5-6.5-.4-9.7.6-1.6,1.5-3,2.6-4.3,1.2-1.1-.9-3.2-2.2-1.8h0Z"/>
        <path class="cls-11" d="m111.2,415.63c0,1.4.7,2.4,1.7,3.3.7.7,1.6,1.3,1.4,2.4-.2,1-.8,1.9-1.4,2.8-.7,1.1-1.3,2.2-1.7,3.4-1,3,.6,5.5,2.5,7.7,2.2,2.6,5,4.8,7.8,6.8,2.7,2,5.5,3.8,8.5,5.3,3,1.6,6.1,3.1,9.4,4,3,.8,6.3.8,9-.9,2.2-1.4,3.8-3.7,4.6-6.2,1.7-5.4-1.2-10.8-5.8-13.7-1.2-.8-2.6-1.3-3.9-1.7-.6-.2-1.1-.3-1.7-.4-.8-.1-1.9-.1-2.6-.6-1-.7-.7-2.3-.6-3.3.2-1.7.4-3.3.4-5,0-3.4-.6-6.8-1.8-10-.5-1.5-1.4-3-1.5-4.5-.1-1.7,1.1-2.6,2.3-3.6,1-.8,1.9-1.5,2.6-2.6.8-1.4.9-3.1.6-4.7-.2-1.5-.7-3-1-4.5s-.5-3.1-.5-4.7c-.5-13.6,5.9-28-.6-40.9-.9-1.7-3.5-.2-2.6,1.5,5.3,10.6,1,23.1.3,34.2-.2,2.9-.2,5.8.2,8.7.2,1.4.5,2.7.8,4.1.4,1.5,1,3.3.2,4.7-.6,1-1.6,1.6-2.5,2.3-1,.8-1.9,1.8-2.4,3-1.2,3.1.7,6.1,1.6,9,1,3.1,1.4,6.4,1.2,9.7-.2,2.6-1.2,5.6.4,8,1.6,2.4,5,1.9,7.4,2.8,2.3.9,4.4,2.5,5.7,4.6,2.4,4,1.1,10-3.5,11.9-3.1,1.2-6.5-.3-9.4-1.5-2.9-1.3-5.8-2.8-8.5-4.4-3.1-1.9-6.1-4-8.8-6.5-1.3-1.1-2.6-2.4-3.6-3.7-.9-1.1-1.6-2.3-1.3-3.8.6-2.4,2.7-4.2,3.2-6.7.2-1.2,0-2.4-.7-3.4-.5-.8-2.3-1.9-2.3-2.8-.1-2-3.1-2-3.1-.1h0Z"/>
        <path class="cls-11" d="m175,310.23c2.1,3.2-4.5,6.1-6,7.9-.6.7-1.1,1.5-1.5,2.4-.4.8-.8,1.7-1.6,2.2-1.4.8-3.2.7-4.7,1.1-2,.5-3.1,1.6-4.3,3.2s-2.9,2.1-4.8,2.4c-1.8.3-3.6.5-5.4,1.1-1.7.6-3.3,1.5-4.7,2.6-3.3,2.6-5.7,6.3-6.4,10.5-.3,1.9,2.6,2.7,2.9.8.6-3.7,2.8-7.1,5.9-9.3,1.6-1.1,3.3-1.8,5.2-2.2,1.9-.4,3.8-.5,5.6-1.1,2-.7,3.3-1.9,4.5-3.6,1.1-1.5,2.8-1.6,4.6-1.9s3.5-.9,4.7-2.3c.6-.8,1-1.7,1.5-2.6s1.1-1.6,1.9-2.2c1.8-1.4,3.8-2.4,5-4.4,1.1-1.8,1.5-4.1.3-5.9-1.1-1.9-3.7-.4-2.7,1.3h0Z"/>
        <path class="cls-11" d="m178.2,308.53c-1.5-4.6-5.8-8-10.6-8.8-5.4-.8-10.6,1.4-14.5,5-.7.6-1.7,1.9-2.7,1.8-.6-.1-1.2-.6-1.7-.7-.6-.2-1.3-.2-1.9-.1-2.4.4-3.7,2.5-5.5,3.9-2,1.4-4.5,1.6-6.8,1.7-2.5.1-5,.1-7.4.8-2.5.7-4.6,2.3-6.7,3.9-2,1.5-4.1,3.3-6.7,3.3-1.9,0-1.9,3,0,3,4.7-.1,7.6-3.7,11.3-6,4.1-2.6,8.9-1.6,13.5-2.4,2.3-.4,4.1-1.4,5.8-3,.8-.7,1.6-1.7,2.6-2.1,1-.5,1.9.4,2.9.6,2.6.5,4.3-1.6,6.1-3.1,1.9-1.7,4.3-2.9,6.8-3.5,5.1-1.2,11,1.2,12.7,6.4.5,2,3.4,1.2,2.8-.7h0Z"/>
        <path class="cls-11" d="m125.6,312.33c-.9-2.2,0-5,2.2-6.1,1.2-.6,2.5-.6,3.4-1.8,1-1.3.7-2.9.6-4.5-.4-3.8-.7-7.7-1.2-11.5-.2-1.5-.5-3.1-1.3-4.4-.8-1.3-2.1-2.2-2.9-3.4-1.3-2-1.4-4.6-.7-6.8.8-2.5,2.5-4.1,4.9-5.1,2.9-1.2,5.5-2.2,7.2-5,1.5-2.3,2-5.2,1.5-7.9-.3-1.4-1-2.7-1.6-4s-.8-2.6-.9-4c-.1-2.5.1-5.2-1.2-7.5-1.5-2.7-4.3-3-7.1-3.1-1.7,0-3-.4-4.5-1.1-1.4-.7-2.7-1.5-4.2-2.1-3.1-1.2-6.4-.5-9.3.9-2.8,1.4-5.9,3.3-8.2,5.6-2.4,2.4-2.9,5.2-3,8.5-.1,2.4-.7,6.3-4,5.3-1.7-.5-3.3-1.1-5.2-1-1.7.1-3.3.4-5,.9-3.4,1-6.6,2.3-10.2,2.2-1.9-.1-3.6,0-5.4.7-1.6.6-3,1.6-4.4,2.6-2.5,1.8-6.1,4.6-9.3,2.6.2.7.4,1.4.5,2.1,1.5-3.4,1.9-7.2.9-10.8-1-3.5-3.4-6.5-5.6-9.3-2.1-2.5-4.7-4.8-8.1-5.2-3-.3-5.9,1.1-8.3,2.7-2.6,1.8-5.1,3.8-8,5-2.7,1.2-5.7,2.1-7.6,4.5-1.1,1.4-1.5,3-1.8,4.7-.3,1.9-1.1,3.5-2.1,5.2-1.9,3.4-2.1,7-1.4,10.8.4,2,.9,4.1,1.6,6,.6,1.7,1.4,3.3,3,4.2,2.8,1.7,6.6.7,8.3-2-.8.1-1.6.2-2.4.3,3.5,3.9,9,3.9,13.8,3.5-.5-.6-1-1.3-1.4-1.9-1.1,3.9-2.2,7.9-1.7,12,.3,2,1.1,3.7,2.1,5.5.5.9,0,1.5-.3,2.4-.2.6-.3,1.3-.2,2,.3,2.8,2.9,4.5,4.7,6.5.8.9,1.5,1.8,1.4,3.1-.2,1.9-.9,3.7.4,5.4,1.4,1.7,4.1,2.3,6,3.1,2.6,1.1,5.2,2.1,7.8,3.2,1.8.7,2.6-2.2.8-2.9-2.1-.8-4.1-1.7-6.2-2.5-1-.4-2-.8-3-1.2-.9-.4-2.1-.7-2.8-1.3-1.1-1,.1-3.3,0-4.6-.1-1.3-.7-2.4-1.4-3.4-.8-1-1.7-1.9-2.6-2.7-.7-.7-1.7-1.5-2-2.5-.4-1.3.8-2.5.8-3.9,0-1.7-1.5-3.1-2-4.7-1.3-4.1,0-8.6,1.2-12.5.3-.9-.5-2-1.4-1.9-4,.3-8.8.6-11.7-2.7-.7-.8-1.9-.5-2.4.3-1.1,1.8-3.9,1.8-5.1.1-.8-1.1-1.1-2.6-1.4-3.9-.4-1.6-.9-3.2-1.1-4.8-.1-1.5-.1-3,.2-4.4.3-1.6,1.2-2.9,1.9-4.3.7-1.3,1.2-2.5,1.5-3.9s.4-3,1.3-4.3c1.4-1.8,3.9-2.6,6-3.5,2.5-1,4.7-2.4,6.9-4,2-1.4,4.1-3,6.5-3.6,2.6-.6,4.9.6,6.7,2.4,2.3,2.3,4.5,5.2,5.8,8.1,1.5,3.2,1.5,6.9,0,10.1-.3.8-.2,1.6.5,2.1,2.7,1.7,5.9,1.1,8.7-.2,2.7-1.3,4.8-3.7,7.7-4.8,1.5-.6,3.1-.5,4.7-.4,1.6,0,3.2-.2,4.8-.6,3-.7,5.8-2.1,8.8-2.5,1.4-.2,2.8-.1,4.1.3,1.5.5,3,1.1,4.6.6,2.6-.7,4-3.4,4.4-5.8.2-1.5.2-3.1.3-4.7.2-1.7.9-3.1,2.1-4.4,1.1-1.1,2.3-1.9,3.6-2.7,1.5-1,3-2,4.7-2.6,1.5-.6,3.1-.9,4.6-.7,1.5.3,2.9,1.1,4.3,1.9,1.2.7,2.5,1.3,3.9,1.6,1.6.3,3.2.1,4.8.3,2.8.4,3.1,2.8,3.2,5.2.1,2.7.2,5.3,1.4,7.8,1.2,2.6,2,5,.7,7.8-1.4,3-4.1,3.8-7,5-4.8,2.1-7.3,7.3-6.4,12.5.2,1.3.8,2.6,1.5,3.7.9,1.4,2.4,2.4,3.1,3.9.8,1.8.7,4,.9,6,.2,2.1.4,4.2.6,6.3.1.9.2,1.9.3,2.8.1,1,0,1.4-1,1.8-1.4.5-2.7,1-3.7,2.2-1.9,2.1-2.7,5.2-1.6,7.9,1,1.8,3.9,1,3.1-.8h0Z"/>
        <path class="cls-11" d="m43.4,317.93c-4.5-.3-9-.8-13.4-1.7-2-.4-4.1-.7-6.1-1.3-.8-.2-1.6-.6-2.3-1.1-.7-.6-1.2-1.4-1.8-2.1-2.5-2.6-6.2-2.4-9.4-1.6-2.7.7-6.3,1.8-7,4.9-.4,1.7.8,3.2,0,4.8-.8,1.4-1.9,2.6-2.5,4.2-1.2,3.6.7,7.3,2.9,10.1,1.2,1.6,2.6,3,3.6,4.7.8,1.3,1.5,2.8,2.5,4,1.1,1.3,2.6,2,4.2,2.1,2.2.1,4.5-.2,6.8-.2,9.7.2,19.3,4.1,28.9,1.9,1.9-.4,1.1-3.3-.8-2.9-7.8,1.8-15.7-.9-23.5-1.7-2-.2-3.9-.3-5.9-.3-1,0-2,0-3,.1s-2.3.3-3.3,0c-1.1-.4-1.8-1.5-2.3-2.5-.8-1.5-1.7-2.9-2.7-4.2-2-2.6-5-5.4-4.8-8.9.2-3.1,3.6-4.8,3.1-8.1-.2-1.4-.9-2.3.4-3.3,1.1-.8,2.4-1.2,3.7-1.5,1.4-.4,2.9-.7,4.3-.5,1.8.2,2.6,1.4,3.7,2.7,2.6,3,7.5,3.4,11.2,4.1,4.5.8,8.9,1.3,13.5,1.7,1.9-.3,1.9-3.3,0-3.4h0Z"/>
        <path class="cls-11" d="m93.4,303.63c-.2,2.8-.1,6.2,2.3,8.1,1.3,1.1,3,1.4,4.7,1.5,1.4,0,2.8,0,4.1-.4,1.6-.5,3-1.7,3-3.5,0-.8-.7-1.5-1.5-1.5s-1.5.7-1.5,1.5q0,.2,0,0c0,.1,0,.2-.1.2.1-.2,0-.1-.1.1.2-.3,0,0-.1.1.2-.2-.1.1-.2.1s-.4.2-.1.1c-.1.1-.3.1-.4.1-.3.1-.6.2-1,.2.3,0-.1,0-.2,0h-1.6c-.8,0-1.4,0-2.1-.2-.4-.1-.5-.2-.8-.3-.3-.2-.4-.3-.7-.6-.2-.2,0,.1-.1-.2-.1-.1-.2-.3-.2-.4s-.1-.2-.1-.3c.1.1,0,.1,0-.1,0-.1-.1-.3-.1-.4-.2-.7-.2-1-.2-1.8s0-1.5.1-2.3-.7-1.5-1.5-1.5c-1,0-1.6.7-1.6,1.5h0Z"/>
        <path class="cls-11" d="m93.2,308.53c-.1.3-.1.2-.2.5s-.3.5-.4.8c-.3.5-.5.7-.9,1.2-.8.9-1.4,1.4-2.3,1.9-.2.1-.5.3-.7.4-.3.2-.3.1-.5.2-.5.2-1.1.4-1.6.5-.6.1-.7.1-1.3.2h-1.3c-.3,0,.1,0-.2,0-.8-.1-1.6.2-1.8,1-.2.7.2,1.7,1,1.8,5.6.9,11.2-2.3,13.2-7.6.3-.8-.3-1.6-1-1.8-1-.4-1.7.1-2,.9h0Z"/>
        <path class="cls-11" d="m56.7,374.83c-1.1,2.4-.6,4.9.6,7.2.6,1.2,1.3,2.3,1.7,3.6.4,1.4,0,2.5-.2,3.9-.4,2.6.9,4.3,3,5.6,1.8,1.2,3.9,3,3.2,5.4-.5,1.9,2.4,2.7,2.9.8.6-2.2-.1-4.5-1.5-6.2-.7-.9-1.6-1.6-2.5-2.2-.9-.6-2.1-1.1-2.2-2.2-.1-1.2.5-2.5.5-3.7s-.3-2.4-.8-3.5c-.9-2-3.1-4.8-2-7.1.7-1.8-1.9-3.4-2.7-1.6h0Z"/>
        <path class="cls-11" d="m70.3,438.03c.5,2.9,3.2,4.6,5.9,5.3.6.2,1.5.1,2.1.4.5.3.5.8.6,1.4.4,1.8.8,3.7,1.1,5.5.1.6.8,1.2,1.4,1.1,2-.3,4-.3,6-.2.9.1,2.7.1,2.8,1.3.1.8,1.1,1.2,1.8,1,.9-.2,1.2-1,1-1.8-.3-2-2.3-3-4.1-3.3-2.5-.4-5.2-.3-7.7,0,.5.4,1,.7,1.4,1.1-.4-1.8-.8-3.7-1.1-5.5-.3-1.6-.9-2.9-2.5-3.4-1.3-.4-2.6-.4-3.8-1-1.1-.6-2-1.3-2.2-2.6-.2-2-3.1-1.2-2.7.7h0Z"/>
        <path class="cls-11" d="m119.4,431.23c.2,1.6,1.5,2.7,2.9,3.3,1.6.7,3.2.6,4.9.7.3,0,.7.1,1,.2.2,0,.4.1.6.2-.2-.1.2.1.2.1.1.1.3.2.4.3-.2-.2.1.1.1.1l.3.3c.2.2,0-.1.1.2.4.6.5.8.6,1.6.1.4,0-.2,0,.2v.4c0,.1,0,.5,0,.2,0,.2-.1.4-.1.6-.2.8.3,1.6,1,1.8.8.2,1.6-.3,1.8-1,.9-3.1-.8-6.5-3.8-7.6-.9-.3-1.8-.5-2.7-.5-.8,0-1.8,0-2.4-.1-.4,0-.7-.2-1.1-.3-.1,0-.3-.1-.6-.3-.1-.1-.2-.1-.2-.2q.1.1,0-.1s-.3-.4-.1-.1c-.3-.4-.2-.3-.3-.7-.1-.8-1.1-1.2-1.8-1-.6.1-.9.9-.8,1.7h0Z"/>
        <path class="cls-11" d="m17.1,334.33c2.6-.6,5.3.1,7.4,1.7,1,.8,2,1.7,3.2,2.1,1.4.5,2.9.5,4.3.3,1.5-.1,2.8-.2,4.2.2,1.4.3,2.7.9,4,1.3,2.6.9,5.5,1.4,8.1.4,1.8-.7,1-3.6-.8-2.9-2.7,1.1-5.4,0-8-.9-1.3-.5-2.7-.9-4.1-1.1-1.5-.2-2.9,0-4.4.1-1.5.1-2.6-.2-3.9-1.1-1-.8-2-1.6-3.2-2.1-2.5-1.1-5.2-1.4-7.8-.8-1.7.3-.9,3.2,1,2.8h0Z"/>
        <path class="cls-11" d="m44.7,295.63c-.1,2.4.1,5,2.1,6.7.9.7,2,1.1,2.8,1.8.9.8.6,2.2.7,3.3.1,2.3,1.1,4,2.9,5.4,1.3,1,3.2,1.9,3.5,3.6.4,1.9,3.2,1.1,2.9-.8-.4-1.9-1.9-3.2-3.4-4.3-.7-.5-1.5-1-2.1-1.7s-.8-1.5-.8-2.5c0-1.2,0-2.5-.5-3.7-.5-1.1-1.5-1.8-2.5-2.4-.9-.5-1.8-.9-2.2-2s-.4-2.3-.3-3.4c0-1.9-3-1.9-3.1,0h0Z"/>
        <path class="cls-11" d="m108.7,329.33c-4.1-.8-8.2-1.6-12.4-2.2-1.9-.3-3.7-.4-5.4.4-1.5.6-2.9,1.7-4.2,2.7-2.5,1.9-5.1,4.1-6.3,7.1-.7,1.7-.8,3.3-.7,5.1.1,1.9-.2,3.1-1.5,4.5-1,1.2-2,2.3-2.6,3.8s-.7,3.2-.6,4.8c.3,3.4,1.7,6.5,2.4,9.8.8,3.8,0,7.6.2,11.4.2,3.1.9,6.1,2.1,9,2.3,5.7,6.3,10.6,11.5,13.9,2.8,1.8,6,3.2,9.3,3.7,3.9.6,7.5-.8,11.2-2.2,1.9-.7,3.9-1.4,5.8-2.1,1.8-.7,3.7-1.2,5.4-2.1,3.2-1.8,3.2-5.4,3.4-8.7.2-4.2.5-8.4.7-12.5.2-4,.6-8.1.5-12.2,0-1.7-.3-3.4-1.2-4.9-.9-1.4-2.2-2.5-3.1-3.8-1.9-2.7-1.8-6.2-2-9.3-.1-3.2-.5-6.6-2.3-9.3-1.7-2.6-4.3-4.5-7.2-5.4-1.4-.4-3-.6-4.5-.5-1.9.1-1.9,3.1,0,3,2.7-.2,5.4.7,7.5,2.5,2.2,2,3.1,4.6,3.4,7.5.3,3,.1,6,.8,8.9.3,1.3.8,2.7,1.5,3.8.9,1.3,2.1,2.4,3,3.6,2,2.7,1.1,6.8.9,9.8-.2,3.8-.4,7.5-.6,11.3-.1,1.8-.2,3.6-.3,5.4-.1,1.8-.1,3.6-.4,5.4-.2,1.5-.9,2.4-2.3,3-1.8.8-3.6,1.3-5.4,2-3.4,1.2-6.8,2.8-10.4,3.6-3.2.7-6.5-.2-9.4-1.6-4.9-2.4-9-6.4-11.7-11.1-1.3-2.4-2.3-5-2.8-7.7-.6-3.1-.4-6.3-.2-9.4.1-3.4-.6-6.5-1.6-9.8-.8-2.7-2-5.9-.9-8.7.6-1.5,1.8-2.6,2.8-3.8,1-1.3,1.6-2.8,1.6-4.5s-.3-3.4.4-5c.6-1.5,1.7-2.7,2.9-3.8,1.2-1.2,2.6-2.2,3.9-3.2,1.7-1.2,3.2-1.8,5.3-1.5,4.2.6,8.4,1.5,12.6,2.3,2,.2,2.8-2.7.9-3h0Z"/>
        <path class="cls-11" d="m72.6,282.73c-.1-.2-.2-.4-.3-.5.4.8.1-.6.1.7.2,1-.4,1.5-1.7,1.6-.5.9-1.2,1.2-1.8.9-.3-.1-.4-.3-.6-.5.2.2.3.5.1,0,.1.2.2.5.2.7-.2-.7-.1.3,0-.1q0-.2,0,0c-.4,1.2.4.6,2.4-1.8.7.2,1.3.4,2,.5.2.1.7,1,.4.5-.1-.3-.3-.5-.5-.8.2.4.1.1,0-.1-.1-.4-.2-.7-.2-1.1-.3-2.1-3-3.4-4.9-2.8-2.3.7-3.1,2.7-2.8,4.9.5,3.1,2.6,7.1,6.2,7,4.3-.2,5.9-4.9,4.9-8.5-1-3.4-4.2-6.3-7.9-5.5-1.8.4-3.3,2.1-3.7,3.9-.3,1.8.2,3.5,1.1,5.1,1,1.8,3.7,2.6,5.5,1.4,1.9-1.2,2.6-3.5,1.5-5.5h0Z"/>
        <path class="cls-11" d="m110.3,281.03c-.2-.9-.5-1.7-.7-2.6-.1-.4-.2-.8-.3-1.2-.1-.2-.1-.4-.2-.6,0,.6.1.7.1.3-.2.7-.4,1.3-.5,2,0-.1.1-.1.1-.2l-1.4,1.4c-.2.1-.3.1-.5.2h-2.1c-1.4-2.8-2-3.6-1.9-2.4v1.7c0,1.3-.3.9,1.8-.7.6-1.3,1.4-1.7,2.2-1.2-.3-.2-.4-.2-.1,0,.5.3-.2-.2-.3-.3-.1-.1-.2-.2-.4-.4q-.2-.2.1.1c.5,1.3-.6,3.3-2.2,3.2,2.1.2,4.1-2,4-4-.1-2.3-1.8-3.8-4-4-2.4-.2-4.6,1.6-5.3,3.8-.7,2-.2,4.1,1.1,5.7,1.1,1.4,2.5,2.7,4.3,3.3,2.3.8,5-.1,6.1-2.3.8-1.6.7-3.6.6-5.3-.2-2.8-2-5-5-5.2-1.5-.1-3.2.9-3.9,2.2-.7,1.2-.8,2.5-.5,3.8.3,1.5.8,3.1,1.2,4.6.5,2,2.9,3.5,4.9,2.8,2.1-.4,3.3-2.5,2.8-4.7h0Z"/>
        <path class="cls-8" d="m41.4,261.03c-2.5,1.6-4.9,3.8-4.8,7,.1,3.8,4.2,7,7.8,5.3,3.1-1.4,4.9-5.9,4.4-9.2-.5-3.5-4.2-6.5-7.8-5.2-2,.7-3.4,2.7-2.8,4.9.5,2,2.9,3.5,4.9,2.8-.4.2-1.4-.2-1.7-.4.7.6-.9-1-.5-1.2-.1,0-.2.6-.2.7-.4,1.1-1.3,1.3.9.6,1.2-.4,2.5-.7,2.9.9.1.5.1.9-.1,1.2-.1.1-.1.3-.3.4,0-.1,1-.9.3-.4.3-.2.6-.4,1-.6,1.8-1.1,2.5-3.6,1.4-5.5-1-1.7-3.5-2.4-5.4-1.3h0Z"/>
        <path class="cls-8" d="m119.8,253.53c-.8-.2-1.6-.4-2.4-.8.6.2-.5-.3-.6-.3-.4-.2-.7-.4-1.1-.6-1,2.4-2.1,4.9-3.1,7.3.2.1.5.1.7.2,1.1.4-.3-.2.2.1.5.3,1,.5,1.4.9-.3-.2-.2-.1.1.1.2.2.4.3.5.5.2.2.4.4.6.7.4.5-.5-.7.2.2,1.2,1.7,3.6,2.7,5.5,1.4,1.7-1.1,2.7-3.6,1.4-5.5-2.1-3-5-5.2-8.6-6.3-4.4-1.3-7,5-3.1,7.3,1.9,1.1,3.9,1.9,6,2.5,2,.5,4.4-.7,4.9-2.8.7-2.1-.4-4.4-2.6-4.9h0Z"/>
        <path class="cls-11" d="m46.1,257.63c-1.8.2-3.5-.7-5.4-.4-1.7.3-3.1,1.4-4.1,2.8-1,1.5-1.4,3.3-1.7,5-.3,1.9-.6,3.8.1,5.6.6,1.6,1.9,3.3,3.3,4.3,1.4,1,3.3,1.2,4.9.9,3.4-.7,5.3-3.7,5.7-7,.5-3.3,1-7.8-1.7-10.4-1.4-1.3-3.5.8-2.1,2.1,1.6,1.5,1.2,4.3,1.1,6.3-.2,2.2-.6,4.9-2.8,5.8-.9.4-2,.4-2.9,0-1-.4-1.8-1.6-2.3-2.5-.7-1.2-.6-2.6-.4-4,.2-1.3.4-2.8,1.1-4,.5-1,1.4-2,2.6-2.1.7-.1,1.5.2,2.2.3.8.2,1.6.3,2.5.2.8-.1,1.5-.6,1.5-1.5-.1-.7-.8-1.5-1.6-1.4h0Z"/>
        <path class="cls-11" d="m124.7,255.93c-.3-1.8-1.9-3-3.3-3.9-1.7-1.1-3.5-2.1-5.5-2.6-3.7-.9-7.9.6-8.8,4.6-.8,3.5.9,7.3,4.4,8.4.8.3,1.7.4,2.5.8s1.6,1,2.3,1.5c1.7,1.1,3.7,2,5.6,1,1.8-1,2.7-3.2,3.2-5,.6-2.2.1-4.8-2-5.9-1.7-.9-3.2,1.7-1.5,2.6,1.1.6.8,2.1.5,3.1-.3.9-.7,2.2-1.6,2.7-1,.5-2.4-.8-3.2-1.3-1.2-.8-2.4-1.5-3.8-1.9-1.1-.3-2.1-.5-2.8-1.5-.6-.8-.9-1.9-.8-2.9.2-2.5,2.4-3.6,4.7-3.2,1.7.3,3.2,1.1,4.6,2,1,.6,2.4,1.2,2.6,2.5.1.8,1.1,1.2,1.8,1,.9-.4,1.2-1.2,1.1-2h0Z"/>
      </g>
    </g>
  </g>
  <g id="Layer_3-2" data-name="Layer 3">
    <g>
      <path class="cls-4" d="m100.4.91c-3.98,21.12-4.49,43.15-6.07,64.54-.89,12.1-1.76,24.2-2.86,36.29-.41,4.52-.83,9.04-1.42,13.55-.78,5.97-2.38,11.56-1.15,17.59.9,4.38,7.59,2.52,6.7-1.85-1.13-5.52.9-11.59,1.57-17.16.53-4.36.94-8.74,1.33-13.12,1.05-11.75,1.9-23.52,2.77-35.29,1.53-20.76,1.96-42.2,5.83-62.7.82-4.37-5.87-6.24-6.7-1.85h0Z"/>
      <path class="cls-9" d="m106.22,0c.09,3.59-.35,7.21-.68,10.77-.61,6.49-1.31,12.98-1.99,19.47-2.2,21.31-4.53,42.67-5.51,64.08-.16,3.47-.28,6.95-.36,10.42s.03,6.84-.61,10.19-1.61,6.53-2.15,9.86-.8,6.59-.85,9.91c-.02,1.28,1.97,1.28,1.98,0,.04-3.14.28-6.28.78-9.38.47-2.94,1.25-5.79,1.9-8.7,1.3-5.8.88-11.94,1.1-17.85.44-12.04,1.45-24.05,2.53-36.05,1.5-16.7,3.34-33.37,4.97-50.06.41-4.19.97-8.46.86-12.68-.03-1.27-2.02-1.28-1.98,0h0Z"/>
      <path class="cls-9" d="m98.42-.26c-1.71,11.35-2.84,22.79-3.83,34.23-1.68,19.47-2.81,38.99-3.7,58.51-.16,3.42-.3,6.84-.44,10.26s-.14,7.03-.54,10.51-1.67,6.7-2.08,10.14-.14,7.1.17,10.64c.11,1.26,2.09,1.27,1.98,0-.27-3.14-.53-6.29-.29-9.44s1.37-6.11,1.91-9.22c.49-2.88.57-5.8.68-8.71.12-3.16.25-6.32.39-9.48.48-11.15,1.05-22.29,1.73-33.43.97-15.74,2.14-31.49,3.85-47.17.6-5.45,1.26-10.89,2.07-16.31.19-1.25-1.72-1.79-1.91-.53h0Z"/>
      <path class="cls-9" d="m91.32,114.85c2.98-1.23,5.65-3.09,7.76-5.53.35-.4.4-1.01,0-1.4-.36-.36-1.05-.41-1.4,0-1.88,2.17-4.26,3.94-6.89,5.02-.5.2-.85.66-.69,1.22.13.47.72.9,1.22.69h0Z"/>
      <path class="cls-9" d="m92.68,93.75c1.75-.14,3.14-1.21,4.19-2.56.51-.66.94-1.36,1.39-2.06.22-.34.45-.68.69-1.01.14-.19.48-.58.75-.83.37-.36.39-1.05,0-1.4s-1-.38-1.4,0c-1.15,1.11-1.87,2.55-2.79,3.84-.05.07-.1.13-.15.2-.19.25.12-.14-.09.11-.11.13-.21.25-.32.37-.12.13-.25.26-.38.39-.06.06-.12.11-.18.16,0,0-.24.2-.1.09-.27.21-.58.4-.9.54.13-.06-.01,0-.07.02-.07.03-.15.05-.23.07-.09.02-.18.04-.28.06-.21.04.12,0-.12.01-.52.04-1.02.43-.99.99.02.5.44,1.04.99.99h0Z"/>
      <path class="cls-9" d="m93.69,71.85c3.22.22,6.39-1.41,8.18-4.07.3-.44.09-1.1-.36-1.36-.49-.29-1.06-.09-1.36.36-1.41,2.09-3.94,3.26-6.47,3.09-.54-.04-.99.48-.99.99,0,.57.46.96.99.99h0Z"/>
      <path class="cls-9" d="m95.32,51.69c1.78.11,3.4-.79,4.75-1.86s2.48-2.43,3.43-3.85c.3-.45.09-1.1-.36-1.36-.49-.28-1.06-.09-1.36.36-.43.65-.77,1.09-1.27,1.67s-1.07,1.14-1.67,1.64c-.48.4-1.13.83-1.78,1.11.12-.05-.06.02-.1.04-.08.03-.16.06-.24.09-.16.05-.32.1-.49.13-.3.06-.48.08-.91.05-.54-.03-.99.48-.99.99,0,.57.46.96.99.99h0Z"/>
      <path class="cls-9" d="m96.1,29.69c1.94.35,3.85.11,5.64-.72,1.54-.73,2.85-1.91,3.8-3.32.3-.44.09-1.1-.36-1.36-.49-.29-1.06-.09-1.36.36-.71,1.06-1.76,1.96-2.98,2.56s-2.78.83-4.22.58c-.53-.09-1.07.14-1.22.69-.13.48.16,1.13.69,1.22h0Z"/>
      <path class="cls-1" d="m101.83,191.15c9.28,6.04,16.46,15.23,19.86,25.79,3.96,12.89,2.93,27.64-4.21,39.32-2.5,4.16-6.04,7.43-9.58,10.77-5.08,4.58-11.65,7.25-18.3,8.63-5.53.84-9.88-1.88-10.04-7.04-.17-4.31,3.45-8.03,7.74-7.84.62,0,1.25.02,1.88-.03,4.56-.13,8.94-1.22,13.32-2.55,5.46-1.71,9.54-6.01,12.45-10.92,3.81-6.9,4.8-15.44,4.05-23.27-.89-8.09-4.39-15.79-9.69-21.99-2.65-3.02-5.83-5.94-9.23-7.97-1.91-1.17-.22-4.06,1.75-2.91h0Z"/>
      <path class="cls-10" d="m95.9,148.74c.37-4.7,1.73-10.77-3.53-13.51l-3,11.09c1.48.01,2.71-.15,4.14-.54l-7.32-7.32c-.76,2.11-1.06,4.12-1.27,6.34-.31,3.31,2.98,5.81,5.95,5.95,4.1.19,2.15,12.66,1.93,14.71-.65,6.09-.7,13.15-2.44,19.01l8.75-3.56c-6.52-4.08-13.85-6.06-21.54-5.83l5.74,7.54c1.37-5.65,1.58-11.36,1.91-17.14.16-2.84.48-5.64.88-8.46.34-2.47.17-5.48.87-7.82l-4.16,4.16c1.29-.39,3.43.33,4.47,1.09l-2.95-5.14c.11,2.85-2.2,5.83-4.03,7.75-3.2,3.37-1.63,8.5,2.63,9.95l1.28.44-3.56-2.74c2.48,3.23.53,6.23.96,9.81.37,3.05,2.43,6.16,5.95,5.95,3.85-.23,6.03-2.36,6.86-6.02.44-1.93.46-3.98.71-5.94.1-1.21.28-2.41.55-3.6.87-1.89.66-2.19-.63-.89l-4.59.6.62.16c7.42,1.92,10.59-9.56,3.17-11.48-3.9-1.01-7.03.93-8.73,4.42-1,2.05-1.41,4.37-1.76,6.6-.29,1.86.09,5.6-.74,7.16l5.14-2.95-.59.03,5.95,5.95c-.44-3.69.76-7.2-.26-10.99-1.08-4.03-3.22-6.66-7.16-8l2.63,9.95c3.85-4.05,8-10.27,7.52-16.17-.55-6.75-9.92-8.66-15.41-7.66-7.01,1.27-5.84,9.48-6.61,14.92-1.07,7.59-.58,15.43-2.39,22.89-.89,3.64,1.76,7.66,5.74,7.54,5.71-.17,10.68,1.17,15.53,4.2,3.33,2.08,7.68.02,8.75-3.56,1.39-4.67,1.28-9.73,1.89-14.54.69-5.37,1.59-10.76,1.39-16.19-.31-8.63-4.46-17.59-14.25-18.05l5.95,5.95c.11-1.11.39-2.16.85-3.17,1.58-4.39-3.21-8.43-7.32-7.32l-.98.11c-5.75-.05-8.32,8.32-3,11.09l.57.3-2.74-3.56c.86,2.06-.03,4.3-.2,6.49-.6,7.64,11.31,7.6,11.91,0h0Z"/>
      <path class="cls-2" d="m76.06,144.55c4.01-2.22,8.54-3.34,13.12-3.26,4.11.07,9.35.96,12.34,4.05s2.62,8.2,2.37,12.25c-.31,5.21-.73,10.42-1.26,15.62-.6,5.92-1.35,11.83-2.23,17.71-.19,1.25,1.72,1.79,1.91.53,1.69-11.31,2.9-22.69,3.57-34.11.26-4.41.45-9.38-2.57-12.97s-8.16-4.65-12.48-4.99c-5.47-.43-10.99.8-15.79,3.45-1.12.62-.12,2.33,1,1.71h0Z"/>
      <path class="cls-2" d="m74.12,143.47c-1.2,12.17-2.09,24.37-2.65,36.58-.07,1.49-.13,2.97-.19,4.46s-.2,2.99.27,4.4c.7,2.08,2.61,3.62,4.35,4.84,4.07,2.85,8.94,3.93,13.84,3.52s9.18-1.11,12.32-5.03c.79-.99-.6-2.4-1.4-1.4-2.59,3.23-6.05,4.02-10,4.37-4.67.42-9.07-.14-13.09-2.72-2.05-1.31-4.23-3.01-4.37-5.62s.18-5.4.31-8.05c.27-5.53.6-11.05.99-16.57.45-6.26.99-12.52,1.6-18.77.13-1.27-1.86-1.26-1.98,0h0Z"/>
      <path class="cls-2" d="m73.34,186.93c4.46-1.58,9.19-2.14,13.9-1.63,2.33.25,4.63.79,6.84,1.56,1.51.53,5.05,1.5,5.11,3.53.04,1.27,2.02,1.28,1.98,0-.07-2.38-2.17-3.62-4.13-4.48-2.51-1.1-5.13-1.89-7.84-2.33-5.5-.89-11.14-.42-16.39,1.44-1.2.42-.68,2.34.53,1.91h0Z"/>
      <path class="cls-2" d="m83.65,193c4.34-.23,8.34,1.63,12.67,1.35v-7.94c-.92.06-1.82.22-2.74.28-5.07.33-5.11,8.27,0,7.94.92-.06,1.82-.22,2.74-.28,5.07-.33,5.11-8.26,0-7.94-1.87.12-3.42-.26-5.22-.69-2.44-.58-4.95-.8-7.45-.66-5.08.27-5.11,8.21,0,7.94h0Z"/>
      <path class="cls-2" d="m89.23,187.89c-1.07.01-3.46-2.75-4.75-3.35-2.78-1.28-5.08-.11-7.9.03-3.04.15-5.74,4.5-2.81,6.78,2.4,1.86,4.82,3.88,7.82,4.63,3.18.8,6.49.31,9.71.7,2.15.26,3.95-2.01,3.97-3.97.02-2.36-1.85-3.71-3.97-3.97-2.23-.27-4.52.04-6.74-.26-2.03-.28-3.59-1.51-5.18-2.74l-2.81,6.78c1.3-.06,2.61-.53,3.88-.58s1.35.28,2.42,1.16c1.9,1.56,3.8,2.77,6.34,2.74,5.1-.05,5.12-7.99,0-7.94h0Z"/>
      <path class="cls-2" d="m73.41,173.61c5.13-1.16,10.47-1.36,15.66-.5,4.54.76,9.16,2.21,12.41,5.62.88.93,2.28-.48,1.4-1.4-3.48-3.65-8.42-5.32-13.29-6.13-5.56-.93-11.22-.74-16.72.5-1.25.28-.72,2.19.53,1.91h0Z"/>
      <path class="cls-2" d="m74.73,158.38c4.98-1.8,10.36-2.36,15.59-1.48,4.83.81,9.79,2.67,13.16,6.35.86.94,2.26-.46,1.4-1.4-3.58-3.92-8.89-6-14.03-6.86-5.58-.94-11.32-.44-16.65,1.48-1.19.43-.68,2.35.53,1.91h0Z"/>
      <path class="cls-2" d="m85.2,140.49c-.08-.78-.1-1.58.04-2.36.09-.51.25-1.85.77-2.08.3-.14.82-.1,1.14-.13.42-.03.83-.07,1.25-.09.87-.05,1.75-.08,2.62-.08.83,0,1.66.05,2.48.14.73.08,1.69.14,2.37.45.29.13.32.21.4.53.11.43.2.87.26,1.31.11.85.11,1.71.05,2.56-.09,1.27,1.89,1.27,1.98,0,.08-1.11.02-2.22-.16-3.32-.16-.96-.35-2.11-1.25-2.67-.82-.52-1.96-.62-2.9-.75-1.07-.15-2.15-.23-3.24-.24s-2.17.04-3.24.12c-.97.07-2.18,0-3.01.57s-1.13,1.76-1.34,2.68c-.25,1.1-.32,2.23-.2,3.35.06.54.42.99.99.99.49,0,1.05-.46.99-.99h0Z"/>
      <path class="cls-7" d="m95.19,152.93c-.31,5.17-3.45,10.1-4.19,15.33-.58,4.05-1.05,8.57.61,12.4.98,2.26,5.07,1.74,5.44-.71,1.08-7.13,2.17-14.26,3.25-21.39.57-3.75-5.17-5.36-5.74-1.58-1.08,7.13-2.17,14.26-3.25,21.39l5.44-.71c-1.47-3.41.11-9.58,1.03-12.92,1.11-4.04,3.11-7.57,3.36-11.8.23-3.83-5.73-3.81-5.95,0h0Z"/>
    </g>
  </g>
</svg>